<svg id="Layer_1" data-name="Layer 1" xmlns="http://www.w3.org/2000/svg" viewBox="0 0 3001 182.1"><defs><style>.cls-1{fill:#010101;}</style></defs><path class="cls-1" d="M1792.72,306.64l-6.63,12.18-56.63,1.3-.26,12.37L1692.87,335l-.09,3.49,1.34.32-.16,37.73-4.63.14.11,4.61c-3.52,0-6.92-1.31-10.23.58l-24.9-5.34c-.64-1.19-3.67-3.07-4.79-3.77l-28.92.19-.16,10.05-4.68-.12a11,11,0,0,0-1.26-4.32l-1.24-.42-1.1.5a12.92,12.92,0,0,0-8.78.05l-1.53-8.36-1.15,8.29a7.1,7.1,0,0,0-2.48,1.67L1581,379l0-22.52-19.14-2.2.07-5.15c-5.07-.1-48.81-5.45-52.4-2.4l-2.45-2.39-15.62.28-2,2.15-1.23-2.06.26-15.95-2.5-.57-.31,2.34-2.74-.12-.31,10.13-2.84,1.56-.49-6.44-3.68-.47.11-6.29-2.69-2.54a24.8,24.8,0,0,1,.74-6.43l-2.52-2.23-4.79-.07-.63-4.28-2.42-2-4-.75-2.15-1.37-2.9-.15-.1-14.43L1451,294l-.16,19.64c-1.31.79-1.49,2.43-1.37,3.81l-2.63.29c-.35-.78-1.12-2.58-2-2.88-.84.42-1.33,2.33-1.55,3.14-2,.63-6,1.1-7.08,3,.28,1.12,2,1.37,2.92,1.72l-.26,5.23c-1.46.94-4.29,2.39-3.42,4.52-2.06,2.56-14.81,9.66-12.57,14.12l-4,0c-.87-2.22-3.75-1.1-5.37-.47-3.42-.4-7.2-1.5-10.6-.79-1.74.44-3.61,1.44-5.38.45-3,.34-5.67,2.33-8,4.17-4.4-2.16-9.55-2.15-14.31-1.52-2.45-4.83-5.41-2.81-7.78.76-3.2-.16-6.75.69-6,4.69l-4.37-2.35c1.58-3-1.72-4.33-4.24-4.23L1368.93,326l.82-1-1-1.09c5.72-4.36-3.75-7.78-7.29-8.85,0-4.36-.68-9-3.2-12.65l-8.09-.25c-2.36-2.3.12-3.95,2.32-4.79l1.94-.65,1.68-1.46-.33-1.05c-1.51-.81-7-.82-8.73-.87l-.41-7.78-4.09-.29-.67-3.26a13.93,13.93,0,0,0,3.82-1.79l.1-.82a9.26,9.26,0,0,0-3.4-1.47c-.26-1.42-.51-3.69-1.28-4.93l-.43,0c-.78,1.16-1,3.39-1.3,4.74l-2.6.12c-.36-1.31-.53-3.82-1.63-4.74-1.1.84-1.17,3.34-1.49,4.59h-3.57a16.84,16.84,0,0,0-1.4-3.87l-.6,0a13.14,13.14,0,0,0-1,3.68l-3.7.23c-.17-.78-.51-2.88-1.26-3.35-2.06,2.42-1.59,4.34-5.59,5.43l-.6.93.78,1.1-1.06,1.17-.28,1.57c-3.23.09-3.57,4.76-4.48,7.09-2,0-3.82.7-4.27,2.81-2.14,1-6.51,3.34-3.76,6-1.83,1.74-5.12,5.42-.9,6.46l-.24,15.73c-6.28,1.16-29.53-2.11-35-4.08a3.93,3.93,0,0,0-2.87,1l-5.95.05-.3-5.16a5.69,5.69,0,0,0-.33-4.8l0-5.77c7.59,1,6.9-9-.26-8.57l-.34-3.56c.74-1.24,1.74-3.67,3.45-3.64a10.36,10.36,0,0,0,2.69,1.69l1.38-.81,5,0,1.49,1.11h1.15l.82-1.1,5,.1,1.16,1,1.12.07,1.06-.88,7.07-.06,1.4,1.19h1.21l1-1.19,7.51,0,1.32,1c2,.86,4-5.11,4.89-6.19l-43.31-.75-5.84-4.29L0,273-.5,455c139.18.22,3001,0,3001,0V315.3S1792.76,307.21,1792.72,306.64Z" transform="translate(0.5 -273)"/></svg>