<svg id="Layer_0" data-name="Layer 0" xmlns="http://www.w3.org/2000/svg" xmlns:xlink="http://www.w3.org/1999/xlink" viewBox="0 0 3001.5 439.92"><defs><style>.cls-1{fill:url(#radial-gradient);}.cls-2{fill:url(#linear-gradient);}.cls-3{fill:#010101;fill-rule:evenodd;}</style><radialGradient id="radial-gradient" cx="1742.11" cy="202.6" r="1064.92" gradientTransform="translate(0.5 -18.76) scale(1 1.02)" gradientUnits="userSpaceOnUse"><stop offset="0" stop-color="#933"/><stop offset="0.35" stop-color="#37394e"/></radialGradient><linearGradient id="linear-gradient" x1="1442.3" y1="726.31" x2="1546.35" y2="-14.03" gradientUnits="userSpaceOnUse"><stop offset="0.51" stop-color="#fcb54b"/><stop offset="0.52" stop-color="#d89e4c" stop-opacity="0.82"/><stop offset="0.54" stop-color="#b7894c" stop-opacity="0.5"/><stop offset="0.55" stop-color="#98764d" stop-opacity="0.49"/><stop offset="0.57" stop-color="#7e654d" stop-opacity="0.36"/><stop offset="0.59" stop-color="#68584d" stop-opacity="0.25"/><stop offset="0.61" stop-color="#564c4e" stop-opacity="0.16"/><stop offset="0.63" stop-color="#48444e" stop-opacity="0.09"/><stop offset="0.66" stop-color="#3e3d4e" stop-opacity="0.04"/><stop offset="0.7" stop-color="#393a4e" stop-opacity="0.01"/><stop offset="0.79" stop-color="#37394e" stop-opacity="0"/></linearGradient></defs><rect id="Bay" class="cls-1" y="177.4" width="3001" height="262.52"/><rect id="lights" class="cls-2" x="0.5" y="177.4" width="3001" height="262.52"/><path id="City" class="cls-3" d="M1446.55,28.62l-11.76,14.51h-3.27l.07,4.9,1.83,2.86,0,7.41-1.75,1.86.06,9c-24.61,6.65-51.36.67-76.39,5.55-4.06-1-8.4,1-12.51,1a7.54,7.54,0,0,0-5.1-1.14c-6.1-3.3-11.62-2.2-18.09-2a18.56,18.56,0,0,0-18-6.13,12.46,12.46,0,0,0-7.91-.3c-9.42,2.72-23.55-.84-33.16,1.69-3.44,0-16.12-.88-17.14,2.91-3.07-.16-8-.85-9.46,2.61-1.78.16-7.7-.14-8.47,1.54-2.83.25-6.63.06-8.78,2.2C1211.34,77.54-.5,80.24-.5,80.24V454.9c139.18.22,3001,0,3001,0V300.08S1792.76,292,1792.72,291.42l-6.63,12.19-56.63,1.3-.26,12.36-36.33,2.51-.09,3.5,1.34.32-.16,37.73-4.63.14.11,4.61c-3.52,0-6.92-1.31-10.23.58l-24.9-5.35c-.64-1.18-3.67-3.06-4.79-3.76l-28.92.19-.16,10-4.68-.11a11,11,0,0,0-1.26-4.32l-1.24-.42-1.1.5a12.86,12.86,0,0,0-8.78.05l-1.53-8.36-1.15,8.29a7,7,0,0,0-2.48,1.67L1581,363.81l0-22.51-19.14-2.2.07-5.16c-5.07-.1-48.81-5.44-52.4-2.39l-2.45-2.39-15.62.28-2,2.14-1.23-2.06.26-15.94L1486,313l-.31,2.35-2.74-.12-.31,10.12-2.84,1.57-.49-6.44-3.68-.47.11-6.3-2.69-2.53a24.88,24.88,0,0,1,.74-6.44l-2.52-2.22-4.79-.07-.63-4.28-2.42-2-4-.76-2.15-1.37-2.9-.14-.1-14.43-3.31-.62-.16,19.64c-1.31.79-1.49,2.43-1.37,3.81l-2.63.28c-.35-.77-1.12-2.58-2-2.88-.84.43-1.33,2.33-1.55,3.14-2,.63-6,1.11-7.08,3,.28,1.13,2,1.37,2.92,1.72l-.26,5.23c-1.46.94-4.29,2.4-3.42,4.52-2.06,2.57-14.81,9.67-12.57,14.13l-4,.05c-.87-2.22-3.75-1.1-5.37-.48-3.42-.39-7.2-1.5-10.6-.78-1.74.44-3.61,1.44-5.38.45-3,.33-5.67,2.33-8,4.17-4.4-2.16-9.55-2.15-14.31-1.52-2.45-4.84-5.41-2.81-7.78.76-3.2-.17-6.75.69-6,4.68l-4.37-2.34c1.58-3-1.72-4.33-4.24-4.23l16.14-21.37.82-1-1-1.1c5.72-4.35-3.75-7.78-7.29-8.85,0-4.36-.68-9-3.2-12.65l-8.09-.24c-2.36-2.3.12-4,2.32-4.8l1.94-.64,1.68-1.46-.33-1.06c-1.51-.8-7-.81-8.73-.87l-.41-7.78-4.09-.28-.67-3.26a13.67,13.67,0,0,0,3.82-1.8l.1-.81a9.27,9.27,0,0,0-3.4-1.48c-.26-1.41-.51-3.68-1.28-4.92l-.43,0c-.78,1.16-1,3.39-1.3,4.74l-2.6.11c-.36-1.3-.53-3.81-1.63-4.74-1.1.85-1.17,3.35-1.49,4.59h-3.57a16.93,16.93,0,0,0-1.4-3.86l-.6-.05a13,13,0,0,0-1,3.68l-3.7.22c-.17-.77-.51-2.88-1.26-3.34-2.06,2.41-1.59,4.34-5.59,5.42l-.6.94.78,1.09-1.06,1.17-.28,1.58c-3.23.09-3.57,4.76-4.48,7.09-2,0-3.82.7-4.27,2.81-2.14,1-6.51,3.34-3.76,6-1.83,1.74-5.12,5.41-.9,6.46l-.24,15.73c-6.28,1.15-29.53-2.11-35-4.09a4,4,0,0,0-2.87,1l-5.95,0-.3-5.15a5.69,5.69,0,0,0-.33-4.8l0-5.77c7.59,1,6.9-9-.26-8.57l-.34-3.56c.74-1.24,1.74-3.68,3.45-3.64a10.63,10.63,0,0,0,2.69,1.69l1.38-.81,5,.05,1.49,1.11h1.15l.82-1.1,5,.1,1.16,1,1.12.06,1.06-.87,7.07-.07,1.4,1.19h1.21l1-1.19,7.51,0,1.32,1c2,.86,4-5.11,4.89-6.19l-43.31-.76-5.84-4.28,25.8-2.89,5.06-3v-6.5l33.74-3.75-.09-4.11c4.2-.16,13.91.14,17-2.59a8.93,8.93,0,0,0,7.86,2.49c3,2.85,6.58,4.12,8.8-.3l19-1c3.1,2,7.86,3.43,10.26-.31l25.42-1.68c3.63.42,8.06,1.66,10.69-1.77a4.75,4.75,0,0,1,1.33-.45c18-1.72,36.15,0,53.85-3.87,10.19-.24,20.41,2.29,30.49-.37,2.77-4.06,8,1,11.57-2,2.46.26,6.52,1.31,8.7,0,0-1.92-2-3.18-3.54-4,12.51,2,25-.55,37.47.15a28.65,28.65,0,0,0,9.72-1.52c5.1.5,10.88,1,15.65-1.11,4.41-1.83,9.7,1.89,13.86-1.4,5.33.6,10.1-2,15.25-2.33,6.68.2,13.85,2.06,20.14-1.1,10.09,1.87,20.42,3.67,30.64,1.25a19.92,19.92,0,0,1,6.75.3c3.49,1.14,7.3.77,10.88.23,4.66-.5,13.73.29,18.08-1.11l-.12-.25c-4.43-2.08-11.49-.9-11.59-7.63-1.23-1.83-3.89-3.49-4.84-.5l-3.42-3.6-.1-1.51-2.11-1.56c8.23-.48,16.75,1.1,24.81-.63l.12-.23c-2.62-1.59-6.39-1.59-9.36-2.24-.62-2.12-3.06-3.16-5-3.88,3.72-.21,60.13,1.1,53.53-3,8,1.74,16-1,23.92-1.39,14.31-.62,32,.07,46.11-1.94l0-.28c-2-1.26-4.92-1.55-7.17-2.14a14.87,14.87,0,0,0-8.88-7.79c-3.73-3.89-7.11-9-13-9.23a19.57,19.57,0,0,0-10.41-5.11l-7.63-8.33a29.51,29.51,0,0,0-9.31-1.5c-1.81-8.1-14-10.92-21-12.6-5.81-1.73-11.69-4.05-17.89-3.33-2.26-1.07-6-3.49-8.36-1.82a6.92,6.92,0,0,0-6.67-2.75,11.26,11.26,0,0,0-7.79-1.94c-7.84-5.83-19.29-2.36-28.5-3.17a158.21,158.21,0,0,0-45.18-.89c-9.54-2.2-3-5.56-18.5-3.75l-.84-1.6c-2.31-1-3.94-3.63-6.62-3.83-.85-1.73-1.77-5.39-3.94-5.73l-.53.27a12.38,12.38,0,0,0-3.68-3c-.12-1.66.3-6.86-1.48-7.49l-.41.11c-7.69-6.6-17-13.43-26.73-15.92a44.81,44.81,0,0,0-23.66-7.45,10.33,10.33,0,0,0-8.36-2.13c-2.79-4-5-2.66-9-2.2l1.45-1.38-.37-1c-9.32-.89-17.76-5.41-27.05-6.34l-.31-5.09c-.88,0-19.7,2.06-19.92,1.78l-.22-21.92,1.15-1.93-.15-6.45-11.91-.05-.84-.69V34.23h-2.4l-7.28-5.9,4.45-.11,0-1.54h-4.94l-.08-11.6h-1.53l.08,2.49-3.12.08,1.06,2.17,1.65.59.33,6.22-4.53,0,0,1.53,4.45.08,0,15-11.85-.09,11.74-14.48-.42,0m2.21-.3,7.43,6,.14,5.41-4.27.08v2.57l-.79,0,0,.78-2.49.07,0-15m10.18,8.24.3.25h-.3v-.25" transform="translate(0.5 -15.08)"/></svg>