<svg id="Layer_1" data-name="Layer 1" xmlns="http://www.w3.org/2000/svg" viewBox="0 0 755.21 175.16"><defs><style>.cls-1{fill:#dcc6e2;}.cls-2{fill:#c9a8d3;}.cls-3{fill:#c3a5cd;}.cls-4{fill:#c4a6cd;}.cls-5{fill:#ccacd5;}.cls-6{fill:#cfb2d8;}.cls-7{fill:#d1b4d9;}.cls-8{fill:#eadced;}.cls-9{fill:#bd9cc8;}.cls-10{fill:#b996c4;}.cls-11{fill:#cdafd7;}.cls-12{fill:#c2a3cc;}.cls-13{fill:#bf9ec9;}.cls-14{fill:#ceb1d7;}.cls-15{fill:#d7bede;}.cls-16{fill:#e3d1e8;}.cls-17{fill:#dfcbe5;}.cls-18{fill:#b590c1;}.cls-19{fill:#e7d8ea;}.cls-20{fill:#d5bcdd;}.cls-21{fill:#af8eba;}.cls-22{fill:#a27caf;}.cls-23{fill:#cbabd4;}.cls-24{fill:#73508a;}.cls-25{fill:#d58aa4;}.cls-26{fill:#ba80b3;}.cls-27{fill:#b5b5d4;}.cls-28{fill:#905086;}.cls-29{fill:#b5719d;}.cls-30{fill:#a979b2;}</style></defs><path class="cls-1" d="M0,60.55c13.67.12,27.34.12,41,.44,4.11.1,6.61-1,7-5.34,1.09-3.17-1.08-4.17-3.41-4.91a20.1,20.1,0,0,0-6.86-1.24C29,53.8,19.12,52,10.07,54.56c-3.28,1.09-7.29-.84-10,2.4Z" transform="translate(0 -1.51)"/><path class="cls-2" d="M154.9,23.6c-2.56-2.18-4.88-3.17-8.44-1.15-2.72,1.55-6.38,1.47-9.63,2.11-7.14,4.4-14,4.39-20.42-1.4-2.52-2.27-5.54-1-8.37-.95h0c-7.07,1-12.75,7-12.61,13.36,0,2.34,8,8,11.33,7.08,4.09-1.15,7.9.16,11.82-.15,4.94,2,8.34-2.17,12.54-3.11,2.86-2.24,5.68-2.31,9.39-1.54,4.78,1,10.22,2.08,14.52-2.18,2.91-2.89,7.5-1.06,10.54-3.64,1.71-5.94.77-7.38-5-7.44C158.66,24.55,156.64,25,154.9,23.6Z" transform="translate(0 -1.51)"/><path class="cls-3" d="M37.25,52.2,48,55.65h2.44c5.47-3.29,12.14-2.86,17.65-2.81,5.93.06,11-3,16.67-2.31a2.54,2.54,0,0,0,.8-3.18c-8-5.23-16.84-6.82-26.24-6.73-3.15,0-6.3-1.2-9.48-1.36-6.1-.32-12.38-1-17.54,3.53-2.13.45-3.77,1.4-3.85,3.88A4.54,4.54,0,0,0,29,48.58C30.33,53,33,54.44,37.25,52.2Z" transform="translate(0 -1.51)"/><path class="cls-4" d="M204.34,18.75l5.8-4.16c-1.91-1.11-3.79-2.28-5.73-3.32-3.68-2-7.4-3.9-11.1-5.84-8.64-1.37-12.59,6.29-18.74,9.7-1.33,4.17-2.08,8.56-6.21,11.34-2.1,1.42-.4,4-.91,6,2.8,7.16,3.71,7.74,10.81,6.85,2.13-.29,4.15-.75,4.85-3.2,2.79-7.79,9.32-11.44,16.35-14.43C201.27,21,203.26,20.67,204.34,18.75Z" transform="translate(0 -1.51)"/><path class="cls-5" d="M177.6,39l-8.36-7.19c-1.17-2-2.62-2.91-4.74-1.21-5.16,0-9.8.28-14.31,4.13-2.18,1.86-7.43.33-11.26,0-3.29-.28-7.08-2.52-8.1,3,.57,2.09,2.66,2,4.1,2.88,4.91,3,10,1.59,15.11.7,2.5.62,5,1.6,7.5,1.78A50.85,50.85,0,0,0,178.7,40c.19-.48.36-1-.21-1.31A1.25,1.25,0,0,0,177.6,39Z" transform="translate(0 -1.51)"/><path class="cls-6" d="M118.81,40.17a116,116,0,0,1-11.88-1c-2.74-.45-5.34-1.74-8-2.65a105,105,0,0,1,4.63-10.47c.93-1.64,3-2.63,4.53-3.92-7.18-1.8-19,3.55-22.2,10-.86,1.77,1.87,5.29,3,8a11.55,11.55,0,0,1,6.3,2.36c2.4,1.79,5,2.88,8.17,2.12,4.53-1.07,7.5,3.1,11.58,3.7,1.93,0,3-1.49,4.3-2.5C121.17,43.84,120.76,42,118.81,40.17Z" transform="translate(0 -1.51)"/><path class="cls-7" d="M44.4,176.67c6.12-.15,12.24-.2,18.35-.49a112.45,112.45,0,0,0,11.73-1.13,13.63,13.63,0,0,0,5.77-2.12c.59-.42.31-3.58-.45-4a12.28,12.28,0,0,0-5.62-1.21c-6.72-.3-13.44-.42-20.16-.62-1.51,2.87-3.41,5.16-7,5.69C45,173.06,43.09,173.9,44.4,176.67Z" transform="translate(0 -1.51)"/><path class="cls-8" d="M114.08,46.18c-2.76-4.17-6.2-5.69-11.52-4.9-4.42.66-9.14-.65-13.73-1.08,5.06,3.37.14,4.9-1.32,7.07a2.61,2.61,0,0,0,1.22,2.65c5.17,2.78,11,3.44,16.59,4.53C112.63,55.87,116.1,52.15,114.08,46.18Z" transform="translate(0 -1.51)"/><path class="cls-9" d="M162,95.24c-1.93-1.57-3.68-4.09-5.84-4.51-4.88-.94-10.1-1.67-14.9-.84-2.57.44-4.56,4.27-6.82,6.57-.6,2.11-4.77,2.18-3.18,5.54,6.27,3,12.49,6,18.19-1.12a6.48,6.48,0,0,1,5.12-2.15A9.73,9.73,0,0,0,162,95.24Z" transform="translate(0 -1.51)"/><path class="cls-10" d="M164.5,30.61l4.74,1.21c1-1.45,1.61-3.43,3-4.25,4.73-2.87,4.6-6.81,3.18-11.25.34-1.68-.58-1.71-1.79-1.36A11.82,11.82,0,0,1,170.05,16a2.56,2.56,0,0,1-1.91-.82l-13.2,8.4c0,3.37.6,5.72,5.1,4.36C161.13,27.67,163,29.67,164.5,30.61Z" transform="translate(0 -1.51)"/><path class="cls-11" d="M204.34,18.75c-5.62,1.18-11.93,1.18-16.64,3.91-3.59,2.07-5.15,7.6-7.61,11.6,4.29,1.69,8.56,3.07,12.53-.71,1.82-6,7-3.64,11-4.31,3.39-.58,6.12-1.42,5.18-5.74C207.29,21.92,205.81,20.34,204.34,18.75Z" transform="translate(0 -1.51)"/><path class="cls-6" d="M132.05,101.23l2.4-4.77c-7.74-3.17-12.64,2-17.93,6.06L114.16,106c7.84.87,15.66,1.93,23.52,2.48,2.85.21,5.79-.8,8.69-1.25-1.22-3.56-4.47-2.43-7-2.91S133.63,104.37,132.05,101.23Z" transform="translate(0 -1.51)"/><path class="cls-5" d="M132.05,101.23c-1.33,5.25,2.62,4.75,5.67,5.12,2.88.35,5.77.57,8.65.85,2.39-2,4.69-4.06,7.2-5.85a6.38,6.38,0,0,1,3.73-1c3.68.12,5-1.66,4.71-5.07-6.62.1-12.79,1.39-18,5.87a7.88,7.88,0,0,1-5,1.41A41.3,41.3,0,0,1,132.05,101.23Z" transform="translate(0 -1.51)"/><path class="cls-12" d="M44.4,176.67c3.67-1.41,7.63-2.34,10.93-4.36,3.46-2.12,1.44-4-1.31-5.25-4.59.57-9.28.76-13.7,1.94-1.47.39-2.25,3.34-3.34,5.12,1.51.63,3,1.33,4.54,1.88A23.59,23.59,0,0,0,44.4,176.67Z" transform="translate(0 -1.51)"/><path class="cls-5" d="M108,22.21c4.48.76,9.14,1.36,5.25,7.8-.23.37.49,1.88.74,1.88,1.29,0,3,0,3.75-.73,1.75-1.85,2.91-1.35,5.3-.91,5.27,1,10.52-.54,13.75-5.69-7.1.15-14.2,1.32-20.9-2.91C114.14,20.52,110.76,22,108,22.21Z" transform="translate(0 -1.51)"/><path class="cls-13" d="M174.09,16.09l1.29.23c3.8.2,7.78,1,8.33-4.83.11-1.14,2.48-2.15,3.93-3,1.83-1.11,3.78-2,5.67-3-5.46-2.19-10.67-4.21-14.39,3-1.18,2.29-4,3.71-6.11,5.53C172,15.44,172,16.4,174.09,16.09Z" transform="translate(0 -1.51)"/><path class="cls-5" d="M84,49.77c-3.12.34-6.23.9-9.35,1-3.4.08-7-1-10.16-.3-4.83,1.13-9.38,3.42-14,5.22H66c2.38-.33,4.82-.83,7.15-.38C78.24,56.24,81.19,53.28,84,49.77Z" transform="translate(0 -1.51)"/><path class="cls-14" d="M86.53,55.91c-1,2.51-2.24,5.08,2.32,5.24,5.29.19,10.52.38,14.27,5.24.83,1.08,3.25,1,4.94,1.37,2.06-1.7.72-3.88.85-5.86-1.45-5-5.23-7.44-10-7.44-4,0-6.61-3.35-10.43-3.27C86,52,87.6,54.51,86.53,55.91Z" transform="translate(0 -1.51)"/><path class="cls-15" d="M105.63,62.92l2.43,4.84c8.67-.14,17.35-.26,26-.44,4.38-.08,6.61-2.28,6.37-6.75-1.18-4.39-2.25-4.55-6.62-1-4.1,4.64-9,4.67-14.55,3a42.74,42.74,0,0,0-7-1.4C109.82,60.72,107.17,59.67,105.63,62.92Z" transform="translate(0 -1.51)"/><path class="cls-15" d="M208.76,23.5c-4.36,1.35-8.83,2.44-13,4.15-1.86.76-3.2,2.77-4.77,4.21,2.4,4.08,4.76,2.64,7.12,0,2.35,0,4.81.4,7-.15a8.87,8.87,0,0,0,5.12-3.25C210.76,27.44,209.31,25.18,208.76,23.5Z" transform="translate(0 -1.51)"/><path class="cls-16" d="M150,41.35,135.66,39c-8.41.2-9.59,1.7-7.79,9.83a24.43,24.43,0,0,0,1.43,4.49A3.92,3.92,0,0,0,131.54,55c2.12.87,3.67-1.24,5.66-1,1.35-.14,2.66-.34,3.26-1.81-1.14-3-8.11-1.41-5.73-6.43.74-1.55,5.29-1.22,8-1.95C145.24,43.12,147.62,42.17,150,41.35Z" transform="translate(0 -1.51)"/><path class="cls-17" d="M198.06,31.81h-7.12l-10.85,2.4L177.6,39l1.1,1c4.13,4,6.85-1.19,9.8-2.16C191.76,36.83,197.28,37.38,198.06,31.81Z" transform="translate(0 -1.51)"/><path class="cls-18" d="M28.89,41.26c-3.22.77-6.48,1.39-9.63,2.4-1.09.35-1.88,1.65-2.8,2.52,1.18.77,2.37,2.19,3.55,2.19a94.51,94.51,0,0,0,9.94-1c.78-1.53,1.56-3,2.33-4.58Z" transform="translate(0 -1.51)"/><path class="cls-19" d="M86.53,55.91l2.09-4c1.52-1.21,1.13-2.48.14-3.78l-1.25-.9-2,.08-1.57,2.42-18,5.84c.87.79-.76,5.3,3.1,1.84,1.3-1.16,4.13-1.36,6-1,3,.65,5,1.15,7-2.11S85.54,53.83,86.53,55.91Z" transform="translate(0 -1.51)"/><path class="cls-20" d="M140.46,52.17l-3.62.08c-1.3,2-3.72,3.22-4.52,5.59-.49,1.49-.75,3.17.66,4.44s2.83,1.33,3.89-.54c.54-2.39,1.59-3.21,3.59-1.17l9.1-5.48Z" transform="translate(0 -1.51)"/><path class="cls-21" d="M174.09,16.09,172.81,14h-3.38c.89,2-2.58,2.65-1.37,4.69Z" transform="translate(0 -1.51)"/><path class="cls-22" d="M168.06,18.67c.45-1.56.91-3.13,1.37-4.69l-1.33,1.23C168.09,16.35,168.07,17.51,168.06,18.67Z" transform="translate(0 -1.51)"/><path class="cls-23" d="M30.07,47.42l-14.45,2.4Q13.21,54,10.81,58.17C17.47,57,24.16,56,30.81,54.7c2.23-.44,4.31-1.64,6.46-2.5Z" transform="translate(0 -1.51)"/><path class="cls-20" d="M130.81,52.23a55.52,55.52,0,0,0,0-6.32c-.42-3.84.9-6.28,4.89-6.94l-4.83-1.2-12,2.4c-.39,1.6-.77,3.21-1.16,4.81-1.35,3.79-2,7.07,2.83,9.33C124.76,56.3,128.11,56.67,130.81,52.23Z" transform="translate(0 -1.51)"/><path class="cls-2" d="M130.81,52.23c-7.88,1.47-10,.32-13.16-7.25l-3.57,1.2c-3.18,5.88-5.06,6.08-11.35,4-4.38-1.46-9.29-1.37-14-2,0,1.26-.09,2.52-.13,3.78.7,3.94.89,7.48,7.15,5.66a7.87,7.87,0,0,1,9.83,5.23l0,.08,7.21,1.23c4.12.75,8.25-.09,12.51.55,4.8.72,8-5.57,6.66-11.28Z" transform="translate(0 -1.51)"/><path class="cls-14" d="M132,53.42c-1,1.7-2.32,3.28-2.93,5.11-1.41,4.2-3.89,5.1-8.17,4.29-2.52-.47-5.37.83-8.07,1.33,7.36.13,14.73.34,22.1.28.65,0,1.29-1.75,1.93-2.69-2.61-2.64-3-3.58.42-6,3-2.2.73-2.47-.45-3.47Z" transform="translate(0 -1.51)"/><path class="cls-24" d="M699.53,83.75c-4-1.21-7.85-2.81-11.9-3.5-2.29-.38-4.83.71-7.25,1.14-7.8,2.26-9.25,1.6-12.3-5.72a2.64,2.64,0,0,0-2.18-1.74l-1.21.09a2.1,2.1,0,0,1-2.22-1.31,3,3,0,0,1,.08-.89c-.18-.77-.93-.75-1.46-1-2.74-.38-4.58-.42-7,2.37-4,4.56-9.55,7.74-14.56,11.35a2.89,2.89,0,0,1-2.78-.15c-3.35-4-7.66-4.23-12.16-3.12-6.73,1.65-10-5.19-15.68-6.1-2.63-.42-5.13-1.61-7.68-2.44-4.22-1.76-2.74-7.47-6.62-9.44-6-.09-12-.19-17.08,4-3,2.45-6.5,1.28-8.88-2.34-3-2.59-6-2.31-8.8.38a7,7,0,0,1-3.41,2.1c-3,.37-5.44-.87-7.76-2.49-1.44-1-3.2-2-2.36-4.22.74-2,2.55-2.39,4.38-2.8,3.33-.73,6.22,2.49,9.61,1a8.65,8.65,0,0,0,2.59-7.61c-1.27-7.09,3.48-10.37,8-14,2.52-2,6.3-3.14,5.26-7.6-2.34-3.77-9.63-5.14-13-3.1-2.13,1.27-5,1.29-7.57,1.87-6-2.5-11.93-4.23-16.52,2.62-.85,1.26-2.11.74-3.13,0-2.34-1.64-4.46-1-6.53.51-4.81,2.55-4.93-1.3-6.29-4.37,3.27-.43,4.13,3,6.57,3,3,0,4.22-2,4.46-4.59.38-4.22,1.32-8.09,3.93-11.62a4.91,4.91,0,0,0-.47-6.92l-.1-.08c-6.45-1.62-13-2.92-19.3-5-5-1.63-7,.74-8.4,4.76-.48,1.39-.66,3.67-1.54,4-4.26,1.52-7.55,3.27-6.4,8.74.08.41-2.37,1.58-3.77,2-3,.92-6.08,1.32-8.91,2.51-.91.38-1.09,2.52-1.57,3.87-.31.9-.3,2.08-.9,2.69-2.18,2.24-4.57,4.27-6.84,6.42a51.64,51.64,0,0,0-4.58,4.54c-1.87,2.25-4.31,4.46-5.1,7.11-2.69,9.1-10.92,11.71-17.78,5.3-3.09-2.9-5.84-3.14-9.82-.46A43,43,0,0,1,427,60.19c-2.52.47-5.9-3.15-8.77-5.09-3.15-2.13-6.07-4.62-9.29-6.65-2.09-1.32-4.46-2.34-5.55,1.56-.12.45-3.29.06-5.05,0-.9-5.62-2.36-10.77-6.67-15.16a10,10,0,0,0-7.64-3.45c-1.63-1.11-1.4-2.91-1.51-4.49-.43-6.33-6.47-12.35-13.22-13-8.44,4.49-19,5.44-24.69,14.51-.85,1.35-1.65,3.32-1.33,4.74,1.54,6.84-.94,13-2.92,19.18-.69,3.41-3.17,6.33-.74,10.44,1.64,2.78-2.06,4.65-4.11,6.44-2.68,1.17-4.6,2.86-5.21,6-.69,3.57-3.17,6.32-5,9.35-1.31,1.84-.7,4.68-3.09,6-7.56-.47-15.24-.45-21.69-5.36a40.21,40.21,0,0,0-6.26-3.3c-2.68-1-5.37-2.26-8.09.3a2.87,2.87,0,0,1-4.05.25,1.45,1.45,0,0,1-.18-.17c-1.25-1.73-2.44-3.5-3.77-5.17-1.08-1.36-2.31-3.65-3.52-3.68-5.49-.12-9-3.51-13-6.44-4.67-3.42-11.93-.74-14.29,4.54-1,2.16-2.66,4-4,6-1.42-1.92-3-3.77-4.24-5.78s-1.94-4.25-3.4-5.93c-.94-1.07-3.07-2.09-4.28-1.76C224.65,66,218,68.28,211.21,70.42c-3.69,1.18-6.15,7.4-3.38,12.26,2.68,4.7,1.63,5.61-3,6-1.2.11-2.3,1.4-3.45,2.15-.28,7.61-2.9,9.35-9.24,6.13,8.9-.18,8.9-.18,9.24-6.14-4.56,2-7.47-1.24-10.16-3.72-4.27-4-8.34-2.34-12.46-.37-1.87.89-4,2.11-5,3.78-.7,1.17.28,3.34.51,5.06-1.86,7.77,2.86,13.2,12.46,13.57,4.61.18,8.76,1,12.5,3.7,4,1.62,8.17,1.91,12.36,2.33,1,0,2.19-.15,2.61-1.06,1.79-3.87,5.42-4.73,9-5.7,3.13-2.85,6-.59,8,1.18a19,19,0,0,0,15.06,5.07c4.7-.41,8.92,2.24,13.38,3.42,1.32.36,1.32,1.78,1.75,2.88,2.58,6.68,6.28,11.2,14.33,12.84,6.3,1.28,10.47.32,14.3-4.06,2-2.31,3.47-2.33,5.92-.46,9.18,7,18.71,5.41,28,.19a23.23,23.23,0,0,1,11.29-3.21,27.49,27.49,0,0,0,9.92-1.64,8.9,8.9,0,0,1,4.45-.61c1.85.26,3.87.77,3.6,3.1s-2.3,1.61-3.83,1.55a10.77,10.77,0,0,0-3,.08,31.66,31.66,0,0,0-8.06,3.64c-4.6,3.17-9.61.05-14.43.54-1.25.13-2.66-.57-4-.11-4.1,2-9,1.86-12.82,4.5a41.39,41.39,0,0,0-16.39,5.37c-5.3,3.26-5.44,6.88-.87,11.2a6.33,6.33,0,0,0,1.55,1c1,.78,2.45,1,1.56,3.12-2.21,5.22-.57,7.29,5,6.05a21.57,21.57,0,0,1,9.39.28,15.27,15.27,0,0,0,1.66.14c10.35-1.13,20-4.91,29.62-8.41a110.19,110.19,0,0,0,10.51-4.14c3.49-1.68,6.58.36,9.81,1.18a4.44,4.44,0,0,0,1.77-.23c2.07-.9,3.5-.1,4.7,1.62a48.93,48.93,0,0,0,4.7,5.17c3.57,3.86,7.49,4.16,11.61,1.11,1.6-1.2,3.43-1.93,5-3,2.36-4.59-.69-7.6-3.41-10.42-1.76-1.83-3.36-3.5-2.92-6.15.79-4.66-2.74-7.74-4.32-11.47-1.28-3-5.62-2.08-7.63,1.48-1.22,2.14-1.89,6.43-4.61,4.92-3.07-1.7.5-4.82,1.35-7.23.91-2.57,3-4,5.62-5a20.67,20.67,0,0,0,12.94-22.28,28.51,28.51,0,0,1-.06-7.15c.67-6.11-1.24-8.33-7.42-8.82a8,8,0,0,0-2.4,0c-6.2,1.39-11.69,4.6-17.47,7-2.67,1.13-4,3.69-4,6.82a7.67,7.67,0,0,1-3.08,6.16c-.64-5.72-3.47-9.6-7.32-13.11-2.46-2.25-1.15-5.15,2.14-5.73,7.49-1.33,10.43-8.3,15.79-12.25,2.39-1.76,2-5.26.45-7.75-2.3-3.61-1.95-7.18-.76-10.9,2.06-6.46,4-12.94,4.15-19.8,0-1.42.25-3,1.83-3.45,1.39-.43,2.08.84,2.87,1.72.53.6-.24,0,.38.46,10.94,8.64,14.56,19.89,12.2,33.38a11.22,11.22,0,0,0,.49,5.91c1.33,3.52,5.83,5.3,8.26,2.73,2.76-2.93,6.9-4.84,7.7-9.55.46-2.68,8.5-7,11.12-6.31s3.21,2.74,2.85,5.14-1.86,4.43-2.33,6.77c-1,4.9,1.9,7.74,6.79,6.54l11.61-3c5.72-1.45,8.1-7.09,12.5-10.24,2-1.44,8.31-1.08,9.38,1.21.58,1.22-.18,2-1.16,2.31-7.18,2.42-9.31,9-11.88,14.9-1.8,4.13-4.08,6.68-8.69,6.9s-8.28,2.84-12.37,4.36c-3.2,1.19-6.26,2.66-9.73,2.87a3.21,3.21,0,0,0-1.75.32c-4.83,3.63-9.51,6.83-16.18,7-3.21.11-5.08,4.61-3.45,8.27,2.32,5.21-.39,8.35-3.89,11.32-4.51,3.83-4.88,6.65-.34,9.75,4.29,2.93,7.51,5.54,5.17,11.48-.92,2.34.76,4.53,3.61,5.22,6.51,1.57,13,3.44,19.53,4.66s12.86-.94,18.84-3.43c2-.84,3.57-2.34,5.83-.87-4-.27-7.43,2.09-11.31,2.77-6.4,1.13-12.29,2.27-19,.36-7.09-2-14,1-19.69,6-.66,2.93,1,4.45,3.36,5.61l9.8-2.28c1.35,1.32,3.17,1,4.51.58,10.1-2.83,20.46-2,30.74-2.56,3.55-.2,6.83,1.68,10.35.76,1.21-.51,2.93-.83,3.7-.34,4.47,2.79,8.45.33,12.57-.76a9.81,9.81,0,0,0,4.41-7.24c-.41-4-3.65-4.24-6.57-5.16-4.82-1.53-9.75-2.38-12.34-8.13-1.68-3.72-6.28-4.54-10.53-4-5.29.48-10,2.22-13.84,6.09A8.12,8.12,0,0,1,415,146.6c-2.56.54-4.89,0-6.29-2.29s.21-4.07,1.78-5.67c1.12-1.14,2.63-1.79,3.75-2.94,1.53-4.11,4.51-5,8.45-3.88,3,.9,5.33.34,6.49-2.87a11.55,11.55,0,0,0,0-1.86c.22-5.38-3.87-7.75-7.42-10.48-2.42-1.27-6.46-.82-6-5.25.28-2.45,2.07-3.73,4.32-4.35a4.77,4.77,0,0,1,2.64.28c1.18.33,3,.85,3.61.31,4.51-3.94,8-1.49,11.61,1.41a3.24,3.24,0,0,0,1.76-.55c1.55-2,1.59-4.6,2.42-6.88.28-3.59,2.78-4,5.53-3.53,5.51.94,10.26.78,12.76-5.49,1-2.59,4.14-2.94,6.48-3.89,4.87-2,6.77-5.14,4.84-10.29a13.76,13.76,0,0,1-1-7c-.39-2.61-.91-5.5,2-6.85,2.53-1.19,4.4,1,6.22,2.47,2.25,1.87,3.84,4.52,7,5.3,1.77.45,1.57,2.13,1.19,3.49a26.78,26.78,0,0,0-.47,9.06,12.3,12.3,0,0,1,2.16,10.08c-1.1,5.53,2.58,10.11,7.68,12.17,7.16,2.88,13.56.8,20.12-1.49,3.67-1.11,6-4.06,8.63-6.49a53.08,53.08,0,0,1,10.66-8,19.21,19.21,0,0,1,2.39.27c.77.17,1.53.39,2.31.55a15.25,15.25,0,0,0,1.54.12,3.3,3.3,0,0,1,3.15,1.42c.4.7,1,1.49.56,2.2-1.41,2.28-3.09,4.74-.43,6.9s6.74,3,8.9.89c4.83-4.67,10-2.9,15.21-2.37a5.17,5.17,0,0,1,2.15,1.48c7.41,4.47,15.26,7.1,24,5.18,4-.89,8.16-.93,11.38-4.9s7.63-.88,11.42.54c1.69,1.24,3.83,1.28,5.66,1.43,7.18.59,14.24,1.25,21.1,3.8,3.64,1.36,7.49,0,11.17-.92a3.92,3.92,0,0,0,3.24-3.15c.73-4.75,3.9-6.13,8.13-6.06a15.6,15.6,0,0,0,9-2.86A10.22,10.22,0,0,1,688,95.19c4.65,2.46,13.5.94,17.2-2.53,2.1-2,1.9-4.58,1.17-6.66C705.3,82.88,702.43,82.87,699.53,83.75Z" transform="translate(0 -1.51)"/><path class="cls-25" d="M291.43,153c-3.25-4.78-2.21-7.37,3.42-9.25,4.56-1.51,9-3.31,13.52-5,1.55-2.83.37-4-2.49-4.76-2.66-.68-5.75-1.43-7.56-3.2-4.5-4.41-8.05-2.86-11,1.15-2.31,3.1-4.64,3.82-8,2.35-2.23-1-4.7-.81-7-1.19a6.37,6.37,0,0,0-3.41,0,3.14,3.14,0,0,1-3.07-.09,6.81,6.81,0,0,0-2.41-.73c-4.74,1.73-7.87-3.6-12.4-2.8-8.77-1.48-17.54.47-26.28-.15-2.86-.2-5.26.74-6.26,2.84-2.61,5.46-7.47,7.07-12.63,8.44-6.14,3.79-13.73,3.93-19.89,7.7-1.76,1.07-4.6,1.21-3.7,4.46,4.34.76,8.75,2.46,13,2.11,10.59-.85,21.08-3.38,31.66-3.65,3.85-.1,8.48,3.64,11.56,6.79,3.31,3.36,5.67,3.91,9.74,1.66,8.31-4.58,9.52-4.47,14.28,2.28,3.2,4.54,7.84,5.43,13.38,6,6.87.68,13.53,3.59,20.28,5.54,6-.37,12,0,18.15-.81,7.4-.92,15-3.25,22.7-1.66,5.43.29,10.63.39,15.24-3.66,1.24-1.08,5.35-.74,6.7.51a12.32,12.32,0,0,0,11.49,3.33c.74-.38,1.55-1,1.36-1.77-1.89-7.17-4.1-14.18-10.9-18.48l-1.08-.53c-3.08-2.13-5.86,0-8.74.61-8.65,3.67-17.15,7.76-26.52,9.39-6.2,1.55-12.09,4.69-18.84,3.37-2.26-.44-4,1.49-6.08,2-6.28,1.65-10.19-2-8.92-8.47C291,155.87,292.77,154.69,291.43,153Z" transform="translate(0 -1.51)"/><path class="cls-26" d="M541,88.35l-2.31-.86a25.25,25.25,0,0,0-3.5,2.27c-2.19,5.19-8.07,6.48-11.35,10.63-1.87,2.37-5.92-.72-8,2.25-6,1.9-11.82,3.92-18.29,1.52-4.36-1.61-7.08-4.39-5.52-8.65,1.8-4.89.56-8.4-2.49-11.91-1.18-2.3-3.15-4.11-2.77-7.25.32-2.55-8-12-10.29-12.57-4.94-1.31-8.49,1.91-8.76,7.93.13,1.83-.2,3.84.45,5.46,2.63,6.45.89,8.91-6.09,8.9-1.38,0-3.62,1.82-4,3.2-1.35,5-3.45,7.26-9.28,5.87-3.37-.8-8.92-1.75-8.43,5.21,1.72,2,3.64,3.87,4.17,6.63,3.54,4.57,3.55,4.63-2.33,5.43-2.14.29-3.39,1.79-4.92,3a42.12,42.12,0,0,1-3.34,4.08c-2,2.36-1,4.3,1.18,5.9,5.86,6.35,12.33,5.41,19.77.72-2.44,2.45-4,4.19-3.8,6.78.47,2,2.53,1.38,3.7,2.24,5.66-1.25,10.72-.36,15.12,3.73.89.82,2.61.76,4,1.1-.92-9.94-.92-10,9-11.39a11,11,0,0,0,5.55-2,8.22,8.22,0,0,1,7.87-1.49c5.13,1.46,8.89-.69,11.72-4.87,5.93-8.75,11.24-9.73,19.8-3.56,2.85,2.06,6.7,2.87,8.28,6.52,2.49,6.79,6.09,9.09,10.69,6.84,4.37-2.14,4.68-8.82,1.8-14.79-2.55-5.28-3.13-11.3-3.73-17.18,1.69-2.15,3.79-4.07,3.85-7.1-1.38-4.42-4.06-4.93-7.69-2.54Z" transform="translate(0 -1.51)"/><path class="cls-26" d="M699.53,83.75c1.27,1.38,3.83,3.2,3.54,4.06-.58,1.72-2.61,3.08-4.24,4.31-4.61,3.49-8,1.21-12.43-1.38-2.55-1.49-7.61,1.21-11.52,2.13-2.73.64-5.36,1.76-8.12,2.15-5.06.71-10.08,1.06-10.74,7.83a3.78,3.78,0,0,1-2.5,2.49c-2.69.47-5.57,1-8.19.45-8.44-1.65-16.8-3.76-25.2-5.64-.28-.07-.67.36-1,.55a5.6,5.6,0,0,1-4,.86c-7.48-.62-10.83,1.58-13.27,8.68,1.2.25,2.72,1.1,3.57.66,7.68-4,15.31-4.76,23.13-.46.64.36,1.9.64,2.25.31,5-4.79,9.25-.42,13.37,1.38,8.89,3.89,17.74,3.36,26.76,1,10.84-2.84,21-8.67,33.07-6,4.31,1,9.28-1.55,14-1.72,4-.16,8,.84,12,1.17,1.52.12,3.07-.33,4.61-.32,3.44,0,6.88.38,10.32.26,2.73-.09,5.73-.11,8-1.27,1.36-.68,2.6-3.78,2.19-5.35-.83-3.16-3.16-4.63-7.09-4.7-9.25-.17-18.5-1.14-27.72-2.07a5.46,5.46,0,0,1-3.9-2.78C713.26,81.59,708.28,79.54,699.53,83.75Z" transform="translate(0 -1.51)"/><path class="cls-24" d="M538.58,121.83c-.68-3.35-2.11-5.86-6.07-6.13a5.35,5.35,0,0,1-3.11-1.64c-7.46-7.5-18.8-6.14-24.29,3.6-2.54,4.5-4.87,5.42-9.52,3.54-1.88-.77-5.62-.43-6.7.89-3.91,4.8-9.46,3.25-14.21,4.62-.75.22-1.78-.17-2.35.2-2.11,1.39-4.08,3-6.1,4.5,1.37,1.75,2.68,3.57,4.15,5.25a42.48,42.48,0,0,0,3.43,3.26c4.16-1.1,8.31-2.22,12.48-3.28.53-.13,1.44-.15,1.69.16,6.42,8,14.14.27,21.1,1.71,1,.2,2.2-.72,3.31-1.13,1.59,2,3.73,1.76,5.85,1.37,4.49-.82,9.22-.33,13.5-1.58,5.62-1.65,1.76-8.36,5.15-11.61C537.82,124.67,537.81,123,538.58,121.83Z" transform="translate(0 -1.51)"/><path class="cls-26" d="M557.88,71.69c1.42-.75,4.07-1.52,4.06-2.25-.06-4.48,2.8-3.72,5.48-3.54,3.5,3.15,7.1,2.48,11.15.85,4.8-1.93,9.8-3.67,15.17-2.17,3.37,1.9,1.46,8.64,7.48,8.11-1.4-5.86-3.37-11.22-9.15-14.52-1.15-.66-1.94-4.15-1.24-5.47,2.79-5.28,4-9.49-3.31-11.92-1.3-.44-3.27-2.58-3-3.32,2.41-7.42-3.47-6.28-7.25-7.33-.38-.11-.75-.28-1.12-.42-5.21,3.74-10.63,7.25-15.52,11.39-1.36,1.15-1.42,4.12-1.59,6.3-.27,3.27-.11,6.59-.13,9.88-3.73,1.5-7.74.1-11.56,1.15-2.08.58-3.7,1.16-3.86,3.63-.16,2.28,1.31,2.45,3,3.36C550.29,67.46,552.68,72,557.88,71.69Z" transform="translate(0 -1.51)"/><path class="cls-24" d="M221.74,105.26c-3.6,2.15-8.94,2.24-9.52,8a33,33,0,0,0-6.79,6.13c-4,4.29-8.73,7.81-11.39,13.21-4.3,2.75-7.37-1-8.7-3.25-2.44-4.2-5.17-3.41-7.87-1.75-6.48,4-12.68,8.39-19,12.63-2,4.8-1.4,6.26,3,7.17a45.82,45.82,0,0,0,6.5.71c9.54,2.86,18.59.79,27.47-2.79,2.57-1,5.06-.2,7.58,0,5.92-1.47,9.46-6.44,13.29-10.32a106.21,106.21,0,0,1,10-8.34,5,5,0,0,0,.27-5.06c-.35-.74-1.55-1.42-1.27-1.86,3.73-5.66-2.5-9.16-2.93-13.88Z" transform="translate(0 -1.51)"/><path class="cls-26" d="M601.87,110.26l17.25-9.54c-1.37-.21-3.12,0-4-.72-4.64-3.82-8.09-1.45-11.12,2-4.33,4.94-10.28,4.88-15.57,4.09-5.53-.83-10.74-3.77-16.08-5.79a14.4,14.4,0,0,0-13.52,7.58c-1.23,2.11-3,1.5-4.6,1.64-5.29.46-6.37,2.35-4.49,7.35,1.75,4.67,3.76,8.78,9.81,8.46a1.85,1.85,0,0,1,1.71,1.6c-1.46,2.12-3.6.6-5.4.83-5.21.67-6.87,4.14-4,8.48,5,.83,9.82-.58,15.08.64,6.79,1.57,14.24.33,21.41.38,3.12,0,6.25.29,9.38.37,4.55.12,4.4-2.32,2.76-5.35-2.47-4.57-7.07-4.28-11.35-5.15A141.78,141.78,0,0,1,569.38,122c-4.34-1.56-3.54-6-2.33-9.32.52-1.41,3.48-2.71,5.33-2.7,5.21,0,10.41.91,15.63,1.21,1.71.1,3.46-.73,5.2-.83C596.08,110.15,599,110.26,601.87,110.26Z" transform="translate(0 -1.51)"/><path class="cls-26" d="M551.85,136.26c.5-4.21,2.8-5.95,7-5.06a4.66,4.66,0,0,0,1.78.21c2.56-.5,5.11-1.09,7.67-1.64-2.35-2.77-4.89-8-7-7.85-7.4.56-6.93-5.3-10.46-9.77,3.35.67,5.37,1.41,7.39,1.39s7,2.84,4.53-3.85c-.51-1.42,4-4.74,6.33-7.08a21.45,21.45,0,0,1,3.23-2.29L571,98.91c-5.58-.47-10.69,0-15.34,4-3.8,3.27-9.89,0-12.06-6-.39,2.09-1.49,4.35-1,6.23.78,3.16,2.53,6.07-3,5.65.13,1.22-.19,2.84.48,3.57,1.83,2,4.86,3.28,5.95,5.54,1.41,2.94,3.28,7.37-1.27,9.24-4.13,1.71-5.16-2.25-6.17-5.29-4.72,2.51-8.94,5.25-7.55,11.79.14.63-1.73,2.34-2.8,2.47-5.25.63-10.55.9-15.84,1.29a9.27,9.27,0,0,0,11.25,4,95.34,95.34,0,0,1,15.5-4.75C543.25,135.82,547.6,136.31,551.85,136.26Z" transform="translate(0 -1.51)"/><path class="cls-26" d="M530.24,33.46c3-.74,4.82-.11,5.07,3.5.07,1.15,1.77,2.19,2.72,3.28.89-.94,2.09-1.74,2.6-2.85,3.91-8.34,5.71-9.46,14.9-8.91-2-4.13-4.92-8.08-5.94-12.45-1.6-6.93-5.88-9-12.14-9-.64,1.84-.74,4.27-2,5.4-3.81,3.39-4.7,7.38-4.3,12.18.09,1.17-1.38,2.48-2.13,3.72C525.53,31,526.67,32.52,530.24,33.46Z" transform="translate(0 -1.51)"/><path class="cls-24" d="M336.74,72.79c1.62-1.11,4.6-2.21,4.62-3.35.08-5.66-.62-11.34-1-17-5.84-.56-12-.27-17.43-2-3.57-1.13-3.68,0-4.67,2.32-2.38,5.7-5,11.29-7.55,16.92-1.63,2.17-3.43,4.3-1.71,7.25,6.08,2.57,6.24,2.5,12-5.25,3.09-3.7,5.66-8.33,11.8-6.61C336.43,66.43,335.18,70.34,336.74,72.79Z" transform="translate(0 -1.51)"/><path class="cls-26" d="M194,132.54c8.27-4.38,15.48-9.75,18.18-19.34l-11-3.07c-4.94-3.11-9.82-2.74-13,1,3.35,2.06,4.93,4.56,3.76,8.83-.52,1.9,1,4.32,1.44,6.54C193.79,128.48,193.85,130.52,194,132.54Z" transform="translate(0 -1.51)"/><path class="cls-24" d="M360.91,150.89l9.54,20.25c1.1.39,2.41,1.38,3.26,1.08,4.24-1.47,8.35-3.28,12.5-5q-.58-2.9-1.19-5.78c1.34-1.6,1.83-3.19,0-4.77-7.37,4.55-13.1,2.57-18-4.09C365.71,151,364,147.67,360.91,150.89Z" transform="translate(0 -1.51)"/><path class="cls-25" d="M168.92,146c-1.74-.35-3.49-1.07-5.2-1-3.61.2-5.06-1.52-5.24-4.82-3.21.11-6.73-.52-9.52.62-1.59.65-3.13,4.49-2.63,6.35.58,2.18,3.35,5.26,5.26,5.32,6.2.19,12.44-.82,18.67-1.37C171.83,148.86,170.43,147.39,168.92,146Z" transform="translate(0 -1.51)"/><path class="cls-27" d="M454.74,135.09l-2.66-2.15c-2.2-2.6-4.59-.43-6.91-.3a9.43,9.43,0,0,1-8.81,2c-3-.79-4.49.43-5.68,2.8a2.38,2.38,0,0,0,1.13,2.34c5.11-.31,8.49,1,11,6.4,1.38,2.9,6.84,3.86,10.46,5.7l7.29,3.72c3.68,4.28,6.27,3.66,9.56-2.26-2.1-.94-4.17-2-6.32-2.79-3.88-1.47-8-2.51-11.65-4.33-1.84-.9-3.92-3-4.22-4.78-.21-1.34,2.18-3.23,3.63-4.64A12.06,12.06,0,0,1,454.74,135.09Z" transform="translate(0 -1.51)"/><path class="cls-28" d="M310.59,76.44l.08-6.78a55.54,55.54,0,0,1-4.85,3.8,57.17,57.17,0,0,1-5.72,2.81c-2.88-2.38-5.18-1-6.58,1.55-1.64,3,1,4.51,3.11,5.58,1.64.84,3.23,1.75,4.81,2.68a10.49,10.49,0,0,0,2.81,1.48c5.55-.32,11.38,2.27,16.61-1.56C319.85,80.26,315.6,77.94,310.59,76.44Z" transform="translate(0 -1.51)"/><path class="cls-26" d="M168.92,146c.45,1.71.89,3.42,1.34,5.12,3.72,2.65,7.58,4.19,12,1.63,8.07-4.94,17-7,26.3-8-1.62-1.31-3.26-.84-4.9,0-3.68.11-7.35.21-11,.34Q180.77,145.5,168.92,146Z" transform="translate(0 -1.51)"/><path class="cls-28" d="M441.34,162.51c-11.49-5.45-23.08.9-34.65-.18C403.24,162,399.58,164,396,165c2.25.43,4.51,1.21,6.76,1.23,9.54.08,19.08,0,28.62-.18a32.92,32.92,0,0,0,5.22-.89C437.6,163.26,441.43,166.36,441.34,162.51Z" transform="translate(0 -1.51)"/><path class="cls-26" d="M665.9,73.93c0,3.34-3.8,7.39,1.55,9.75,4.73,2.08,9.32,2.39,12.93-2.29-3-1.06-8.36-.23-5.19-6.51.22-.44-2.81-3.33-4.61-3.69C669.25,70.92,667.43,72.93,665.9,73.93Z" transform="translate(0 -1.51)"/><path class="cls-29" d="M188.24,111.13l13-1c-1.19-4.66-5.06-3.17-7.87-3-11.29.59-15.22-1.63-19.05-11.51-1.43,1.94-4.46,5-4,5.64,2.28,3.11,5.07,6.23,8.39,8.1C181.31,110.86,185,110.6,188.24,111.13Z" transform="translate(0 -1.51)"/><path class="cls-26" d="M369.26,14c2.6,2.27,5.17,4.58,7.79,6.82,3.07,2.61,3.92,5.61,2.43,9.5-.21.56,2.15,2.1,3.33,3.19.63-1,2.3-1.08,2.29-2.62-.07-2-.17-3.93-.21-5.89C384.74,17.11,377.51,12,369.26,14Z" transform="translate(0 -1.51)"/><path class="cls-24" d="M470.16,153.26l-9.56,2.26-3.75,6c.21,1.93,1.23,2.09,2.72,1.24a87.07,87.07,0,0,1,8.89-1.84c2.23-.25,4.56.38,6.83.3a15.26,15.26,0,0,0,3.74-1.14c-.59-1-.94-2.42-1.83-3C475,155.65,472.52,154.55,470.16,153.26Z" transform="translate(0 -1.51)"/><path class="cls-30" d="M303.16,85a36.36,36.36,0,0,1-4-2.58,39.18,39.18,0,0,1-3.4-3.54l4.29-2.64c-.68-5.11-3.09-4.53-6.39-2.1-3.85,2.84-7.87,5.45-11.82,8.16,1.38.38,2.77.74,4.15,1.14l13.63,4C301.26,87.26,302.88,87.1,303.16,85Z" transform="translate(0 -1.51)"/><path class="cls-27" d="M337,171c-8.57.36-17.15.64-25.72,1.12-5,.29-10.09.89-15.13,1.35,8,.13,16,.65,24,.26C325.81,173.41,331.43,171.91,337,171Z" transform="translate(0 -1.51)"/><path class="cls-30" d="M459.57,162.8l-2.72-1.24-15.51.95-4.73,2.63c4.76.71,9.5,1.78,14.28,2,3.09.16,6.25-.86,9.37-1.35Z" transform="translate(0 -1.51)"/><path class="cls-28" d="M385.1,30.89c-.77.87-1.53,1.74-2.29,2.62,4.86-.15,11.71,5.51,12.94,10.39a43.92,43.92,0,0,0,2.55,6.24c1.69-5.3-4.21-18.37-9.28-20C387.92,29.73,386.43,30.59,385.1,30.89Z" transform="translate(0 -1.51)"/><path class="cls-29" d="M662.43,72.71,664.65,74Z" transform="translate(0 -1.51)"/><path class="cls-24" d="M661.09,70.78l1.46,1,.52-.81Z" transform="translate(0 -1.51)"/><path class="cls-24" d="M385,156.71v4.77c15.29-1.82,30.57-3.82,45.89-5.29,3.15-.3,6.49,1.4,10.88,2.45-2.28-3.69-3.69-6.69-5.76-9.14-3.15-3.73-6.63-2.58-9.95.14-6.05,5-12.57,6.86-20.29,3.8a70.71,70.71,0,0,0-13.24-3.62c-5.18-.95-5.55-3.38-2.53-6.84,3.52-4,3-6.09-2.45-6.9-1.69-.25-3.21-1.5-4.85-2.21-3.66-1.58-5-2.58-.42-5.48,7-4.47,7.35-7,5.11-14.59-.38-1.3-.2-3.4.63-4.26a4.5,4.5,0,0,1,4.2-.76c4.37,2.42,6.46.56,8.45-3.23a8.79,8.79,0,0,1,4.52-3.53c5.93-2.25,12-4,18-6.25,9.82-3.71,12.55-6.1,18.54-15.35,2.33-3.59,3.85-7.85,9.76-7.28,1.07.1,2.9-4.43,3.66-7,.16-.55-2.84-2-4.37-3.06s-3.26-2.29-4.88-3.46c-.65-.48-1.55-1.58-1.83-1.43-2.2,1.16-5.33,2.1-6.14,4-1.16,2.72-1.52,4.35-4.82,2.63-.38-.2-2.94,2-2.85,2.93.41,4.32-2,5.58-5.55,6.3-2.53.52-5,1.43-7.54,1.91a24.59,24.59,0,0,1-4.54,0,36.27,36.27,0,0,1,.43-5c.3-1.34,1.62-2.62,1.52-3.84-.24-2.87-.25-6.32-1.84-8.38-2.27-2.94-5.66-2.7-9.09-.42-2.12,1.41-5.07,1.67-7.7,2.16s-6.6-.35-3.1,4.54c1.69,2.36-3.49,10.16-6.14,9.24-1.35-.47-2.66-3.29-2.65-5,0-6.41.69-12.82.92-19.24a5.78,5.78,0,0,0-1.4-3.08c-5.31-7.31-10.65-14.61-16.1-21.82-.47-.62-1.87-.54-2.84-.79.53,5.12-7,6.92-4.75,13.62,1.37,4.09-1.35,9.61-2.47,14.43C356.13,58,352,63.48,357.64,69c.56.54.4,3-.11,3.24-5.73,3-7.31,11.94-16,11-1.29-.15-3.91,2.72-4.19,4.47-.41,2.51,0,7,1.39,7.64,5.07,2.19,6.84,5.69,7,10.71a6.17,6.17,0,0,0,.91,3.42c1,1.27,2.35,2.75,3.75,3,.82.14,2.48-1.81,3-3.11,1.07-3,1.4-6.23,2.49-9.2.93-2.52,2.52-4.8,4.36-8.19a25.69,25.69,0,0,1,1,2.7c.31,1.66.57,3.33.85,5,1.22-1.4,3.09-2.62,3.53-4.23,1.33-4.93,4.62-6.74,9.29-6.78,4.07,0,6.47,1.46,5.7,6.18a25,25,0,0,0,.09,7.12c1.15,8.84-3.5,16.36-12,19.19-5,1.67-12.11,15.29-10.23,20a3.61,3.61,0,0,0,2,1.86c2.6.78,10.49-5.58,10.91-8.39.17-1.13,1.11-2.15,1.7-3.23,1,.77,2.71,1.41,2.89,2.34.49,2.62,1.3,5.81.27,8-1.75,3.61-.1,4.62,2.29,6.66C381.14,150.52,382.86,153.85,385,156.71Z" transform="translate(0 -1.51)"/><path class="cls-24" d="M497.18,72.11l1.88,7.08c1.31-2.35,2.64-4.7,3.93-7.08a19.34,19.34,0,0,1,1-2.17c2.29-3.47,14.46-8.36,18.43-6.86,5.88,2.21,8.17-.1,8.69-5.64a17.49,17.49,0,0,1,.6-3.53c.8-2.61,2.71-3.69,3.92-.81,1.85,4.4,3.61,2.93,6.1.89,1.36-1.11,3.34-1.5,4.62-2.67s2.3-3.11,3.42-4.69c-1.9-1.1-3.75-3-5.72-3.16-7.33-.49-14.7-.42-22-.51-3.82,0-6-1.45-5.92-5.69A12.46,12.46,0,0,0,515,32.7c-3.72-9.55-3.3-10.66,6-15.14,4.42-2.15,4.91-4.89.89-7.21-1.23-.72-4.23-.2-5.24.87a43.55,43.55,0,0,0-6.54,9.22c-4.51,8.44-13,11.81-20.36,16.64-1.56,1-2.32,3.24-3.54,4.83a18.62,18.62,0,0,1-2.75,3c-4.49,3.68-9.11,7.21-13.52,11-.67.58-.5,2.13-.71,3.23a11.51,11.51,0,0,0,3.31-.24,18.5,18.5,0,0,1,11.4-1c2.89.58,7-3.72,10.18-6.23,1.89-1.47,3.22-3.67,4.73-5.6,1-1.3,2.65-2.69,2.66-4,0-4.55,3.68-4.26,5.92-3.91,1.83.29,4.53,2.72,4.72,4.43.67,6.09,4,8.16,9.59,8.41,1.45.07,2.85,1.29,4.28,2-1.38.76-2.7,2.07-4.14,2.2-4.28.37-8.92,1.39-11.47-3.94-.24-.5-4-.33-4.27.33C503,58.07,497,63.5,497.18,72.11Z" transform="translate(0 -1.51)"/><path class="cls-24" d="M265.09,134.77l3.34,2.49c1.06,0,1.7-.89,2.61-1.21,2.72.41,5.5,1.35,8.15,1.08,2.93-.3,6.42-1,8.47-2.82,3.23-2.88,5.54-5.37,10-2,3.28,2.52,7.14,4.28,10.74,6.38l11.77-2.4c6.56-4.28,14.31-4.27,21.58-6,1.86-.43,3.54-.53,4.83,1.18,1.19,0,2.61.55,3.52.07,2-1,4.72-2.23,5.28-4s-.59-4.93-2.08-6.09-4.45-1.13-6.52-.62c-13,3.22-25.91,7.2-39.06,9.81-3.24.64-8-2.08-10.81-4.64-3.09-2.85-4.71-3.76-7.46-.12-2.19,2.88-3.82,6.78-8.85,5.56-6.82-1.65-14.67-1.24-16.88-10.57a8.56,8.56,0,0,0-4.84-5.12c-10.63-3.71-22.47-3.75-32-10.81-1.08-.79-3.37.06-5.1.15l.1.25c.5,2.57,1,5,4,6.19s4.25,4,4.82,7a12.36,12.36,0,0,0,5.57,4.21,8.42,8.42,0,0,0,2.45.77c3,.08,4.94-2.16,7.3-3.48,3.39-2.29,5.81-1.5,8.12,1.87C257.25,126.65,261.43,130.55,265.09,134.77Z" transform="translate(0 -1.51)"/><path class="cls-24" d="M234.18,79.78c-1.66,4.67-2.44,7.84-3.88,10.66-1.93,3.75-1.26,7,2.19,8.69a61.39,61.39,0,0,0,15,5.67c4.51.93,9.85,1.94,12.1-4.88.52-1.58,4.25-2.48,6.65-3,4.87-1,9.86-1.47,14.75-2.41,1.14-.22,2.07-1.49,3.1-2.28a10.89,10.89,0,0,0-2.25-2.54c-5.46-3-9-8.76-16-9.77-4.78-.69-6.73.62-7.6,4.9-.58,2.9-.8,6-2,8.62-2.14,4.5-4.8,4.71-8.25,1.07C243.11,89.52,238.43,84.41,234.18,79.78Z" transform="translate(0 -1.51)"/><path class="cls-24" d="M305.92,127c3-.9,4.79-1.31,6.46-1.93,8.59-3.23,17.22-6.39,25.7-9.89,1.78-.73,4-2.72,4.16-4.33.15-1.3-2.36-3-3.83-4.37-1.13-1-2.53-1.82-3.74-2.8-1.9-1.53-4.41-4.83-5.51-4.41-4.17,1.61-10.67.13-11.56,7.16-.09.71-1.16,1.94-1.6,1.87-7.4-1.19-10,6.7-15.84,8.38-.8.23-1.8,3.26-1.33,3.78A78.35,78.35,0,0,0,305.92,127Z" transform="translate(0 -1.51)"/><path class="cls-27" d="M431.81,139.74v-2.31c-1.58-4.14-7.93-6.8-13.73-5.79a28,28,0,0,0-6.82,2.11L400.9,145c4,2.39,6.38,4.47,9.14,5.27a10.12,10.12,0,0,0,7.13-.72C422.27,146.64,427,143.06,431.81,139.74Z" transform="translate(0 -1.51)"/><path class="cls-26" d="M437.83,107.59c-.7-1.75-1.28-3.56-2.1-5.26-2.3-4.78-4.73-3-7.79-.47a10.9,10.9,0,0,1-6.87,2.46c-8-.49-11.38,3.46-9.17,11.31,1.65,5.85,5.61,3.38,9.11,2.76,3.55-1.34,6.8-3,11-1,3.38,1.66,4.43-1.9,5.56-4.35C438.9,111.31,440,109.53,437.83,107.59Z" transform="translate(0 -1.51)"/><path class="cls-26" d="M336.74,72.79c3.63-1.12,3.43-4.32,2.31-6.47-1-1.86-3.71-2.82-5.67-4.18q-.94.27-1.86.63c-2.88,1.71-7.43,2.66-7.77,6-.58,5.54-3,11-1.56,16.7.72,2.89,2.38,2.83,4.21.75,2.45-3.66,4.83-7.37,7.39-11A14.6,14.6,0,0,1,336.74,72.79Z" transform="translate(0 -1.51)"/><path class="cls-29" d="M435.43,112.14c-2.58,4.71-6,1.29-7.92,0-5.18-3.47-6.51-2.38-5.67,3.41.13.89-.51,1.89-.79,2.84l6.29,8.44q.57.73,1.17,1.44a3.21,3.21,0,0,0,4.2,1.09c1.74-1.79,6-2,3.94-6.18l2.5-7.12C440.61,112.17,438.28,111.89,435.43,112.14Z" transform="translate(0 -1.51)"/><path class="cls-24" d="M346.58,131.56l3.21-3.63c-1.46-.35-3-1.18-4.39-1-9.08,1.28-18.81,1-25.23,9.41,4.27.4,8.54,1,12.81,1.09a16.17,16.17,0,0,0,6.54-1.65A67.15,67.15,0,0,0,346.58,131.56Z" transform="translate(0 -1.51)"/><path class="cls-28" d="M467.65,71.71c1.57-3,2.42-7.65,7-6.11,2.57.85,4.55,4,6.42,6.33,2.95,3.76,5.6,7.77,8.37,11.67.22-3.1-1.29-6.35,3.06-8.58,2.47-1.27-.92-6-4.63-6.85a15.3,15.3,0,0,1-7.25-3.6c-4.3-4.23-8.27-2.63-12.49-.31S466.19,69.11,467.65,71.71Z" transform="translate(0 -1.51)"/><path class="cls-30" d="M432,127.85l-3.73-1a5.92,5.92,0,0,0-1.34,1.1c-1.7.48-3.46.84-5.1,1.47-3.53,1.37-7,2.89-10.51,4.34l20.55,3.68c3.07.17,6.18.7,9.2.38,1.81-.2,3.47-1.72,5.2-2.64C442.92,129.91,437.76,128.26,432,127.85Z" transform="translate(0 -1.51)"/><path class="cls-24" d="M201.33,90.85A50.09,50.09,0,0,1,194.25,93c-1.87.29-4-.77-5.74-.2-1.37.47-2.63,2.33-3.13,3.84-.28.85.9,3.1,1.71,3.26a112.87,112.87,0,0,0,15.21,2c.66,0,2.29-3.17,2.06-4.65-.35-2.21-2-4.22-3-6.32Z" transform="translate(0 -1.51)"/><path class="cls-24" d="M509.15,89.26c1.89-1.06,3.36-1.49,4.27-2.45,4.08-4.29,8.11-8.65,11.9-13.2.72-.87.24-2.74.32-4.15-1.51.44-3.29.53-4.45,1.42s-1.52,2.85-2.65,3.89c-1.52,1.42-3.34,3.21-5.21,3.45-5.23.66-5.34,4.71-6.16,8.25C507,87.19,508.43,88.26,509.15,89.26Z" transform="translate(0 -1.51)"/><path class="cls-30" d="M435.43,112.14l3.72,3.92c2.76.14,5.53.48,8.28.37,5.52-.22,6.81-2.53,3.82-7.15-1.08-1.68-3.1-2.75-4.7-4.11-3.72-2.9-6-1.3-7.51,2.45h-1.17Z" transform="translate(0 -1.51)"/><path class="cls-24" d="M530.24,33.46,529,28.36c-1.77-8-2.63-8.7-7.67-6-3.62,1.92-5,4.46-1.75,8,1.62,1.74,2.78,4.13,4.72,5.29C526.57,37,530.19,39.26,530.24,33.46Z" transform="translate(0 -1.51)"/><path class="cls-24" d="M593.74,64.58c-1.3-.63-2.68-1.93-3.9-1.79-7.49.86-15,2-22.42,3.11-.59,2.36-1.54,4.62,2.48,5,2,.22,3.9,1.91,6,2.54a5.05,5.05,0,0,0,3.17-.54c.16-7.36,6.79-5.52,10.66-7.48A15.73,15.73,0,0,1,593.74,64.58Z" transform="translate(0 -1.51)"/><path class="cls-28" d="M515.77,102.64c4.14-1.83,8.48,0,13.32-2.24,5.89-2.71,5.75-6.58,7.18-10.73.56-.6.46-1-.33-1.32-3.82.7-7.16,1-9.61,5.46C524.26,97.55,519.43,99.75,515.77,102.64Z" transform="translate(0 -1.51)"/><path class="cls-28" d="M543.6,96.89c-2.06,6.59,4.29,7,7.49,9.26,1.18.83,4.54-1.38,6.89-2.27,4.35-1.64,8.68-3.33,13-5-5.84-1.49-11.45-2.23-16.9,1.78-1.49,1.1-4.38.29-6.63.36a44.65,44.65,0,0,0,1.13-5,42.71,42.71,0,0,0,0-5.06Z" transform="translate(0 -1.51)"/><path class="cls-24" d="M308.07,162.82l-12.58-1.38c.83-2.53,1.79-5.49,2.75-8.45l-5.71.13c-.73,1.46-2.21,2.25-3.22,3.46-1.92,2.29-1.32,4.92-.49,7.27s2.77,2.76,5.37,2.91C299.43,167.05,304.06,166.35,308.07,162.82Z" transform="translate(0 -1.51)"/><path class="cls-26" d="M308.07,162.82c-3.82.84-7.62,2-11.48,2.36-2.11.18-5.58-.51-6.22-1.85-.85-1.82.35-4.65.84-7a17.53,17.53,0,0,1,1.32-3.2l-1.07-.14c-5,2.94-4.9,7.14-3,11.85,2,4.88,6.12,3.9,9.69,3.27,9-1.58,17.9-3.58,26.85-5.41a1.22,1.22,0,0,0-.1-1.71h0c-3.88-.47-7.66-.42-11.21,1.61a6.06,6.06,0,0,1-5.6.2Z" transform="translate(0 -1.51)"/><path class="cls-24" d="M308.07,162.78a37.53,37.53,0,0,0,6.09.38c3.63-.33,7.23-1,10.84-1.55,4.76-1.06,9.53-2.08,13.51-5.2,3.76-3,8.85-1.6,12.83-3.86l8.49-2.19c-.46-.62-1.07-1.83-1.36-1.76-8,1.88-17-.38-24.14,5.67-2.27,1.92-5.59,2.79-8.56,3.69C319.92,159.73,314,161.19,308.07,162.78Z" transform="translate(0 -1.51)"/><path class="cls-26" d="M303.16,85l-3.49,2.44a38,38,0,0,0,24.09,5.66c4.81-3.93.05-4.56-2.1-6.09-5.65-.93-11.44.4-17.06-1Z" transform="translate(0 -1.51)"/><path class="cls-28" d="M557.88,71.69l-14.24-9.35,15.25-5.06c-3.69-.42-7.59-1.72-11-1-2.35.53-4.27,3.8-5.78,6.22-.24.39,2.6,2.79,4.11,4.15,1.73,1.57,3.37,3.48,5.43,4.4C553.43,71.91,555.78,71.54,557.88,71.69Z" transform="translate(0 -1.51)"/><path class="cls-24" d="M276.29,123.57c5,2,9.43,2.28,12.85-2.42a17.55,17.55,0,0,0,1.43-3,18.67,18.67,0,0,0-3.27-.91C282.28,116.79,278.5,118.56,276.29,123.57Z" transform="translate(0 -1.51)"/><path class="cls-29" d="M321.3,88.26l2.46,4.86c6.1-.35,3-4.16,2.64-7-.86-1.67-2.56-3.41-2.41-5,.67-7.13,1.48-14.42,9.37-17.88a10.41,10.41,0,0,0-12.87,7.16,10.72,10.72,0,0,0-.38,3.34A99.54,99.54,0,0,0,321.3,88.26Z" transform="translate(0 -1.51)"/><path class="cls-28" d="M439,107.62l7.51-2.45-6.2-4.82C439.87,102.77,439.43,105.2,439,107.62Z" transform="translate(0 -1.51)"/><path class="cls-29" d="M535.94,88.35l.33,1.32,2.37-2.18Z" transform="translate(0 -1.51)"/><path class="cls-29" d="M426.89,127.94l1.34-1.1h-.93C427.17,127.2,427,127.57,426.89,127.94Z" transform="translate(0 -1.51)"/><path class="cls-29" d="M244.55,117.13l-6,4.83c-2.84,3.91-.53,5.49,3,6.54a27.19,27.19,0,0,1,10.26,3l12,2.39c.91-1.12.81-1.94-.43-2.9-2.46-1.94-5.05-4.11-4.9-7.53.17-3.69-2.25-4.66-4.79-4.62A26.17,26.17,0,0,1,244.55,117.13Z" transform="translate(0 -1.51)"/><path class="cls-26" d="M251.79,131.53l-8.38-4.69c-4.39.41-8.63-.92-13-1.09a5.43,5.43,0,0,0-1.42-.67c-1.29-.33-2.59-.6-3.77.33-8.78.88-9.93,10.24-15.92,14.26a53.78,53.78,0,0,0-5.67,5h4.9c7.15-6,12.57-14.77,24.28-13.07C239,132.56,245.43,131.63,251.79,131.53Z" transform="translate(0 -1.51)"/><path class="cls-26" d="M351.34,152.55c-2.54-.1-5.08-.32-7.62-.26-1.72,0-3.7,0-5.11.79-4.65,2.65-9.09,5.66-13.61,8.53v1.08Z" transform="translate(0 -1.51)"/><path class="cls-28" d="M244.55,117.13c1.6,1.31,3.58,4,4.73,3.71,6.36-1.74,8.07,1.52,9.48,6.72.65,2.4,3.28,4.26,5,6.36l1.32.85c-.1-1.3.22-2.83-.36-3.87-2-3.7-3.83-7.7-6.66-10.7C254.54,116.46,249.68,115.43,244.55,117.13Z" transform="translate(0 -1.51)"/><path class="cls-25" d="M271.06,136.08l-2.63,1.18Z" transform="translate(0 -1.51)"/><path class="cls-24" d="M432,127.85c3.68,4.53,8.62,6.62,14.27,7.32l5.85-2.23,11.38-7.62c-3.57-.64-6-1.68-8.26-1.36-6.29.9-12.59,4.94-18.59-.78Z" transform="translate(0 -1.51)"/><path class="cls-29" d="M541,88.35Z" transform="translate(0 -1.51)"/><path class="cls-28" d="M225.26,125.41l3.67,1.42a2.18,2.18,0,0,0,1.28-.66,4.07,4.07,0,0,0,.49-1.38,12.72,12.72,0,0,1,.6-2.11,5.14,5.14,0,0,0,.76-2.14c-.28-2.11,1.21-2.72,2.77-3.27l-13-11.81c-2.26,2.82-2.24,4.86.23,8.18C224.32,116.68,224.29,121.42,225.26,125.41Z" transform="translate(0 -1.51)"/><path class="cls-28" d="M321.3,88.26c.4-3.66,1.24-7.34,1.12-11-.35-10.73.18-11.6,10.94-14a11.61,11.61,0,0,0,0-1.18c-5-1.24-10.37,1.66-13.21,7.18-2,5.18-3.5,10.36,0,15.54L304.59,86Z" transform="translate(0 -1.51)"/><path class="cls-28" d="M320.16,84.86V69.32c-2.78,2.93-3.91,8.05-9.58,7.12Z" transform="translate(0 -1.51)"/><path class="cls-29" d="M228.86,123.15l-1.06,1.26a7.57,7.57,0,0,1,1.11,1.29v1.13h-.07c6.18.64,8.44-.94,8.45-5.89l-2.46-3.68-7.13.08c.41,1.14.81,2.29,1.22,3.44C229.59,121.59,230,122.39,228.86,123.15Z" transform="translate(0 -1.51)"/><path class="cls-29" d="M237.31,121l-8.45,5.89c.73,1,1.62,2.9,2.16,2.81,4.16-.72,8.27-1.83,12.39-2.82-1.62-1.63-3.24-3.25-4.85-4.88Z" transform="translate(0 -1.51)"/><polygon class="cls-28" points="442.89 101.69 442.92 101.36 442.63 101.5 442.89 101.69"/><path class="cls-29" d="M228.86,123.15l.06-2.36Z" transform="translate(0 -1.51)"/><path class="cls-29" d="M228.91,125.7l-1.11-1.29Z" transform="translate(0 -1.51)"/></svg>