<svg id="Layer_4" data-name="Layer 4" xmlns="http://www.w3.org/2000/svg" xmlns:xlink="http://www.w3.org/1999/xlink" viewBox="0 0 1750.68 215.73"><defs><style>.cls-1{fill:url(#linear-gradient);}</style><linearGradient id="linear-gradient" x1="1180.21" y1="303.9" x2="1180.21" y2="88.17" gradientUnits="userSpaceOnUse"><stop offset="0" stop-color="#ca9896"/><stop offset="0.04" stop-color="#d4aba9"/><stop offset="0.11" stop-color="#e1c5c4"/><stop offset="0.19" stop-color="#ecdada"/><stop offset="0.28" stop-color="#f5ebeb"/><stop offset="0.39" stop-color="#fbf7f6"/><stop offset="0.55" stop-color="#fefdfd"/><stop offset="1" stop-color="#fff"/></linearGradient></defs><g id="Cloud"><clipPath id="svgPath"><path class="cls-1" d="M1997.85,251.12c-23.93-3.78-48.46.62-72.56-1.78-46.9-4.68-86.94-34.08-128.13-57-44.45-24.71-92.33-42.56-140-60.3C1566.6,98.33,1462.82,65.16,1377,109.64c-60.24,31.23-109.13,99.23-176.54,91.57-45.6-5.18-83.66-45.83-129.45-42.69-57.87,4-91.55,74.43-148.55,85.24-37.48,7.11-74.17-13.55-111.94-18.94-42-6-84.09,7.09-126,13.89C572,257,518,240.73,406.14,263c-10.23,2-101.66,28.47-101.27,38.89,52.86,4.53,111.53.22,164.57-1.17,226.17-17.79,457.14,9.86,683.7-1.8,48.52-2.49,96.91-7.8,145.48-8.71,81.41-1.53,162.62,9.31,244,8.84,107.44-.62,214.37-9.24,321.8-8.2,64.51.63,126.22,1.69,191.1-3.06C2052.73,263.72,2021.77,254.89,1997.85,251.12Z" transform="translate(-304.87 -88.17)"/></clipPath></g></svg>