<svg id="Layer_1" data-name="Layer 1" xmlns="http://www.w3.org/2000/svg" viewBox="0 0 1104.62 143.71"><defs><style>.cls-1{fill:#3f2872;}.cls-2{fill:#8c7da7;}.cls-3{fill:#9f92b5;}.cls-4{fill:#8b7ba6;}.cls-5{fill:#9b8db2;}.cls-6{fill:#a296b8;}.cls-7{fill:#81709f;}.cls-8{fill:#7c6b9b;}.cls-9{fill:#b7adc8;}.cls-10{fill:#bdb5cd;}.cls-11{fill:#715f93;}.cls-12{fill:#b5abc6;}.cls-13{fill:#746395;}.cls-14{fill:#8778a4;}.cls-15{fill:#9789b0;}.cls-16{fill:#796899;}.cls-17{fill:#503b7d;}.cls-18{fill:#65528a;}.cls-19{fill:#8979a5;}.cls-20{fill:#7f6f9d;}.cls-21{fill:#9d8fb4;}.cls-22{fill:#7a6a9a;}.cls-23{fill:#998bb1;}.cls-24{fill:#dad5e2;}.cls-25{fill:#776698;}.cls-26{fill:#7e6d9c;}.cls-27{fill:#533f7e;}.cls-28{fill:#c0b7cf;}.cls-29{fill:#766496;}.cls-30{fill:#6e5c91;}.cls-31{fill:#8676a2;}.cls-32{fill:#6d5a90;}.cls-33{fill:#68558d;}.cls-34{fill:#67548b;}</style></defs><path class="cls-1" d="M1710.29,191.32c-1.72-2.21-3.34-4.5-5.22-6.56-.64-.69-1.94-.87-3-1.09-2.63-.56-5.28-.95-7.91-1.5-3-.63-5.91-1.55-8.92-2-2.35-.33-4-.22-4.24-3.61-.28-4.76-6.94-10.16-12.14-6.69-4.68,3.12-6.36-2.13-9.47-3.25-6-2.18-12-3.76-18.16-1.44-1.23.46-2.24,2.2-2.82,3.58-1.89,4.53-5.58,5.29-9.67,3-6.39-3.61-12.16-8.92-20.43-8.3-3.67.28-7.66.52-11-.65-2.42-.85-4.13-4-5.94-6.23-1.5-1.89-2.31-5.27-4.08-5.8a29.66,29.66,0,0,0-11.4-.73c-4.23.46-8.38,1.82-12.51,2.95-.74.21-1.21,1.29-1.85,1.92-1.37,1.33-2.57,3.43-4.18,3.8-5.65,1.34-6.37,5.43-6.57,10.07,0,.37.13.85,0,1.09-2.51,3.43-4.1,6.33-.94,10.88,1.92,2.76-3.87,5.81-9.35,4.88-1.7-.29-4.9.28-5.19,1.17-1.21,3.73-4.5,3.16-7,4.41a8.63,8.63,0,0,0-3.09,3.67c-2.27,4.23-4.06,8.39-10.59,6.41-1.65-.5-4.66,2.65-6.69,4.51-1.19,1.07-1.39,3.29-2.62,4.25-.77.59-3.75,0-3.83-.43-.86-4.76-4.71-4.27-8-5.13-.88-.23-1.79-1.89-2-3-.76-5-3.35-7-7-5.12a12.93,12.93,0,0,1-1.16,1.87c-4.25,4.17-4.34,9.34-3.45,14.7.3,1.81,1.56,2.7,3.28,3.17a14.39,14.39,0,0,1,5.52,2.55c-8.32.75-16.63,1.77-22.4,9.15a3.38,3.38,0,0,1-3.91,1.46,3.12,3.12,0,0,1-2.1-3.21,3.37,3.37,0,0,1,2.62-3.62c1.29-.42,2.61-.58,3.64-1.72,2.68-3,2.61-6.42-.41-10.63-1.27-1.48-2-3.09-1.3-5.08.35-.92-.11-1.58-.55-2.36-.68-1.2-1.29-2.41-.45-4a1.75,1.75,0,0,0-1.26-2.57c-4.36-.55-7.35-3.83-11.11-5.59-.85-.4.18-1.75-.81-2.25-6.35-2.58-9.08-1.66-11.86,3.76-.2.37-1.61.21-2.44.15-3.83-.27-7.67-.87-11.46-.65-.72,0-1,3.37-1.94,4.93-1.22,2.07-3,3.83-4.27,5.85a10.4,10.4,0,0,0-1.69,4c-.42,2.9.54,6.33-3.88,7.11a4.37,4.37,0,0,0-2.4,1.71c-4.13,5.6-7.65,1.81-11.75-.27-5.06-2.57-10.56-4.25-15.86-6.35-2.11-.83-4.15-1.83-6.27-2.63-6.13-2.31-9.3,1.51-12.22,5.91a3.59,3.59,0,0,1-1.82,1.08q-8.07,2.79-16.18,5.46a5.88,5.88,0,0,1-2.84.49c-3.9-.82-7.75-1.87-11.63-2.75-.36-.08-.86.42-1.29.66a9.58,9.58,0,0,0-1.62,2c-1.44,2.31-1,3.41,1.57,4.37,1.52.57,4,.05,4.33,2,.32,2.12-2.3,2.63-3.74,3.55a9,9,0,0,0-3.62,3.55c-1,3.29-2.81,5.43-6.69,5.17-2.1-.14-3.68,1.08-5.07,2.7-3.45,4-5,4-8.59.16-1.94-2-4.82-1.9-7.51.88a6.66,6.66,0,0,1-5.92,2.36c-.7-.08-1.66,0-1.79-1-.1-.67.63-1,1.17-1.29a3.83,3.83,0,0,1,1.36-.6c6.37-.69,11.61-5,18-5.54a4.48,4.48,0,0,0,4.36-3.36c1.2-3.66,4-5.62,7.81-5.95,1.86-.16,3.07-.9,3.18-2.92-.42-2.63-2.56-3.15-4.6-3.77a5,5,0,0,0-3.08-.07c-2.45.59-4.12-.39-5.31-2.46-.25-.43.18,0-.17-.3a11.17,11.17,0,0,1-3.69-8.59c-4.83-5.26-8-6-13.13-2.63-.92.6-1.12,2.27-1.73,3.41s-1.31,2.25-2,3.38c-1-.67-1.92-1.36-2.89-2-2.45-1.64-2.95-6.63-7.69-4.43-.28.14-1.28-.51-1.44-1-1.27-3.62-3-5.67-7-2.87-.33.23-1.42-.62-2.17-.93-2-.87-4.11-1.71-6.16-2.57-3.09,2.91-3.11,3.92.24,6.28,3.07,2.17,5.81,4.72,8.68,7.11,3.18,2.67,3,4.62-.22,7.3-2.15,1.8-4.38,3.08-7.34,2.83-2.29-.19-4.22,1.49-6.5,1.53a19.78,19.78,0,0,0-3.86,8.26,5.71,5.71,0,0,1-4.07,4.74c-3.48,1.29-7.15,2.08-10.41,4-1.61.94-3.13.24-4.31-1.11-1.88-1.55-4.27-1.64-7.39-2.16,4.19-1.43,5.5-4.25,6.31-7.44a5.17,5.17,0,0,1,4.78-4.33,6.69,6.69,0,0,0,3-1.53,5.65,5.65,0,0,1,3.47-1.26c3.33,0,4.93-1.92,5.69-4.87a8.8,8.8,0,0,0-1.63-6.35,10.22,10.22,0,0,1-2-6.54c.05-4.24,1.57-6.85,5.59-8.73,1.29-.6,3-1,2.7-3s-1.8-2-3.4-2c-1.19-.05-2.54-.26-3-1.78-4.3.4-8.93-.08-12.8,1.42-4.72,1.82-8.49,1.48-12.46-1.11-.61-.4-1.58-1-2-.74-4.19,2-7.84-.27-11.77-1-4.56-.86-9.33,3.21-10.47,7.89-.15.62-1,1.2-1.58,1.56-3.16,1.8-6.34,3.58-9.59,5.2-.45.22-1.36-.56-2.07-.8-2-.69-4.53-2.41-6-1.78-4.38,1.85-9.58,2.61-9.76,9.87-.15,5.8-5.55,8.43-12.26,8.13a5.24,5.24,0,0,0-2.2.28c-3.78,1.56-6.57,1.76-9.55-2.33-2.63-3.62-9.9-.86-11.55,3.43a7.79,7.79,0,0,1-4.08,3.84c-2.77,1.11-9.87-2.88-11.07-5.5-.36-.81-1.64-1.83-2.37-1.74-4.69.62-10.51-1.84-13.06,5-.74,2-3,4.26-4.54-.11-.33-1-1.8-1.45-2.58-2.3-.62-.68-.82-1.82-1.52-2.33-1.75-1.26-3.77-2.15-5.51-3.43a23.84,23.84,0,0,1-3.19-3.31c-2.88-3.15-5.21-7.61-8.77-9.08-2.79-1.15-7.11,1.42-10.76,2.28a11.72,11.72,0,0,1-2.15.13c-2.2,1.22-2.54,3.11-1.22,5a31,31,0,0,1,3.17,6.69c.41,1.06,1.86,2.32.36,3.24s-3.25,1.61-4.8,0c-2.34-2.4-5.06-2.53-8-1.56-2.28-.42-4.69-1.5-6.81-1.1-2.87.53-5.53,2.21-8.29,3.4,0,2,1.64,2.53,3,3.43,3.44,2.27,6.8,4.43,6,9.65-.4,2.83.65,5.72,4.28,6.45.8.16,2,.59,1.46,1.7-.55,1.26-2.24,1.47-2.83.64-2.67-3.75-5.91-2-9.09-1.3a5.7,5.7,0,0,1-4-.73,11.58,11.58,0,0,0-6.15-1.27c-3.09.17-5.43,1.43-6.25,4.7-.37,1.51-.87,3-3,2.29-2.93,1.46-5.74,3.34-8.83,4.26-2.58.77-5.49.38-8.25.6-.92.08-2.21.2-2.66.8-2.2,2.93-4.89,2.41-7.42-.71-1.92-2.36-4.8-3.94-7.26-5.86a9.92,9.92,0,0,0-5.81,4.11c-2.52,3.85-3.85,4.31-8.46,2.7l-.77-.73c-2.19-.89-4.12.17-6.09.83s-3.76,1.81-6.25,1.63-2.68,2.61-2.46,4.52a6.09,6.09,0,0,0,10,4.2c2.73-2.3,4.9-2.84,7.85-.45,1.81,1.46,4.34.81,6.56.75a4.81,4.81,0,0,1,5.17,3.33c1.35,3.3,5.14,5.18,8.26,3.48,6.5-3.55,13.91-1.46,20.55-3.89,2.54-.93,4.09,2.14,6.48,2.34a20.56,20.56,0,0,1,5,.56c4.53,1.33,8.61-.64,12.5-2.15,3.31-1.28,5.81-1.51,8.61.73a8.84,8.84,0,0,0,9.83.27c2.91-2,2.18-4.76,1.28-7.4-.65-1.92-1.51-3.74.14-5.55.79-.89,1.65-2,2.19.12.41,1.63,1.57,2.38,2.72,3.45,2.19,2.07,2.82,5.21,3.64,8.1.6.81,1.49.78,2.36.8a75.17,75.17,0,0,1,17.61,2.14,3.81,3.81,0,0,0,5-2.56,6.94,6.94,0,0,0,.75-2.49c-.09-4.94,1.32-9.52,2.69-14.22,1.47-5.07,3.28-6,7.79-3.47a25.45,25.45,0,0,0,11.85,3c2.89.1,5.4.45,7.62,2.87,1.68,1.83,4.55,1,6.86.57a27.22,27.22,0,0,0,2.8-.89c2.27-2.83,5.11-3.52,8.25-1.73,1.28.73,3.76-.66,3.63,1s-2.68,1.27-4.27,1.26a7.18,7.18,0,0,0-5.4,2c-3,2.9-7.18,3.24-11,4.07a6.15,6.15,0,0,0-3.9,1.91c-.89,1.08-1.43,2.8-.61,3.4,2.63,1.93,3.76,5,6.7,6.93,6.48,4.3,12.58,1.24,18.7.4,4.94-.68,9.72-1.65,14.8-1.19,4.82.43,9.67-.56,14.43-1.55,1.71-1.87,3.9-3.23,5.38-5.36a3.5,3.5,0,0,1,3.81-1.7,1.53,1.53,0,0,0,1.1,0c4.27-2.93,7.2.42,10.45,2.21s2,5.31,3.35,7.79c1.1,2.84,3.11,3.64,5.93,2.64a5.58,5.58,0,0,1,2.94-.43c5.94,1.21,12.11,1.1,17.92,3.09a10.3,10.3,0,0,1,2.87,1.71,3.31,3.31,0,0,0,3.51-.29c3.14-2,6.42-2.92,10-1.24,1.32.61,2.4-.16,3.45-.82,2.49-1.57,4.84-3.26,8-3.51,2.17-.17,2.68-1.9,2-3.91-.81-2.36-.13-3.35,2.54-3.41,2.22-.06,4.43-.71,6.5.6a7.58,7.58,0,0,0,6.37,1.17c4.54-.9,9-.84,12.47,2.89a3.34,3.34,0,0,0,3.07,1.06c3.19-.61,5.49.74,7.63,2.9,2.38,2.41,5.79,2.73,8.77,3.91a17.94,17.94,0,0,1,3.75,1.6c3.31,1.18,5.08-1.57,6.94-3.19,2.32-2,5-1.94,7.56-2.52,1.74-.39,1.87,1.86,3.29,2,3.07-.49,4.54-2.8,5.67-5.27,2.07-4.55,3.9-5.16,8.39-2.48,5,3.47,7.32,3.33,12.13-.39,1.61-1.24,3-3,5.27-3.2,2.92-1.78,6.41-1.84,9.53-3.05.35,1.86.46-3,1.38,0,1.16,3.88,12.12,5.2,14.57,2,.9-1.2,1.13-2.77,1.82-4.09,2.91-5.53,7-10.1,13-12.08a18.85,18.85,0,0,1,16.44,2.06,5.37,5.37,0,0,0,3.17.95,64.08,64.08,0,0,1,10.44.46c3.3.38,5.7-2.22,8.21-4a7.54,7.54,0,0,1,5.53-1.68c3.86.46,5.35,1.38,5.59,5.19s1.41,6.15,5,7.28a7.07,7.07,0,0,1,1.91,1.17c.9.66,2.17,1.45,1.43,2.66-.91,1.51-2.21.53-3.21-.17-3.74-2.64-8-1.38-11.91-1.2-2.27.11-4,2.48-4.06,5.18a37.17,37.17,0,0,0,1,7c.3,1.69,1.71,2.09,3.17,1.92a15.45,15.45,0,0,1,8.67,1.82c2.32,1.12,4.7,1.61,7.2.41a5.23,5.23,0,0,1,3.32-.23,14.86,14.86,0,0,0,12.26-3.2c2.32-1.79,3.72-1.46,5,1.05a11.37,11.37,0,0,0,2.58,3.65c1.68,1.42,3.39,2.4,5.7.84,3.14-2.13,5.21-1.73,7.76,1.14.75.84,1.36,1.79,2.07,2.66,1.17,1.44,2.87,1.75,3.81.3,2.19-3.34,5.07-3.05,8.27-2.34a8.84,8.84,0,0,0,3.36,0c2.36-.37,2.83-3,4.91-4s3.69-1.57,5.92-1.28c2.44.31,5,.7,6.65-2.18.6-1.07,1.78-.74,2.92-.18,1.3.65,2.41,1.85,4.05,1.75,2.54.23,5.09-.25,7.62,0,5.36,1.52,10.58,2.19,15.24-2a3.81,3.81,0,0,1,5.45.05c4.31,4,9,4.94,14.37,2.32,1.87-.92,3.76-.11,5.38.73,3.32,1.74,6.33,2,9.22-.79.91-.87,2.25-1,3.38-1.57,3.64-6.25,8-7.16,13.88-2.94a2.75,2.75,0,0,0,1.08.29c5.36.06,10.43-2.33,15.84-1.81a.79.79,0,0,0,.66-.3c4.37-5.41,11.14-5,16.94-6.94a7.4,7.4,0,0,0,4.44-3.14c.76-1.08-1-3.14,1-3.5,1.79-.32,3.86-.38,5.1,1.76s3,2.07,4.57.37c1.77-1.87,3.55-3.8,3.68-6.61-1.94-3.09-5.28-4.82-7.44-7.71a1.72,1.72,0,0,0-1.27-.71c-5.53-.21-9.51-3.86-14-6.26-1.44-.81-3.09-.67-4.62-1-2.67-.61-5.61-1-6.34-4.44-3.24-2.94-5.19-7.55-10.34-8-2,.87-3.77.06-5.51-.78-3.18-1.54-3.39-2.82-.86-5.27,1.23-1.2,1.47-4,4.27-2.81a7.08,7.08,0,0,0,4.64-1.08c7.44-3.94,14.45-1.95,21.18,1.6,2.39,1.26,5,2.37,7.33,2.37,6.72,0,9.09,4.75,11,9.48,2.87,7,6.71,8.58,13.42,4.64,2.88-1.69,5-1.23,7.84,1.74a69.53,69.53,0,0,1,7,4.28c5.2,3.32,10,2.53,13.73-2.17.54-.67,1.06-1.61,2.07-.9.72.5.35,1.36.1,2.06-1.24,3.55-3.43,4.75-6.86,3.78-2.51-.71-3.83.58-4.36,2.8-.34,1.43-.15,3-.36,4.43-.29,1.32.45,2.34,1,3.43a3.87,3.87,0,0,1,1,2c.42,2.3,1.93,2.62,3.56,1.55,2.56-1.67,5.67-1.89,8.23-3.49,1.67-1.05,3.4-.44,5.06.09,3.75,1.21,5.57.06,6-3.88a8.62,8.62,0,0,1,.32-2.58c.37-.83,1.47-1.19,1.72-.46,1.4,4,6.69,4.52,7.43,8.66a11.17,11.17,0,0,0-1-2.21c-1.39-1.59-2.74-3-5.36-1.49a128.25,128.25,0,0,1-14.19,6.66,4.1,4.1,0,0,1-2.13.63c-4.32-.74-6.28,2-8.18,5.13-1.13,1.87-2.36,3.64-5.15,3.66-1.61,0-2.58,1.82-3.66,3.06-3.19,3.66-12.58,3.16-15-.77-.59-.94-1.43-2.08-.77-3.11.84-1.3,2-.14,3,.11,3.44.86,6,4,9.92,3.66.48,0-.1-.08.35.11,3.48,1.45,4-3.36,7.17-3.26,2.82.1,3.53-1.79,3.09-6.06-.27-2.57.25-5.26-1.14-7.67-1.44-1.76-3.15-2.72-5.53-2a6.55,6.55,0,0,1-4-.55c-3.54-1.21-6.72-1-9.31,2.25a10.27,10.27,0,0,1-7.45,3.71c-6.61,0-7.17,5.64-9.15,9.92l-.3,1.08c1.18,4.46,5.33,6.46,8.09,9.6,1.45,1.64,3.88,2.3,4.94,4.45a1.44,1.44,0,0,0,.79.78c5.84,1.74,11.54,4.07,17.86,1.26,3.44-1.53,7.6-1.2,10.84-3.59a1.44,1.44,0,0,1,1.1-.17c8.67,2,17.84.16,26.35,3.56,3.52,1.41,7.05-.62,10.62-.73,2.79-.08,5.49-1.43,8.43-.69,1.48.37,2.41-.41,3.18-1.87,2.28-4.34,6-5.38,10.67-4.34s9.32,1.71,14.4-.89c2.83-1.45,6.85-1.14,10-3.39,1.18-.85,3.11.48,4.47,1.37a10.44,10.44,0,0,0,8.16,1.79,18,18,0,0,1,5.23.21c3.59.35,4.2-.52,2.89-3.82a10,10,0,0,0-1.05-2.77,4,4,0,0,0-2-.88,12.68,12.68,0,0,1-2.67-.41,24.37,24.37,0,0,1-8.37-4c-2.2-1.59-3.48-3.54-3-6.32.25-1.57,1-3,2.61-3.31,2.62-.46,5.26-.43,7,2.21a2.16,2.16,0,0,0,1.5,1c3-.8,5.72-1.17,6.72-5.47.68-2.94,5.35-2.94,8.39-3.71a4.69,4.69,0,0,1,5.22,2.14c.39.61,1,1.33.4,2a1.37,1.37,0,0,1-2-.11c-2.65-2.88-5.07-1.47-7.6.17a37.26,37.26,0,0,1-5.6,3c-3.19,1.34-2.36,3.61-1.64,5.8s2.59,1.27,4.07,1.05c3.26-.5,6.1.88,9,2,.89.34,1.58,1.2,2.66,1.21,4.1.33,8-1.21,12.24-.81,2.92.28,5.88-.1,8.84.68,2.73.71,5.2,0,6.62-2.81a6.32,6.32,0,0,1,3.95-3.19c3.2-1,4.6-3.2,4.07-6.56a4.53,4.53,0,0,1-.09-.74c.07-1.8-.51-4.27,1.82-4.7s3.64,1.85,4,3.69c.56,2.75,2.36,5,2.91,7.48,1,4.35,1.18,9.06-1.23,13.24-1.32,2.31-.91,3.73,1.62,4.55a14.54,14.54,0,0,0,5.88-2.3c1-3,3.11-3.61,6.13-3.54,4.64.12,9.25-.82,13.87-1.35a28.27,28.27,0,0,1,2.56-6.8c1-2.16,4-3.11,4.61-5.84,0-.21.81.32,1.13.69,1.81,1.91,1.19,3.66,0,5.73a5.28,5.28,0,0,0,2.29,7.58c3.46,1.79,6.65,1.24,8.37-1.44.35-1,.52-2.71,1.89-2.31,4.25,1.25,8.8.25,13,2.43,4.47,2.3,9.38,3.16,13.88-.5a2.09,2.09,0,0,1,1.09-.21,9.65,9.65,0,0,1,4.8.1c3.93,1.06,7.88,2,12,1.33,2.39-.37,4.13,1.47,6.23,2.14,4.83,1.53,7.55.65,9.73-3.78,1-2.12,2.68-2.75,4.86-2.7,3,.07,5.88.16,8.54-1.92,2.29-1.78,4.1.25,5.89,1.65,2.64,2.07,5.13,2.09,7.51.1,2.17-1.82,3.2-4.09,2.24-7-.28-.85-.62-2-1.53-1.88-4.11.77-7.09-2.57-10.9-2.8a4.86,4.86,0,0,0-2.21.11l-.86.75c-3.75,1.83-6.2,1.33-7.93-1.86a10.14,10.14,0,0,0-6.13-4.76c-2.27,1.54-5.12,2.64-6.68,4.71-2.76,3.65-5.13,6.17-9.45,2.22a2.62,2.62,0,0,0-2-.79c-6.67,2-11-2.94-16.3-5.22-1.58.62-2.27-.31-2.81-1.58-2-4.83-5.21-6.62-10.23-4.94-3.68,1.23-7.09,2.09-10.84.52a2.56,2.56,0,0,0-3.23,1.19,2.82,2.82,0,0,1-2.46,1.46c-.78,0-1.53-.25-1.77-1.09s.36-1.21,1-1.37c5-1.27,5-5,4.72-9.07-.23-3.85,3.44-5.14,5.71-7.26,1.31-1.22,3.51-1.74,2.76-4.25-2.94-1.24-5.41-4.48-9.26-1.38-1,.83-3.39,0-5.14-.09-3-1-5.69-.84-8,1.55-1.54,1.57-3.4.82-4.79,0s-.06-2.19.36-3.25a30.65,30.65,0,0,1,3.16-6.68c1.32-1.88,1-3.77-1.22-5-3.88-.81-7.75-1.69-11.65-2.37-1.11-.19-2.8-.22-3.42.44-2.25,2.36-5.52,4.86-5.88,7.63-.65,5-4.79,3.72-7.12,5.5a11.72,11.72,0,0,0-2.25,3.23c-.16.25.05.8-.14,1-3.13,2.67-6.6,5-9.35,8-2.2,2.4-3.31,5.78-5.39,8.33-.69.84-2.93.68-4.43.54a22.62,22.62,0,0,1-4-1.29c-.56-.17-1.47.09-1.74-.24-4.92-6.06-13-4.57-19.07-7.87-2.72-1.47-6.08-1.7-9-2.83a7,7,0,0,1-3.52-2.85c-2.21-4.21-6.36-2.83-9.7-3.78-.58-.17-1.64-.56-1.62-.73,1-7.09-4.47-6.5-8.67-7.4-.59-.13-1.39.09-1.77-.23-8.05-6.79-16.72-1.74-25-.93-3.45.34-6.74,3.39-9.83,5.59-1,.74-2.14,3.24-1.68,3.93,2.14,3.22-.75,3.68-2.16,5.29a17.83,17.83,0,0,0-2.77,5.69c-.28.78.16,1.82.27,2.74-1.38-.34-2.75-.72-4.14-1a24.27,24.27,0,0,0-4-.59c-.6,0-1.22.58-1.83.89a10.49,10.49,0,0,1-.92-2.9c0-2,.4-3.94.3-5.9-.06-1-1-2.86-1.28-2.82-6.25.82-10.71-7.13-17.6-3.44-1.81,1-4.24.9-6.39,1-.51,0-1.31-1-1.56-1.74a33.2,33.2,0,0,1-.91-4.12c-5.12-2.25-10.32,0-15.48-.21-3.75-.17-5.32-1.15-5.53-4.1-.09-1.33.14-2.95,1.33-3.25,3.45-.86,6-4.1,9.9-3.65,3.47.39,5.72-2,8.17-3.81A1.12,1.12,0,0,0,1710.29,191.32Z" transform="translate(-932.69 -149.85)"/><path class="cls-2" d="M1514.63,275.74c-2.35-.26-4.69-.5-7-.79s-5.86-3.28-5,2.55c0,.33-.5.75-.76,1.13a8.09,8.09,0,0,1-1.64-1.35c-4.25-5.87-5.5-5.88-12.2-3.25-1,.4-3.94-3.84-5.81-6.08a13.28,13.28,0,0,1-1.5-3.28c-1.1.62-2.16,1.28-3.29,1.83-3.18,1.56-6.24,3.69-9.6,4.48-7.63,1.79-15.23-.2-22.64-1.81-1.28-.28-2.21-4.68-2.2-7.18,0-1,3-3,4.48-2.87,3.57.41,7.74-1,10.66,2.92.45.6,3.85-1,5.89-1.57-.78-1.66-1.12-4.09-2.42-4.83-5.15-2.95-9.27-6.23-8.51-12.94,0-.52-.38-1.55-.68-1.59-3.58-.43-8.76-2.39-10.52-.75-8.24,7.68-16.18,6.66-25.33,2.17-3.26-1.6-7.93-1.47-11.64-.68-4.26.91-9.86,2.39-11.78,5.52s-7.56,3.5-6.17,9.19c.6,2.49-2,5.34-5.76,3.05a4.16,4.16,0,0,0-2.76-.42c-3.34.67-4.78-.29-4.09-3.89.15-.81-.69-1.8-1.07-2.71-.27.78-.32,1.82-.86,2.28a20.76,20.76,0,0,1-4.36,2.83c-2.07,1-4.28,1.65-6.43,2.45-2.22,3.16-1.86,6.51,1.05,8.77,1.18.92,2.42,1.7,3,3.17,1.32,3.09.53,4.64-2.83,5.16-1.79.27-3.41.44-2.05,2.86,3.64-.06,7.37.35,10.91-.3,4.25-.78,7.58-1,11.76,1.65,2.78,1.75,7.85-.09,11.89-.44a11.37,11.37,0,0,0,2.79-.95c3.07-1.12,6-2.7,9.42-.41.73.48,3.14-1.79,4.88-2.56,2.7-1.21,5.46-2.29,8.25-3.26.56-.2,1.94.23,2,.55.54,2.8,1.92,3.37,4.84,3.73,2.19.26,3.75,1.47,5.6-.68.21-.24,2.52,1.14,3.71,2,5.25,3.67,7.69,3.27,11.37-1.8.21-.29,1.45-.2,1.93.13,6.54,4.43,13.12,5.34,19.91.51.19-.14,1.22.45,1.47.91,2.45,4.51,4.58,9.22,7.38,13.49.67,1,3.57,1,5.36.79,6.9-.86,14.28-.83,20.47-3.47a22.6,22.6,0,0,1,10.53-2c2.11.08,4.21-2,6.46-2.48,10.76-2.31,21.19-6.22,32.61-5.31,7,.56,14.19-.28,21.28-.62.81,0,1.58-.85,2.37-1.31,3.2-1.85,5.94-3.86,10.06-.76,2.14,1.62,6.14.68,9.26,1.13,4.43.64,8.79,1.86,13.23,2.12,2.21.14,4.52-1.29,6.79-2,5.11-.15,10.22-.32,15.33-.75,8-.69,16.1.36,24.15-.23a24.23,24.23,0,0,1,7,1c4.89,1.1,9.8,1.69,14.55-.65.16-2.93-2.77-4.24-4.2-4.22-4,.06-5.07-2.06-5.23-5.11-.18-3.27-3-4.69-4.35-7.12l0-.05c-1.37-3.69-4.86-5.8-6.85-9.12-1.22-2-5.17-.38-6.4,2.4-1.74.53-3.48,1.08-5.23,1.59a26.89,26.89,0,0,0-3,.8c-.53.22-.88,1.11-1.38,1.18-9.25,1.24-16.79,8.49-26.64,7.58-5.75-1.48-10.88.33-15.84,3-1.66.76-3.4,2.28-5,2.13-3.07-.29-6-1.58-9.08-2.31-1-.24-2.69-.45-3.07.06-2.41,3.28-9.91,3.78-12.1.2-2.71-4.41-6.49-3.82-9.07-1.42-4.31,4-8.68,3.07-13.39,2.1-1.36-.43-2.08.71-2.77,1.38-2,1.94-4,2.63-6.67,1.37-2.82-1.35-4,2.35-6.51,2.32a6.18,6.18,0,0,0-2.93,1.43,15.62,15.62,0,0,1-2.28,2.39c-1.21.81-2.37.87-3.11-.54s-.63-3.9-2.94-4.28c-1.9-.32-3.38,1.27-5.18,1.61A1.39,1.39,0,0,0,1514.63,275.74Z" transform="translate(-932.69 -149.85)"/><path class="cls-3" d="M1180,263.93c-8.31.7-16.64,1.3-24.94,2.13-3.67.38-7.55.62-10.88,2-4.8,2-7.9-1.55-11.76-2.51-.28-.07-.21-1.26-.44-1.88a8.12,8.12,0,0,0-1.38-2.83,8.41,8.41,0,0,0-2.71-1.21,25.62,25.62,0,0,1,4.35-1.6c4.39-.78,8.48-1.47,12-5,1.72-1.71,5.66-1.1,8.52-1.82,1.28-.32,3.09-1.09,3.41-2.06a5,5,0,0,0-.79-4.36c-.71-.7-2.79.07-4.26.07s-3.08.27-4.29-.3c-4.09-1.94-6.28.18-8.15,3.33-1.11,2.34-3.77.52-5.3,2-2.24,2.19-3.09-.69-4.44-1.5-3.27-1.93-6.74-1.65-10.24-1.1a2.55,2.55,0,0,0-1.93,2.08c-.74,2.51-2.44,3.45-5,3.6-5,.28-5.83,1.46-5,6.34.22,1.35.51,2.69.86,4,1.26,4.76,1.27,4.79,6.2,5.28,1.54.15,3.32.28,3.45,2.15.42,5.7,4.69,6,8.81,6.53,4.32-.31,8.78-.05,12.93-1.06,7.7-1.89,15.1,3.68,23.14-.26,4.62-2.26,10.83-1,16.11-2.27a11.14,11.14,0,0,1,10,2.13c.47.35,1.56-.06,2.34-.23,3-.64,5.94-1.75,8.94-1.82,1.62,0,3.46,1.45,4.89,2.62,5,4.14,11.56,1.71,16.91,3.88,5.83,2.37,11.83,4.86,16.82,8.56,5.3,3.94,10.41,4.82,16.06.74.94-.68,2.56-.39,3.86-.59a23.81,23.81,0,0,0,5-.86c5.2-2,10-5.05,16.15-3.24,5.38,1.58,8.45-1.05,9.1-6.54a1.56,1.56,0,0,1,1.17-1c6.09.34,12.17,1,18.26,1.12,10.71.22,21.42.11,32.12.11a5.14,5.14,0,0,0,1.42-.43c.62-.5,1.11-1.22.78-1.92-1.66-3.49.09-5.86,2.42-8.16,1.24-1.23,2.59-2.56.65-4.33-2-.76-4.46-2.6-5.93-2-2,.81-3.32,3.43-4.86,5.33-1.22,1.51-2.33,3.12-3.49,4.68-3.29-.93-6.8,1.31-10.18-.94-.86-.57-3.4,1.1-3.57,2.87-.33,3.53-1.69,2.55-3.42,1.13-2.71-1-5.45-1.9-8.14-3-1.48-.59-3.22-1.09-4.24-2.19-2.43-2.63-4.39-5.8-8.73-3.1-.38.24-1.7-.44-2.16-1-3.59-4.55-8.31-3.91-13.2-3.24-1.55.21-3.22-.5-4.83-.79a7.39,7.39,0,0,0-6-1.43c-3.64.44-5.65,2.9-5.2,6.9.2,1.68-.16,2-1.69,2.48-2.74.79-5.57,1.35-7.75,3.66-.86.9-2.74,1.06-4.25.34a6.48,6.48,0,0,0-6.29.31c-1.65.85-3.83,1.87-5.65-.15-4.22-1.64-8-4.14-13.09-3.42-4.5.63-9.2,0-13.8-.27-.83-.05-1.61-1-2.41-1.6-2.66-2.14-4.24-5.07-5.91-7.95-2-3.49-3.51-4.19-6.87-2.72-2.52,1.11-5.58,1-7.22,4.28C1185.38,263.63,1182.34,264,1180,263.93Z" transform="translate(-932.69 -149.85)"/><path class="cls-4" d="M1126.1,277.33c-.84-.72-1.57-1.85-2.54-2.1-3.84-1-4.43-3.33-3.61-6.78.55-2.32.46-3.87-3-2.47-1.8.73-5.7.37-6.26-.72-1.39-2.71-1.4-6.11-2-9.23,2-.14,4-.15,5.9-.46,1.09-.18,2.81-.64,3-1.34,1.59-5.27,6.66-7.53,11.26-4.32,4.28,3,6.85.22,9.78-2-3.59,1.37-6.58,1.43-10.34-.86-3.55-2.16-8.45-2-12.64-3.27-1.39-.42-2.23-2.44-3.62-3.08-1.82-.84-4.16-1.81-5.88-1.31a10.4,10.4,0,0,0-5.8,4.2c-1.1,1.91-.23,4.83-1,7.08-.63,2-4.08,2.69-2.22,6.11.93,1.7.41,4.35.06,6.49-.1.6-2,1.4-2.94,1.3-6.07-.64-12.12-1.51-18.17-2.26-.28,0-.62.37-.93.57-2.44-2.57-2.85-6.68-6.42-8.42-.86-.42-.7-1.49-.92-2.26-.6-2.13-1.68-2.52-3.4-1.13-2.49,2.17-5.23,4.14-1,7.44.77.6.44,4.38-.06,4.54-2.2.7-5.61,1.69-6.85.6-4.31-3.76-7.55-3.79-12.78-1-4.29,2.27-10.21,1.46-15.41,2-.94.35-1.4,1-.88,1.93s1.17.62,1.86.28c5.81.19,11.64.21,17.43.67,1.37.11,3.69,1.64,3.72,2.57.05,1.76-.82,4.64-2.07,5.13-3.8,1.51-8,2.12-12,3-1,.22-2.28-.09-2.9.45-2,1.7-3.67,3.68-5.47,5.56a25.32,25.32,0,0,0,4.55.59c3.66-.18,7.34-1.11,11-.82,6.91.54,13.75.05,20.83,1.27,8.08,1.4,17.07,4.91,25.55.21.58-2.43-1.08-3-2.87-3.43-2.56-.7-5.2,0-7.79-.58-1.85-.4-3.44-.74-3.62-3a2.06,2.06,0,0,0-.33-1.05c-1-1.43-3.82-2.24-1.63-4.78,3-3.47,6.25-4.5,9.56-3a8.89,8.89,0,0,1,3.92,3.87c1.69,2.87,4.13,4.2,7.49,3.45a4.5,4.5,0,0,1,3.64.22,15.51,15.51,0,0,0,6.65,2.17c3.84.59,4.15,1.14,3.71,5-.07.61.12,1.2,0,1.79.7-.05,1.62.17,2.07-.19,3.24-2.63,5.73-6.37,11-5.39C1123,280.87,1124.68,278.5,1126.1,277.33Z" transform="translate(-932.69 -149.85)"/><path class="cls-5" d="M1874.52,266l-5.1,2.5c-4.61.19-8.87-.65-12.25-4.13-3.18-3.25-7.48-3.65-11.62-4.32a3.37,3.37,0,0,0-4,2.6,26.18,26.18,0,0,0-1.33,6.9c-.06,1.14-.29,2.33.73,3.22,3.35,8.28,13.28,6.81,18.47,12.37a2.17,2.17,0,0,0,1.4.38c8.41.12,16.82.4,25.23.25,4-.07,7.93-1,11.89-1.5,3.22-3,3-7.28,3.6-11.1.47-2.86-2.21-3.45-4.4-4.05-1.64-.46-3.21,0-4.79.38a5.85,5.85,0,0,1-6.12-1.83C1882.2,263,1880.41,262.73,1874.52,266Z" transform="translate(-932.69 -149.85)"/><path class="cls-2" d="M1029.47,266.88c-.32-.74-.65-1.47-1-2.21-2.28-4-4.88-4.78-9.61-3-5.9,2.26-12.42,3.1-18.76,4-1.54.21-4.18-1.51-4.94-3-1.69-3.36-3.07-5.6-7.57-4.43-1.85.48-4.61-.75-6.35-2-3.38-2.47-5.52-1.09-8.09,1.2-1.27,1.13-4.18,2.39-4.85,1.82-1.46-1.24-2.11-3.56-2.77-5.55-.15-.44.89-1.72,1.59-1.92,3.66-1.07,7.39-1.92,11.09-2.85-2.71.24-5.41.46-8.12.72a35.05,35.05,0,0,1-4.41.51c-3.89-.12-7.91-.85-8.59,4.88-.09.77-2.08,1.76-3.28,1.89-6.14.65-12.32.87-18.43,1.7-1.06.14-1.82,2.51-2.71,3.85,1.83,1.16,3.76,3.43,5.47,3.28,8.67-.8,17.25-2.17,26,0,2,.51,4.46-.58,6.56-.17a121,121,0,0,1,14.05,3.59c6.58,2.14,12.61.95,19.23-.66,7-1.71,14.67-4.45,22.19-.6C1026.88,268.28,1028.34,267.25,1029.47,266.88Z" transform="translate(-932.69 -149.85)"/><path class="cls-2" d="M1991.64,247.17c3.7,1,7.43,1.89,11.08,3.05.77.24,1.88,1.64,1.72,2.17-.57,1.9-1.26,4.06-2.64,5.29-.69.61-3.06-.44-4.55-1-2.25-.91-5.77-3.49-6.35-2.91-3.56,3.46-7.29,3.53-11.77,2.82-1.11-.18-2.55,2.94-4.13,4.16-1.75,1.36-4,3.47-5.76,3.19-7.53-1.24-14.93-3.29-22.42-4.86-.89-.19-2,.73-3,1.13a9.71,9.71,0,0,0-2.88,5.72c2,2.69,3.37-.4,5.06-.59,3.92.32,7.87,1.09,11.76.85,10.45-.65,20.8,6.61,31.2.75,9-5.06,19-2.34,28.42-4,4.59-.82,9.63,1.31,14.48,1.34,1.82,0,3.65-2.14,5.47-3.3-1.4-1.32-2.66-3.57-4.22-3.81-5.84-.87-11.79-1-17.67-1.65-1-.11-1.88-1.46-2.71-2.33-1.28-1.36-2.29-3.78-3.72-4C2003.27,248.1,1997.43,247.76,1991.64,247.17Z" transform="translate(-932.69 -149.85)"/><path class="cls-4" d="M1874.52,266c4-.31,7.56-.87,10.33,3.78,1,1.76,6.08,2,9.12,1.56,4.76-.64,5.92,0,5.07,4.8-.47,2.69-.71,5.42-1,8.13,6-.86,11.91-2.19,17.89-2.43,5.26-.2,10.56.82,15.84,1.3,2.76-.23,3.63-1.82,3-4.33s-2.33-2.46-4.36-1.79c-3.55,1.16-6.63-.18-9.44-2.16-2.33-1.64-2.76-4.11-1.93-6.67s3.15-2.42,5.29-2.37c1.38,0,2.71.51,4.07.5s3.09.35,3.8-1.54c-.07-1.41-1.18-1.61-2.2-2-2.51-1-5-2-7.46-3.27-3.16-1.62-6.26-.09-8.91,2l-7.66-.05c.53-2.06,1.18-4.11,1.54-6.2a7.3,7.3,0,0,0-.29-3.47c-.28-.82-1.16-1.44-1.77-2.16-1.71-1.36-2.94-1-3.34,1.14-.3,1.64-1.36,2.5-2.54,3.5-2.25,1.91-3,5-4.85,7.17C1887.88,259.51,1876.92,262,1874.52,266Z" transform="translate(-932.69 -149.85)"/><path class="cls-4" d="M1465.2,211.23c2.2,7.37,2.13,7.2-4.56,9.56-6,2.11-1.17,6.55-1.61,9.86a33.41,33.41,0,0,0,4.13,1c5.46,1.32,6.25-4.07,9-6.48,3.94-3.44,13.54-5.07,18.26-2.93,1.33.6,3.38-.36,5.1-.61a17.19,17.19,0,0,0-3-2.76c-3.31-1.88-7.71-2.8-9.79-5.53-1.6-2.09-.58-6.39-.23-9.65.27-2.48,1.34-4.87,2-7.31l-6,.1c-3.65,1.29-7.43,2.19-10.44,4.94C1465.33,204,1462.56,207.31,1465.2,211.23Z" transform="translate(-932.69 -149.85)"/><path class="cls-6" d="M1931.72,264.53c-4-.3-7.93-.68-11.91-.87-1-.05-2.89.52-2.89.75.12,3.77-.91,8.89,1.12,10.95,2.68,2.73,7.79,3.12,11.91,4.36.87.26,1.94-.17,2.92-.28-.38,1.21-.77,2.43-1.15,3.65,6,3.07,11.19-.29,16.31-2.48,3.62-1.55,3-10.5-.52-13.18a8.84,8.84,0,0,1-1.53-2.13l-4.51,0A11.65,11.65,0,0,0,1931.72,264.53Z" transform="translate(-932.69 -149.85)"/><path class="cls-1" d="M1108.81,286.23l4.77-5.28c-2.48-1.12-4.93-2.29-7.43-3.35-2.16-.91-4.37-1.7-6.57-2.54-.69-.26-1.57-.89-2.07-.67-5.6,2.5-7.86-1.63-10.91-4.94-3.39-3.68-8.94-3.18-12.44.51a4.68,4.68,0,0,1-1.21.84c-5.51,2.94-5.48,2.9-.63,6.95.7.58,1.52,2,1.26,2.59-1.73,4.06.37,3.25,3.22,3.31,4.43.08,8.85,1.21,13.27,1.89,3.51,2.38,6.26.66,9.7-.82C1102.13,283.71,1105.75,285.63,1108.81,286.23Z" transform="translate(-932.69 -149.85)"/><path class="cls-4" d="M1925.11,215.83c-3.35,2.39-6.78,4.68-10,7.25a4.18,4.18,0,0,0-1.39,3.41c1.72,6.68.85,8-6.33,8.72-.73.08-1.45.28-2.17.43a9.54,9.54,0,0,0,1.36,2,22.8,22.8,0,0,0,4.72,3.6c1.19.58,4,.62,4.08.25,1.69-4.94,4.75-2.08,7.67-1.94,2.62.12,5.29-1.58,8-2.25,3.51-.87,6.24,0,8,3.58.39.8,2.13.94,3.25,1.39-2.77-3.3-8-6.84-7.75-9.84.51-5.27-2.3-8.1-3.53-12C1929.62,216,1927,217.22,1925.11,215.83Z" transform="translate(-932.69 -149.85)"/><path class="cls-4" d="M1027.69,243.71c1.13-.44,2.7-.56,3.3-1.38,3.28-4.51,6.93-4.79,12-2.24,4.25,2.15,9.82-.76,14.32,2.92.67.55,4.82-3.12,7.29-4.92.06,0-.6-1.58-1-1.59-6.32-.18-10.21-1.64-8-9.58.45-1.62-4.35-4.89-7-7.09-1.15-1-2.94-1.15-4.45-1.68-2.58.11-3.4.83-5.08,3.63-2.49,4.17-4.09,6.88-3.66,12.1C1035.7,236.93,1030.46,240.42,1027.69,243.71Z" transform="translate(-932.69 -149.85)"/><path class="cls-7" d="M1345.09,263.8c-.91,1.29-1.58,2.91-2.79,3.81-4.34,3.24-4.37,6.7-1.06,10.6,5,.93,10,2,15,2.71,1.47.21,3.07-.51,4.61-.81,1.27-.23,2.54-.47,3.81-.68,3.53-.57,5-2.09,4.14-6.07a8.38,8.38,0,0,0-4.77-6.31c-1.59-.87-1.65-4.51-2.4-6.9-1.53.79-3.38,1.26-4.55,2.42C1353.31,266.32,1349.39,266.42,1345.09,263.8Z" transform="translate(-932.69 -149.85)"/><path class="cls-8" d="M1710.29,191.32c-4.13,2.47-8.35,4-13.12,1.65-.29-.15-1.06.43-1.48.81-1.29,1.22-2.33,2.79-3.8,3.71-2.65,1.65-5.78,2.81-3.07,6.77.07.1.17.25.14.34-1.88,6.67,3,5.06,6.26,4.86,5.57-.35,11.11-1.14,16.66-1.74-4.5-3.63-5.88-7.32-.8-11.77C1711.7,195.41,1710.6,192.91,1710.29,191.32Z" transform="translate(-932.69 -149.85)"/><path class="cls-9" d="M1678.15,277.24c-4.53-.14-9.1,0-13.61-.46a200.11,200.11,0,0,0-45,.61c-.76.09-1.43.86-2.14,1.31,8.1.46,16.21,1.05,24.32,1.35,5.7.2,11.42,0,17.12,0,5.89,0,11.8-.14,17.64.4a43,43,0,0,1,11.69,2.92c3.56,1.41,6.61,4.21,10.2-.05.78-.93,3-.62,4.61-.88a1.94,1.94,0,0,0-.3-2.37c-2.4-3-5.81-2.63-8.8-1.91-3.93.95-7.57,1-11.25-.66A5.19,5.19,0,0,0,1678.15,277.24Z" transform="translate(-932.69 -149.85)"/><path class="cls-10" d="M1841,272.72l.69-2.94c-.63-1.51-2-1.83-3.35-1.77-5.06.19-10.1.22-15-1.24a3,3,0,0,0-2.49.41c-.59.24-1.23.58-1.4,1.14-1.61,5.2-6.23,5.53-10.44,6.67-1.75.47-2.91-1.21-4.51-.79-3.45,1.36-7.11,1.06-10.71,1.27-2.9.71-5.73,1.6-8.57,2.55s-5.87.38-8.76,1.09c-1.26.31-2.88.08-3.07,2,5,.53,10.07,1.17,15.12,1.57s9.84.57,14.76.82c1.22.06,2.73.48,3.63-.06,4.92-3,9.59-6.35,14.57-9.18a16.55,16.55,0,0,1,7.21-1.95C1832.75,272.12,1836.88,272.56,1841,272.72Z" transform="translate(-932.69 -149.85)"/><path class="cls-11" d="M1262.67,224.23c4.49-1.15,9.44-1.47,13.36-3.63,7.36-4,7-7.64-.22-12.2a50.15,50.15,0,0,1-7.91-6.12c-.83-.81-.55-2.77-.77-4.21l-1.58.48c-4.42.62-5.8,2.81-5.23,8.23,2.23,2.06,4.11,4.5,6.32,6.59,3.3,3.14,3.18,4.34-.89,6.53-.88.47-1.87.7-2.72,1.2C1261.62,221.92,1261.06,223,1262.67,224.23Z" transform="translate(-932.69 -149.85)"/><path class="cls-4" d="M1900.19,201a24.63,24.63,0,0,1-1.26,4.9c-1.62,3.37-3.62,6.56-5.23,9.93-.3.62.4,2.46.85,2.54,2.72.47,6.06-.32,6.27,4,.65-.39,1.82-.72,1.87-1.17.49-4.9,4.34-5.73,8-6.81C1909.76,207.89,1908.11,202,1900.19,201Z" transform="translate(-932.69 -149.85)"/><path class="cls-4" d="M1059.29,215.85c3.67,1.09,7.53,1.92,8,6.82,0,.3,1.56.45,2.39.67-.5-4.18,2.34-3.05,4.69-3.18.71,0,1.84-1.63,1.88-2.55a9.64,9.64,0,0,0-1.1-4.26c-1.7-3.67-3.58-7.27-5.39-10.9C1061.88,203.47,1060.23,209.38,1059.29,215.85Z" transform="translate(-932.69 -149.85)"/><path class="cls-12" d="M1711.92,282.5c8.65-1.19,17.22-1.64,25.76,1.17,2,.66,4.6-.57,6.94-.69,6.53-.34,13.08-.45,19.61-.89,1.35-.1,2.63-1.22,3.94-1.87,1.08-1.51.42-2.46-1.15-2.4s-2.82-.73-4.21-1.12c-4-.19-8.16.4-12.12-1-.87-.32-1.66.21-2.42.62-5.3,2.89-10.79,2.62-16.28.76a10.78,10.78,0,0,0-7.43.12c-3.06,2.27-7,1.25-10.29,2.62C1712.86,280.37,1711.21,280.27,1711.92,282.5Z" transform="translate(-932.69 -149.85)"/><path class="cls-13" d="M1465.2,211.23c-.55-5.27,2.94-8,6.68-10.63a2,2,0,0,1,1.69-.28c6.11,4.5,4.64-.87,5-3.81-.15-.2-.26-.5-.45-.58-3.72-1.47-8.49-1.69-8.51-7.46,0-.29-1.49-.57-2.29-.86-2,1.95-1.89,4.46-1.8,6.95,0,.33.24.59.26.92a2.83,2.83,0,0,0-.27-.69c-1.79-2.28-3.26-1.69-4.53.54a1.9,1.9,0,0,0,1.11,1.85c.37,3.49.61,7,1.19,10.46C1463.51,208.91,1464.54,210,1465.2,211.23Z" transform="translate(-932.69 -149.85)"/><path class="cls-14" d="M1262.59,206.91c-.89-3.44-.56-6.46,3-8.36-.79-.57-2.11-1-2.28-1.75-1.21-5.22-5.52-6.42-9.74-7.81.18.55.24,1.51.54,1.59,7.9,2.06,2.72,2.18-.15,4.29-2.21,1.62-3.79,5.68-3.64,8.55.24,4.7,2.12,9.32,3.3,14,2.48-.75,1.69-2.66,1.39-4.24-.39-2-1.25-4-.83-6.16.24-1.2.44-2.54,1.8-3s2.26.57,3.19,1.39S1260.62,208.23,1262.59,206.91Z" transform="translate(-932.69 -149.85)"/><path class="cls-15" d="M1762.91,278l5.26,2.22,5.19.9,21.09-3.19a6,6,0,0,0-7.89-5.11,26.47,26.47,0,0,1-16.38.75c-2.51-.66-4.77,1-7,1.89C1762.14,275.86,1762.13,277.06,1762.91,278Z" transform="translate(-932.69 -149.85)"/><path class="cls-16" d="M1329.47,233.3c2.79-2.48,4.9-6.42,9.74-4.5.21-.8.84-1.79.57-2.35a20.63,20.63,0,0,0-3-4.38c-.35-.4-1.43-.31-2.15-.23-4.22.44-5.16-1.42-3.7-5.07l-6.82.6c-1.46.53-2.83,1.09-1.51,3l4.44,3c1.35,2.75,2.67,5.48,1.4,8.68C1328.22,232.58,1328.76,233.15,1329.47,233.3Z" transform="translate(-932.69 -149.85)"/><path class="cls-8" d="M979,249.61l-2.33,1.8c1,0,2,.12,3.06.11,2.79,0,5.58,0,8.35-.16a2.42,2.42,0,0,0,1.75-1.07c1.24-2.45,2.31-5,3.44-7.49-2.93.33-5.87.56-8.77,1.07-.61.1-1.64,1.49-1.48,1.85C985.3,250.85,980.55,248.58,979,249.61Z" transform="translate(-932.69 -149.85)"/><path class="cls-8" d="M1976.72,241.3c1.14,2.53,2,5.27,3.55,7.5a6.46,6.46,0,0,0,4.46,2.1,57.43,57.43,0,0,0,8.25-.59l-2.2-2.39c-1.85-.56-5.8,1.16-3.83-3.62.18-.42-1.22-2.07-2.06-2.23C1982.21,241.58,1979.45,241.53,1976.72,241.3Z" transform="translate(-932.69 -149.85)"/><path class="cls-17" d="M1462.07,195a43,43,0,0,1,3.16,4,9.56,9.56,0,0,1,.74,2.85c1-.46,2.22-.68,2.86-1.42a10.88,10.88,0,0,0,1.35-3.27c-5.2-1.94-1.58-6.49-2.84-9.59l-4.46,1.36c-.52,1-.81,2.15-2.15,2.66a1.76,1.76,0,0,0-1,2.41A1.6,1.6,0,0,0,1462.07,195Z" transform="translate(-932.69 -149.85)"/><path class="cls-4" d="M1462.07,195l.81-6.07c-4.15,1.59-8.31,3.45-12.15-.65,1.38,2.21,2.72,4.44,4.17,6.61.28.42,1.4.53,1.43.85.67,5.83,3.68,1.72,5.78,1.4Z" transform="translate(-932.69 -149.85)"/><path class="cls-5" d="M1711.92,282.5c3.14-.83,6.29-1.65,9.43-2.51,1.36-.37,2.7-.83,4.06-1.24a2.55,2.55,0,0,0-1.08-2.26c-1.58-1.3-11.16-2.06-12.65-.71-1.83,1.65-3.92,2-6.18,2.2-1.8.17-3.6.46-3.31,3l.75,1.47Z" transform="translate(-932.69 -149.85)"/><path class="cls-18" d="M1322.6,220.37c.5-1,1-2,1.51-3-.33-.17-.74-.58-1-.49-7.85,3.07-8.81-3-10.69-7.93-.19-.5-.74-.85-1.12-1.26-1.4,3.2-3.18,5.55,1.68,8.55C1317.12,218.78,1316.32,220.07,1322.6,220.37Z" transform="translate(-932.69 -149.85)"/><path class="cls-19" d="M1687.91,227.13c-4.06-3-7.91-4.49-12.13.08-1.93,2.08-6.81-.49-8.21-3.2a73.27,73.27,0,0,0-7.41-11.51c-.86-1.1-3.47-.67-4.88-1.55-2-1.24-6,1.66-6.27-3,0-.16-1.49-.12-2.22-.36-2.54-.82-5.07-1.69-7.57-2.62-.92-.35-2-1.49-2.62-1.28-5.22,1.63-10.37,3.51-15.55,5.31-5,4-4.8,8.39,1.62,12.08l9.74,7.54c3.62,2.69,7.66,2,11.26.56,4.46-1.75,7.76-.72,9.11,4a5,5,0,0,0,1.92,3,18.93,18.93,0,0,0,10.33,4.85c8.6,1.15,17.14,1.11,25.56-1.25,3.05-1.77,3.36-2.46,1.16-4.88S1689.69,229.48,1687.91,227.13Z" transform="translate(-932.69 -149.85)"/><path class="cls-20" d="M1702.19,281c1.43-.32,3.1-.27,4.25-1,2.41-1.59,6.82,2.41,8.11-2.95.1-.41,5.29.34,8.09.7a12,12,0,0,1,2.77,1.05,103.1,103.1,0,0,0,10.75,1.22c4.77.07,10,1.94,14-2.62.29-.34,1.36,0,2.07,0l10.69.62c4.66-3.58,9.86-1.36,14.87-1.5,2.82-.08,5.67-1.67,8.4-1.44s5.52,1.86,8.27,2.87l10.52-1.38c2.15-2,5.1-1.24,7.6-2.21,5.47-2.11,5.79-2.6,2.75-7.41a27.75,27.75,0,0,1-2.1-3.07c-1.24-1.63-2.56-1.9-3.86,0,.68,2.09,1.51,3.32-2.29,3.24-5.32-.13-9.89-1.93-14.77-3.36-1.84-.54-4.41,1.5-6.69,2.22-.76.24-2.14.38-2.44,0-2.49-3.32-3.55-2.69-4.4,1.08-.2.89-2.34,2-3.42,1.9a74.3,74.3,0,0,1-11-2.41c-2.44-.72-10.12,3.64-11.32,6.6a3.08,3.08,0,0,1-2.1,1.57c-2.41.31-4.86.3-7.29.45-.49,0-1.36.38-1.39.32-2.41-5.92-3.72.36-5.31.3-3.93-.14-7.8-1.53-11.73-2.26a67.59,67.59,0,0,0-7.64-1c-2.42-.18-4.87,0-7.3-.14-1.44-.06-3-.8-4.27-.39-4.34,1.41-8.45,3.69-12.86,4.65a23.24,23.24,0,0,1-10.62-.22c-8.07-2.16-11.94-9.79-17.87-14.78-.59,2.2,5.39,4.31.09,6.56.29.39.6.77.86,1.17.64,1,1.9,2.11,1.77,3-.62,4.16,1.69,4,4.67,3.88,2-.1,4.1.65,6.14,1,6.09.87,12.18,1.72,18.26,2.62C1698.35,280.15,1700.26,280.6,1702.19,281Z" transform="translate(-932.69 -149.85)"/><path class="cls-4" d="M1809.36,263.83l4.55,4.47c2.3-1,4.57.64,6.86.08l20.92,1.4c1.15-2.6,2.66-7.52,3.4-7.41,3.9.59,7.66,2.34,11.38,3.9,3.23,1.35,6.28,3.19,9.57,4.33.78.27,2.24-1.38,3.38-2.15,1.18-4.77,2.47-9.51,3.46-14.32.2-.94-.77-2.11-1.12-3.19-.7-2.2-1.38-4.41-2-6.63-.08-.31.32-.94.2-1-2.72-2.11-5.22-5.12-8.32-6s-5.12,3.55-3.42,8c1.61,4.23-.42,5.23-4,5.88-1.14.21-1.91,2-3,2.77-1.68,1.13-3.87,3.11-5.27,2.71-2.84-.82-5.13-1.42-8.27-.55-3.91,1.08-8.24.65-12.39.88a68.74,68.74,0,0,1-9.51-1.63c-4.36-1.11-8,1.15-9.5,5.41-.64,1.81.69,1.74,1.69,2.06Z" transform="translate(-932.69 -149.85)"/><path class="cls-21" d="M1262.59,206.91c-1.69-2.49-3.33-5-5.11-7.44-.21-.28-1.39-.24-1.75.07a10.33,10.33,0,0,0-3.34,11.66,55.44,55.44,0,0,1,1.19,6.19,33.68,33.68,0,0,0-4.41,2.1,35.84,35.84,0,0,0-3.78,3.21c-.17.34-.2.93-.42,1-4.11,1.57-4.58,5.18-5.09,8.81a3.63,3.63,0,0,1-1.35,2.21c-2.23,1.74-2.07,3.69-.67,5.82,1.84,3.22,3.71,3.95,7.25,1.56,3.13-2.11,7.42-2.48,10.71-4.43,1.94-1.15,3.2-3.76,4.28-6a60.92,60.92,0,0,0,2.57-7.51,61.23,61.23,0,0,0,7.18-3.9c1.11-.79,2.5-3.3,2.18-3.67C1269.08,213.24,1265.79,210.12,1262.59,206.91Z" transform="translate(-932.69 -149.85)"/><path class="cls-22" d="M1698.33,248.21c.12,3.27,1.28,7,.05,9.67-1,2.21-5.2,4.73-7.39,4.28-5-1-9.53-3.82-14.27-5.88-.87-.38-1.76-.71-2.64-1.06-.41,1.06-1.33,2.23-1.14,3.17,1.68,8.19,4.54,9.51,13,10.41,5,.53,7.34-.3,8.5-5,.15-.62,1.22-1.12,2-1.47,1.36-.65,3.42-.75,4.07-1.78,4.23-6.74,12.06-6.21,18.06-9.3,2.92-1.49,5.78-3.11,8.76-4.46.6-.27,1.75.28,2.46.73,1.67,1.05,3.09,2.82,4.86,3.25,1.5.36,3.35-.76,5-1.22-1.61-.51-3.22-1-4.84-1.52-.45-.13-1.35-.06-1.36-.16-.57-5.22-7.28-5.83-8.18-10.86-.14-.78-1.39-1.36-2.12-2-.63.87-1.29,1.73-1.87,2.63a1.64,1.64,0,0,0-.3,1.06c.92,7.65-2.52,7.33-7.62,4.24a2.36,2.36,0,0,0-2,.17c-2.58,1.66-5,3.51-7.61,5.18-1.89,1.23-3.34,1.25-3.07-1.67C1699,245.88,1698.53,246.83,1698.33,248.21Z" transform="translate(-932.69 -149.85)"/><path class="cls-23" d="M1329.47,233.3a27.67,27.67,0,0,1,1.2-2.72c2.51-4.3.8-6.43-3.63-7.24-2,.35-4.14.24-5.76,1.16-2.1,1.18-3.72,3.2-5.57,4.83-1.45,1.27-2.74,3-4.44,3.67-6.74,2.53-13.59,4.81-20.46,7-3.32,1-3.21,3.46-2.75,5.94.08.44,1.94.77,3,.74s1.87-.9,2.78-.86c3.28.14,6.77,1.8,8-3.61.4-1.81,3.48-2.94,5,.5a5.18,5.18,0,0,0,9.31.77c2.11-3.33,4.44-4.09,8.32-4C1326,239.51,1327.77,235.48,1329.47,233.3Z" transform="translate(-932.69 -149.85)"/><path class="cls-24" d="M1698.33,248.21l2.35-1.61-1.64-2.9c-.49-5.07-4.19-5.36-8.06-5.39-6.71.51-13.49,1.84-20.11,1.26-5.12-.44-10-3.26-15-5-2.48-2.84-5.47-4.64-9.36-4.53-2.56.08-4.09,1-2.84,3.91,4,3.33,7.85,6.32,13.53,7.18,3,.46,5.52,4.54,8.25,7a2.42,2.42,0,0,1,.5,1.75c-.22,2.54,1.1,3.32,3.38,3.11,1.47-.14,3,.29,4.42-.31,2.81-1.56,5.64-3.1,8.44-4.69,1.22-.69,2.48-2.22,3.57-2.09C1690,246.36,1694.13,247.38,1698.33,248.21Z" transform="translate(-932.69 -149.85)"/><path class="cls-25" d="M1807.92,262.87c-.49-3.37,3.11-7,6.45-6.61,3.61.37,7.25.52,10.87.77-4.39-.77-8.8-1.51-13.18-2.35-.62-.12-1.51-.63-1.62-1.11-.16-.71,0-2,.48-2.28,3-1.87,6.06-3.58,9.18-5.21.26-.14,1.05.66,1.55,1.08,2.71,2.28,5.52,2.82,8.24.19.66-.63.67-1.93,1-2.92A16.76,16.76,0,0,1,1829,244c-.4-.15-1-.4-1.08-.73-2.25-6.84-7-3.9-11.24-2.9-2.83.66-5.71,1.14-8.51,1.91-.61.17-1,1.22-1.45,1.86,6.71,3,.45,4.15-.88,6a77.36,77.36,0,0,1-1.77,8.4c-.32,1.54-.64,3.18.83,4.43Z" transform="translate(-932.69 -149.85)"/><path class="cls-4" d="M1804.91,263c.86-2.68,2-5.3,2.44-8,.2-1.5-1-3.19-1.5-4.79a20.71,20.71,0,0,1-.9-2.8c-.64-3.67-.58-3.64-3.31-1.81-.39.26-1.18-.15-1.74,0-2.35.5-6.11.41-6.73,1.75-1.7,3.71-3.08,8.24,2.2,10.92C1798.55,259.77,1801.73,261.36,1804.91,263Z" transform="translate(-932.69 -149.85)"/><path class="cls-26" d="M1691,238.31c.35.62.55,1.5,1.08,1.8,2.28,1.29,4.65,2.41,7,3.59a27.81,27.81,0,0,1,1.1-4.29c.17-.4,1.34-.45,2.07-.5.2,0,.39.74.68.81,1.12.3,3,1,3.29.59a117,117,0,0,0,6.61-10.95c.29-.56-1.1-2.69-1.2-2.66-1.93.69-4.46,1.1-5.54,2.55-3.32,4.46-6.64,5.56-11.35,2.68-2.36-1.44-4.53-3.19-6.79-4.8,0,.86.41,1.88.07,2.54-1.65,3.22-1.24,5.48,2.48,6.72C1690.81,236.51,1690.81,237.65,1691,238.31Z" transform="translate(-932.69 -149.85)"/><path class="cls-27" d="M1514.63,275.74c3.63-.56,7.31-1.27,6.52,4.59-.09.68,1,2.22,1.44,2.16a13.18,13.18,0,0,0,4.81-1.5c1-.58,1.54-1.91,2.28-2.9,3.66-1.37,5.24-5.54,9.09-6.69.62-.19.59-1,.62-1.62-3.14-1.2-6.26-3.54-9.42.08a2.29,2.29,0,0,1-2.06.55C1521.48,267.32,1518.34,272.21,1514.63,275.74Z" transform="translate(-932.69 -149.85)"/><path class="cls-7" d="M1237.86,240.55c1.25-2.19,2.42-4.44,3.79-6.55,1.67-2.56-.64-7.46,4.65-7.87-.3-1.14-.6-2.29-.91-3.43a55.59,55.59,0,0,0-7.83,2.82c-.83.44-.83,2.45-1.23,3.73-.86,2.77-1.6,5.24-5.56,5.26-1.56,0-3.1,2.46-4.65,3.8,1.69.31,3.39.6,5.08.92C1233.42,239.66,1235.64,240.11,1237.86,240.55Z" transform="translate(-932.69 -149.85)"/><path class="cls-13" d="M1180,263.93c3.14.61,6.28,1.23,9.44,1.72a3.58,3.58,0,0,0,.58-2.14c-1.75-5.34,3.09-4.09,5.3-4.86.77-.27,3,1.92,3.63,3.39,1.47,3.36,3,6.32,7.22,6.33,0-2.33.26-4.68.08-7-.08-1-.81-2.76-1.48-2.87q-8.65-1.54-17.41-2.46c-.78-.08-1.82,1.23-2.55,2.06C1183.17,260,1181.63,262,1180,263.93Z" transform="translate(-932.69 -149.85)"/><path class="cls-28" d="M1643.62,233.92c4.31-4.57,8.18-.56,12.19.62-1.43-2.81-2.52-5.88-4.44-8.31-.86-1.09-4.3-1.83-4.95-1.16-4.06,4.17-9.29,2.71-14,3.55C1634.35,234.17,1638.87,234.28,1643.62,233.92Z" transform="translate(-932.69 -149.85)"/><path class="cls-29" d="M1673.7,252.64c-4.13,1-6.45-1.37-8.3-4.55-1.7,2.71-2,7.5-7.38,3.23-4-3.17-6.67-1.37-6.62,3.51,3.12-2.29,5.19-2.37,7.07,1.85.94,2.12,4,3.28,6.18,4.87C1667.22,258.13,1668,252.88,1673.7,252.64Z" transform="translate(-932.69 -149.85)"/><path class="cls-11" d="M1622.67,221.08c-2.86-3.72-3.66-7.71-1.62-12.08a29.89,29.89,0,0,0-3.59-3c-.74-.45-1.85-.29-2.79-.41,0,1,.07,2,0,3s0,2.18-.55,2.8c-3.72,4.16-2.32,7.95,3.76,9.52A22.49,22.49,0,0,0,1622.67,221.08Z" transform="translate(-932.69 -149.85)"/><path class="cls-8" d="M1766.8,222.68a88.22,88.22,0,0,0-9,3.87c-.46.26-.34,2.43.17,3.35,1,1.89,11.16,4.16,12.94,3.15.2-.11.52-.37.5-.42C1769.92,229.33,1768.37,226,1766.8,222.68Z" transform="translate(-932.69 -149.85)"/><path class="cls-30" d="M1207.92,249.52a42.87,42.87,0,0,0,4.25,2,81.73,81.73,0,0,0,7.94,2.44,13.08,13.08,0,0,0,5.46.43c.9-.19,2.22-2.8,2.07-2.93a18.78,18.78,0,0,0-4.71-3.32c-2.47-1.14-5.12-1.91-7.69-2.83-1.39.9-3,1-4.58,1.5A4,4,0,0,0,1207.92,249.52Z" transform="translate(-932.69 -149.85)"/><path class="cls-31" d="M1207.92,249.52l7.32-4.25c-1.3-1.75-2.29-4-4-5.12-1.54-1.05-3.86-1-5.83-1.37-.08,1.83-.54,3.75-.13,5.47S1207,247.77,1207.92,249.52Z" transform="translate(-932.69 -149.85)"/><path class="cls-16" d="M1235.5,273.66c2.39,2.2,4.79,4,7.65.61.27-.32,1-.67,1.28-.53,5.08,2.54,9-1.32,13.29-2.54,2.18-.61,4.18-1.15,4.44-4.7.42-5.74,2.82-6.55,10.18-4.95-3.54-3.05-9.93-2.33-12.51,1.41-.2.29-.5.78-.39,1,2.62,4.75-1.35,5.1-4.14,6a78.64,78.64,0,0,1-8.69,2.26c-2.51.52-5.08.75-7.62,1.09C1237.83,273.45,1236.67,273.54,1235.5,273.66Z" transform="translate(-932.69 -149.85)"/><path class="cls-32" d="M1539.39,269.78c-6.44-.95-5.85,6.26-9.71,8.31,1.88-.95,3.73-1.94,5.63-2.84.75-.36,2-1,2.32-.74,5.74,4.72,6.89-1,9.28-3.94.23-.29.5-.56.75-.83Z" transform="translate(-932.69 -149.85)"/><path class="cls-33" d="M1931.72,264.53l9.75.75c.78-1.7,1.55-3.4,2.33-5.11-7.32,5.53-13.85,1.12-20.76-1.25-2.54-.87-5.78.18-8.68.54-.33,0-.5,1.31-.75,2C1920.55,257.19,1925.76,263,1931.72,264.53Z" transform="translate(-932.69 -149.85)"/><path class="cls-30" d="M1894.7,261.4q4.36-4.69,8.71-9.4c.71-.77,1.35-1.6,2-2.41-.11-1.41-.21-2.82-.32-4.23a21.56,21.56,0,0,0-4,2.7,22.82,22.82,0,0,0-4.6,5.87C1895.41,256.2,1895.25,258.9,1894.7,261.4Z" transform="translate(-932.69 -149.85)"/><path class="cls-30" d="M1064.56,251.09c1.92,2.34,3.75,4.75,5.77,7,1.54,1.71,3.3,3.22,5,4.82,1.09-3.82-.45-6.42-3.58-8.65-1.18-.84-1.43-2.88-2.48-4a31.57,31.57,0,0,0-4.35-3.38Z" transform="translate(-932.69 -149.85)"/><path class="cls-31" d="M1313.64,274.86l2.65,2.31c.47-1,.69-2.37,1.48-2.85a7.16,7.16,0,0,1,4.32-1.2c1.12.15,1.93,1.95,3.1,2.36,1,.35,4,3.42,3.16-1.44-.11-.58,1.59-1.49,2.46-2.24-1-3.08-1.75-5.48-5.84-2.52C1321.61,271.71,1317.45,273,1313.64,274.86Z" transform="translate(-932.69 -149.85)"/><path class="cls-34" d="M1599.35,269l15.84-3c-2.55-1.13-5-3.06-7.66-3.21C1603.53,262.53,1600.15,264.38,1599.35,269Z" transform="translate(-932.69 -149.85)"/><path class="cls-5" d="M1820.77,268.38l-3.33-4.31-3.53,4.23c2.91,4.28-.54,4.58-3.33,5.54a49,49,0,0,0-5.61,2.71c4.87-1.43,9.8-2.72,14.57-4.43C1820.3,271.84,1820.38,269.67,1820.77,268.38Z" transform="translate(-932.69 -149.85)"/></svg>