<svg id="Layer_1" data-name="Layer 1" xmlns="http://www.w3.org/2000/svg" viewBox="0 0 1191.84 260.04"><defs><style>.cls-1{fill:#61588f;}.cls-2{fill:#a899b5;}.cls-3{fill:#907ba2;}.cls-4{fill:#8f7aa1;}.cls-5{fill:#645d90;}.cls-6{fill:#7a5a8d;}.cls-7{fill:#8e78a0;}.cls-8{fill:#8d779f;}.cls-9{fill:#aa9bb6;}.cls-10{fill:#a798b4;}.cls-11{fill:#8a729d;}.cls-12{fill:#a191af;}.cls-13{fill:#ae9fba;}.cls-14{fill:#9683a7;}.cls-15{fill:#8b749e;}.cls-16{fill:#c9b1ca;}.cls-17{fill:#78558b;}.cls-18{fill:#ece3ec;}.cls-19{fill:#59508f;}</style></defs><path class="cls-1" d="M1824.69,296.36c1.49.91,3,1.75,4.45,2.75,5.26,3.71,11.31,3.3,16.82-1.19,4.42,2.25,8.43,2,12.15-1.61a14.46,14.46,0,0,1,8.29-3.6c3.18-.47,6.17-1.28,6.43-5.22s-2.95-4.26-5.53-5.24a5.67,5.67,0,0,1-2.08-.36c-2.42-1.59-4.75-3.3-7.12-5,2.62-.63,5.26-1.17,7.84-1.92a25.24,25.24,0,0,0,3.64-1.74c-.68-1-1.32-2.07-2-3.06-4-5.52-9.21-10.53-11.57-16.65-3.33-8.7-9-13.47-17.55-14.85-3.55-.57-7.49,1.15-11.23,1.91a1.36,1.36,0,0,0-.51,1.15c4.22,6.41-3.7,9.12-4.6,14.13-.37,2.08-5.11,3.3-7.76,5.07-1.82,1.21-3.45,2.7-5.18,4.05-1.92,1.5-3.67,3.41-5.83,4.39-6,2.75-6.58-.69-6.13-5.6.4-4.38,1.13-9.12-.14-13.11-.65-2-6.45-4.59-8.14-3.66-6.06,3.31-15.41-.72-18.84,8.28-.16.43-2,.79-2.18.55-3.67-5.17-12.73-5-13.22-13.46-.09-1.51-2.28-2.82-3.26-4.38-1.28-2.05-3.3-4.27-3.25-6.38.12-5.25-2.74-7.06-7-8-13-3-25.12-1.34-35.49,7.51-4.83,4.13-10.58,3.55-16.06,4.12-1.39.14-3.85-2.29-4.46-4-1.62-4.64-3.79-7.19-9.28-6.2-2.9.52-4.71.38-6.08-4.61-2.26-8.22-11.42-11.33-19.5-12.66-5.37-.89-11.15.76-16.75,1.1-1.26.08-2.56-.56-3.84-.86-8.88-1.9-13.64,5.11-19.23,9.56-3.15,2.51-1.44,6.58,2.58,7.43,3.11.66.23.92.09,1-3,2.91-7.1,3.71-10.94,4.65A24.73,24.73,0,0,0,1587.6,240a8.2,8.2,0,0,1-3.85,2.93c-7.63,2.86-9.88,10.78-5.19,17.51.52.75,2.68.83,1.34,2.42a2.78,2.78,0,0,1-2.69.53c-3.87-.95-7.06-2.92-8.38-6.86-1.64-4.88-5-7-9.95-7.73-3.93-.54-7.85-1.36-11.76-2-4.64-.79-8.43-.48-10.65,5.33-2.06,5.42-8,2.61-12,2.37-2.22-.14-5.78-.81-7.68-3.4-1.41-4-1.7-9.67-4.53-11.63-3-2.1-8.56-.21-12.81-1-2.84-.55-5.27-3.79-8-4-5.57-.47-11.25.29-16.88.55a8.19,8.19,0,0,0-9-3.27c-5.81,1.45-12,.39-17.59,3.19-2.24,1.13-4.63.42-6.86-.62-7.34-3.43-14.5-2.54-21.32,1.3a10.06,10.06,0,0,1-10.68.12c-5.24-2.79-10.43-3.58-15.54,1-4,3.67-8.36,3.38-12.69-.48-4.6-4.1-9.35-4.22-13.11-.17s-5.88,2.7-8.15-1.12c-3.16-5.33-8.14-7.8-14-8.8-3.34-.56-5.89.35-6.82,3.92-1.16,4.5-3.29,7.8-8.57,7.86a3.49,3.49,0,0,0-3.37,2.27c-1.11,4.38-2.63,8.48-5.8,11.82-.9.95.79,3.16-.54,3s-1.17-2.27-.66-3.67c1.07-2.91.53-5.39-1.3-8-2.52-3.57-.75-6.48,2.59-8.16,5.9-3,11.75-6.08,17.87-8.55a13.6,13.6,0,0,1,13,1.4c7.15,5.44,13.66,3,19.6-.8,5.06-3.24,8.31-3.56,11.69,1.69,1.94,3,5.15,3.83,8.67,4,12.51.49,24.93.85,37.51-.4,9.81-1,20,1.83,29.89,0,5.09-.93,11.26.93,15.13-4.41,6.41,0,12.82,0,19.23.13,12.39.2,24.79.66,37.19.58,3.39,0,8.14-.52,9.87-2.7,3-3.78.31-7.64-3.26-10.62-2.83-2.37-4.85-6-8-7.65-4-2.15-7.86-6.62-13.85-1.75-2.72,2.2-8.38.55-12.61,1.22-3.43.55-7.81,1-9.83,3.2-3.33,3.67-5.15,3.11-7.1-.42-2.28-4.12-4.92-4.17-9.67-4.5-6.38-.45-10.76,3.14-16.23,3.7-1.73-.78-3.41-1.68-5.42-1.33-3.65.63-5.25-1.26-5.68-4.63-.18-1.41-.31-3.47-1.48-3.84-7.55-2.34-10.15-9.17-14.42-14.69-4.68-6.07-12-4.89-18.54-4.13-5.24.6-10.22,1.31-15.32-.85a8.5,8.5,0,0,0-8.77,1.16c-1.13.86-2.34,1.82-3.79,1.79-8.76-.23-12.69-7.58-18-12.67-3.45-3.32-3.13-8-.77-11.91,2.54-4.2,2.24-7.48-1.5-10.57a8.81,8.81,0,0,1-3.19-5.39c-.34-2-1.38-4.05-3.09-4.51-7.47-2-10.87-7.94-15.15-13.62-5.48-7.26-15.95-8-21.92-.8-8.27,10-17.89,8.85-28.18,6.61-4.13-.91-8.33-1.69-12.39-3-6.49-3.65-7.12-11.28-11.16-16.64-2.75-3.63-5.65-5.4-10.11-5.16-4.14.22-8.3,1.26-11.93-2.56-1.58-1.65-4.87-.89-7.39-.2-5.45-1.82-8.79-.17-10.64,5.51-.7,2.17-2.9,4.24-5,5.5-5.1,3.13-4.84,6-2.9,11.38,1.32,3.63-1.27,8.69-2.16,13.1-.21,1.05-1.24,2.41-.87,3,4,6.88-1.48,8.95-5.87,9.61-7.53,1.13-8.28,5.52-6.93,11.26,1,4.32-1,6.33-4.54,7.23a47.44,47.44,0,0,1-9.09,1.08c-8.41.44-10.18,2.9-8.13,11.4.08.34-1.09,1.45-1.52,1.36-3.91-.74-7.77-1.76-11.68-2.53-3.33-.66-6.69-1.86-6,4.24.55,4.52-2,8.29-6.92,9.23s-9.63,4.37-15.24,1.5c-1.46-.74-4.17,1-6.32,1.54-1,.24-2.93.52-3,.26-3-8.23-8.17-3-12.59-2.07-6.85,1.41-14.16,1.78-20.4,4.55-7.47,3.31-8.76-2.37-12.71-5.57a56.23,56.23,0,0,0-17.85-9.57c-2.26-.73-7,2.74-8.9,5.49-1.63,2.42-.94,6.52-1,9.87a39.1,39.1,0,0,0,.88,6.23c-2,.11-4.07.58-6,.26-9.71-1.61-9.65-1.67-12.83,8.44-.35,1.13-2,1.79-2.54,2.93a67.09,67.09,0,0,0-3,8.62c-.31,1.14.12,2.49.22,3.74a33.5,33.5,0,0,1-4.59,0c-4.34-.6-8.66-1.39-13-2a5.32,5.32,0,0,0-2.78.06c-5.37,2.34-5.18,2.38-5.37-4.26-.09-3-1.16-6-1.49-9-.23-2.12-.53-4.5.18-6.41,2.31-6.21-1-12.21-7.88-13.11-4.51-.6-8.08-2.14-9.65-6.87s-5.2-5.91-9.93-6.29c-10.24-.84-17.84,3.92-24.76,10.48-.34.33.32,1.72.51,2.61,4.57,1.54,5.76,3.58,2.95,8.39-7,12-6,14.37,5.56,23.12,3.73,2.83,7,5.76,11.66,7.23,3.92,1.22,3.86,5.36,3.33,9.14-1.35,9.63,2.35,11.47,11.46,12,10.22.58,19.82,1.48,28.91-4.1a2.78,2.78,0,0,1,1.12-.24,7.1,7.1,0,0,1,4.54,1.38,8.53,8.53,0,0,0-3.73-1.35c-2.25-.11-3.9.87-5.77,2.1-5.32,3.5-11.15,5.07-17.47,2.66-6.11-2.33-11.9.69-17.83,1.13-7.8.57-15.56,1.66-23.15-1.17-1.89-.71-3.73-.28-5.6-.05a18.87,18.87,0,0,1-9.72-1.38c-8-3.29-8.84-7.75-2.55-13.71,5.14-4.87,5.59-12.27,1-16.94-4.94-4-9.72-8.31-14.88-12.06-4.91-3.56-10.5-1.82-13.82,3.79a15.44,15.44,0,0,0,1,6.25c1.69,4,.82,6.84-2.76,9.77-5.43,4.46-5.63,12.18-9.64,17.72-2.08,2.88-4.1,5.84-5.91,8.95-2.07,3.56-5.71,4.57-9.76,3L862.16,259c-8.15,10.69-16.24.59-24.06-.59-6.18-.93-9.49.15-13.6,4.82-6.31,7.17-13.82,13.34-21.21,19.45-1.25,1-5,.37-6.74-.76-5.46-3.43-10.54-7.46-15.76-11.27-12.67-1.43-20.73,3.89-22.88,15.45-.7,3.78-2.64,5.38-6.11,4.28-1.76-.55-3.6-.41-5.26-1.18-7.27.49-14.56.83-21.8,1.6-1.23.14-2.42,2-3.34,3.29-1.06,1.48-1.47,3.55-2.75,4.72-1.67,1.53-3.92,2.42-5.92,3.59,2.28,0,4.57,0,6.85.12,14.29.82,28.58,1.9,42.88,2.42,5.16.19,10.37-1.39,15.54-1.3,10.93.18,21.84.87,32.75,1.47,6.09.34,12.17.9,18.25,1.37a1.83,1.83,0,0,0,2,.11c6.26-4.71,14.77-2,21.16-6.57,2.67-1.9,5.9-1.54,8.74.18,2,1.22,4.12,2.19,6.2,3.24,5.78,2.92,7.58,2.44,10.28-3,3.91-7.83,8-9.1,15-4.24a16,16,0,0,0,11,3.1c5.06-.39,10.39-.61,14,4.28,4.45-.08,8.91,0,13.35-.28,6-.33,12-.88,18-1.33,12,2.89,23.92.93,35.77-1.29,4.34-.81,4.35-4.31,4.35-7.69-1.22-3.9-3.85-5.42-8-5.49-6.86-.11-13.68-.72-20.47,1-5.17,1.29-10.37.62-15.43-.77a36.07,36.07,0,0,0-14-.88,10.51,10.51,0,0,1-2.68.26,4.34,4.34,0,0,0,2.8-.5,4.13,4.13,0,0,0,2.5-3.26c.55-6.67,5.49-7.1,9.74-5.6,12.5,4.39,26,4.45,38.28,9.51a4.78,4.78,0,0,0,2.75.55c12.51-2.84,25.22,1.7,37.68-1.09,1.9-.43,3,.42,4.43.85,4.1,1.47,7.78,3.71,12.72,2.74,4.53-.87,3.42,2.73,2,5-2.61,4.22-.91,6.52,3,8.19h0c4,1.77,7.1.67,10.06-2.4,6.48-6.69,14.76-8.39,23.44-6.64,5.85,1.17,10.4.92,14.86-3.6,4.17-4.23,10-5.13,15.84-5.22,9.86-2,17.84-7,25.83-13.27,6.58-5.19,12-13.24,21.82-13.88,6-.39,6.19-5.37,6.68-9.85a9.13,9.13,0,0,1,2.32-2.6c6.63-5.91,6.75-12.2-1-16.65-5.54-3.19-6.71-8.15-8.86-13-.48-1.08-.74-2.43.6-3.09a2.27,2.27,0,0,1,3,1.17c2,4.28,4.38,8,10.07,6.85,6.16-1.24,11-4.33,13.48-10.31,1.92-4.61,5.23-5.6,10.14-5.78a63.81,63.81,0,0,0,22-4.5,27.61,27.61,0,0,1,13.79-2.33c4.15.43,8.51,1,12.46-1.53,2.05-1.32,4-.6,5.81,1,9.13,7.75,19.39,5.38,29.47,2.82,3.42-.87,4-3.94,3.6-7.49-.65-6.09,1.18-7.8,7.29-6.73,3.33.58,6.61-.93,9.83.35,3,.48,6.11.83,8.83,2.38,2.19,1.25,5.33,2.13,4.93,5.28-.42,3.42-3.78,3.09-6.23,3.28-3.07.24-6.11.3-8.9,1.8-9.32,1.74-14.79,8.56-20,15.53-1.82,2.44-2.86,5.54-5.62,7.18-3.36,2-5.54,4.32-4.18,8.65.48,1.52.52,3.6-1.79,3.89a2.83,2.83,0,0,1-3-2.6c-.57-10.41-9.18-10.74-16.12-12.59a14.07,14.07,0,0,1-9.65-7.42c-5.41-10-16.67-13.5-26.91-8.67-6.25,3-11.64,6.4-14.62,13.58-2,4.89-8.67,6.14-13.24,8.69-6,3.38-8.75,7.29-8.4,14,.18,3.53-.8,7.05-1.79,10.48-1.46,8.47-9.69,7.48-14.57,8.27a18.14,18.14,0,0,0-13.07,8.24c-5,7.57-8,16.06-5.75,25.5,1.24,5.29,8.87,9.08,14.32,6.08,7.45-4.1,13.45-1.87,19.82,2.15,8.59,5.43,17.45,10.15,28.19,6,2.89-1.12,3,1.36,3.34,3.17,1.7,8.05,4.55,9.28,11.21,4.74,3.46-2.37,7-3.5,11.34-2.7,6.08,1.1,8.72-.87,8.68-6.91,0-6.73,3.44-10,9.26-11.6a18.45,18.45,0,0,0,7.56-3.67c4.21-3.64,8.64-6.76,14.75-4.53a4.16,4.16,0,0,0,4.07-.73c3.2-2.82,6.25-5.35,10.89-2.57,1,.63,3.11-.37,3.62-1.66,3-7.68,7.16-4.46,11.35-1.37,3.26,1.88,6.59,3.48,9.26,6.37,5,5.38,11.11,3.93,13.52-2.9.35-1,.23-3.36,1.14-2.81,5.82,3.55,11-1.07,16.2-1.65,10.49-1.18,20.85,3.1,31.11-.29,2.52-.84,4.14.09,5,2.47.8,2.15,3.06,2.84,4.35,4.29,5.88,6.6,13.62,7.5,21.59,8.1a4.42,4.42,0,0,0,2.1-.29c6-7.19,13.24-3.09,20.07-2.06,4,.61,7.51,3,11.33,4.29,7.81,2.62,12.47,1.09,17.66-5.49.44-.55.76-1.2,1.22-1.74,1.52-1.78,2.53-5.45,4.41-5.05,2.22.46-.5,3.46.19,5.46s1.57,4.5,3,5.5c5,3.41,3.12,7.4,3.36,12.24.42,8.29-5.2,10.68-9.24,15-.78.82-2,1.17-2.61,2.3a5.59,5.59,0,0,0,0,6.05c1.33,2,3.33,2.3,5.61,2.21,13.62-.51,27.33.75,40.74-3.16,4.32-1.26,8.77.17,13.15,1.71,7.68,2.69,15.58,4,23-1.26,3,.56,6.19.77,9.08,1.75,2.71.92,5.15,2.65,7.7,4,1.33,3.37,4.7,3.75,7.31,3.79,10.36.12,20.74-1.16,31.08.64,3.22.56,6.47-.38,9.41-1.41a9.43,9.43,0,0,1,7.47.21c3.75-1.33,10-1,9.2-6.48-.69-4.91-6.19-6.18-11.07-6.26a5.13,5.13,0,0,1-2-.43c-2.42-.85-5.4-1.07-7.15-2.65-4.82-4.33-9-4-14.16-.47-3.62,2.48-15.52-3.45-18.47-8.45,1-5.66-3-5.42-6.53-5.3-1.58.05-3.11,1.15-4.82,1-1.46-.16-3-.52-3.22-2.2s1.36-1.51,2.39-2c6.8-3.32,14.4-6.35,20.59-.82,5.08,4.54,10.23,4.42,15.74,4.11,9-.51,12.29-4.36,12.25-13.55,0-2.13.57-3.22,2.57-3.35,3.26-.22,6.53-1.88,9.79-.24s6.84,1.72,10.42,1.12a7.26,7.26,0,0,1,3.53,0c11.51,4.05,23.49,1.54,35.19,2.71,2.47.25,5.31-.71,7.36,1.61l7,.15a113.65,113.65,0,0,0,14.35-1.47c7.44-1.27,14.07,1.82,20.6,4.7,8.15,3.59,20.87,1.83,26.45-4.58,2.52-2.89,4.75-3.39,8-1.92,3.47,1.59,6.73,1.76,9.59-1.45,2.38-2.67,5.92-3.18,8.36-1.19,4.85,4,10.34,3.7,15.89,3.87a14.88,14.88,0,0,1,4.79,1.12,75.83,75.83,0,0,1,14.53,4.72c4.76,2.23,10.6.48,14.78-1.71C1814.72,294.53,1819.42,294.55,1824.69,296.36Z" transform="translate(-712.73 -100.24)"/><path class="cls-2" d="M1108.29,281.91c-7.94-.89-14.23,2.39-20.14,7.36-1.74,1.46-5.38,2.52-7.21,1.7-9.6-4.36-17.86,2.09-26.77,2.86-1.2.11-1.85,3.54-3.27,4.88a54.44,54.44,0,0,1-6.65,4.7c2.23,4.31-.78,4.52-3.44,3.79-6.39-1.77-9.23,1.38-12.3,6.49-2.69,4.48-7.14,8-11.18,11.48-.68.6-3.82-.42-4.82-1.57-9.46-10.93-13.13-10.06-21.24,2-3,4.43-5.91,7.72-3.75,12.83.93,2.2,3.25,3.81,4.94,5.7a44.23,44.23,0,0,1,3.11-3.3,5.13,5.13,0,0,1,2.44-1.16c14.58-2.24,29.16-3.15,43.2,2.5,2.67,1.08,4.43,4.31,6.75,6.4,2.79,2.52,5.69,6.87,8.61,6.93,10,.22,19.91-.64,30.08.66,6.84.87,14.2-2.95,21.42-4.15,3.11-.52,6.46.22,9.68.53,1.34.13,3.27,1.39,3.86.88,6.2-5.31,11.6-1.5,16.67,1.61,4.27,2.61,7.54,2.47,11.23-.81,1.5-1.34,3.83-1.74,5.78-2.56a37.17,37.17,0,0,1-12.18-15.76c-.73-1.78-3.88-2.49-5.69-4.05-11.55,2-23.22,3-34.88,4.18a14.81,14.81,0,0,1-9.49-2.07c-1-.61-2.16-1.54-1.62-2.81.63-1.48,2-.87,3-.3a19.42,19.42,0,0,0,4.67,1.61c7.46,2,10.59,1.34,14.2-5.4,2.27-4.24,4.85-5.17,9-4.63a10.33,10.33,0,0,0,7.91-2.48c4.24-3.36,4.46-7.52-.25-10.16-3.09-1.72-4.53-2.94-2.55-6.38,1.48-2.58,1-5.15-1.63-6.8-2.31-1.45-1.79-3.62-1.93-5.7C1121.48,282.15,1118.21,280.26,1108.29,281.91Z" transform="translate(-712.73 -100.24)"/><path class="cls-3" d="M1531.41,327.83c-9-1.35-17.89-3.31-26.9-3.85-6.75-.4-13.6,1.22-20.43,1.6-10.28.57-20.57.87-30.85,1.21-.58,0-1.7-.71-1.66-.9a3.38,3.38,0,0,1,1.1-2.1c4.16-2.62,8.49-5,12.56-7.74,1-.69,2.15-3,1.74-3.75-3.73-6.81-3.45-12.4,4-16.48.44-.24.69-1.79.65-1.81-2.79-1.15-6.17-1.2-7.84-4.38-4.79,5.58-4.49-2.14-4.48-2.36a70.83,70.83,0,0,1,1.56-9.78,12.84,12.84,0,0,1,1.5-2.89c-1.35-.22-3.15-1.11-4-.56-3.39,2.34-7.4,4.53-9.51,7.84-6.08,9.53-9.09,10.88-20.16,8a156.87,156.87,0,0,0-22.15-4.28c-2.43-.27-5.17,2.32-7.77,3.61,3.43,5.67,8.75,2.8,13.4,3a2.75,2.75,0,0,1,.81,0,6.43,6.43,0,0,0-1.39.14c-4.38,1.15-7.67,4.35-11.67,6.24-2,.95-3.37,2.51-3.1,5,0,.47,0,1.18.29,1.35,8.85,4.79,12.17,14.55,19,21.16,3.36,3.23,6.75,4.08,10.93,2.74a22.47,22.47,0,0,1,6.25-1c1.94-.06,3.63,1,5.53.95.19,0-.07.07-.75-.05-1.84-.33-3.76-1.47-5.55-.69-8.49,3.69-17.7.48-26.43,3.05-5.43,1.59-11.1,0-16.21-3.33-9.44-6.16-20-6.15-30.73-4.58-.92.14-2.09.16-2.63.9-7.46,10.14-18.24,4-27.44,5.57-1.76.3-4.06-1.25-5.55-.28-8.26,5.39-17.55,2.07-26.25,3.48-6.46,1.05-12.36,3.09-16,9.15-1.47,6.27,1,10.35,6.8,12.89a46.91,46.91,0,0,0,7.19,3,4.7,4.7,0,0,1,3.65,1.39c2.19-.21,4.64.15,6.51-.73,8.36-3.93,16.51-7.53,26.32-6.34,4.44.54,9.22-1.82,13.87-2.76,3.27-.66,5.74-5.62,9.93-1.92a24.62,24.62,0,0,0,2.27-2.19c.79-.82,1.52-1.68,2.28-2.52,8.27,7.49,8.58-6.17,14.51-5.48,3.1.37,6.55-1.12,9.47-.36,9.09,2.36,18,5.49,27,8.15,10.8,3.19,21.5,1.24,32.42-.07,10.35-1.25,20.73-3.65,31.6.21,4.83,1.71,11.46-1.61,17.27-2.71,3.65-.69,7.27-1.5,10.91-2.26,1.79-.38,4.55-.21,5.21-1.29,3.35-5.54,7.59-4.08,12.48-2.8C1527.63,337.82,1530.44,333.74,1531.41,327.83Z" transform="translate(-712.73 -100.24)"/><path class="cls-4" d="M1282,129.77c9.13,2.23,18.19,5.61,27.42,6.16,4.14.25,9.61-4.34,12.76-8.16,6.37-7.73,14.72-8.57,20.51-.42,1.31,1.85.64,5.1.91,7.7.16,1.55.38,3.11.58,4.66a18.24,18.24,0,0,0,3.23-.61c6.24-2.32,9.45-.38,10.41,6.16a4,4,0,0,0,2.23,2.45c6.7,2.66,6,6.64,3.17,12.11-1.35,2.6-1.81,7.49-.27,9.43,6.41,8.07,12.67,16.75,23.39,19.77,1.23.35,3.76-.47,4.25-1.46,2.37-4.79,5.3-4.49,9.89-3,3.8,1.24,8.33.34,12.53.21,3.52-.11,7.06-.94,10.53-.65,6.49.52,8.24,3.9,7.67,10.37-.17,1.82,3.43,5.78,5,5.65,8.47-.69,10.41,3.32,9.37,10.62-.21,1.48.43,3.08.68,4.63,1.39-.59,2.78-1.16,4.17-1.76,3.24-1.41,6.47-2.84,9.71-4.26-2-3.41-3.63-6.74.25-10.12.41-.35-.14-2.34-.74-3.23-3.45-5.15-8-8.57-14.55-8.46-.22,0-.6,0-.66-.18-1.52-3.11-3-6.22-4.47-9.37-1.21-2.69-8.6.63-5.81-6,.16-.39-.78-1.46-1.41-2-5.37-4.15-16.09-4.53-22.27-1.13-1.09.6-3.77.51-4.1-.11-1-1.9-1.86-6-1.61-6.09,5.18-1.91,1.71-3.49,0-5.16-.33-.32-.45-.9-.82-1.15-6.89-4.72-13.41-9.22-10.5-19.73.51-1.84-4.79-6-8.06-8-3.74-2.32-8.17-3.56-12.36-5.09-3.75-1.37-7.2-4.06-11.72-1.38-1.68,1-4.25,1.21-3.81-3.24.49-5-9.37-9-15.78-6.39-7.82,3.12-15.77,6.21-22.93,10.52-4.08,2.46-7.2,2.81-11.1.93a3.71,3.71,0,0,0-4.67-2c-2.28.7-4.07,0-5.84-1.4a11.77,11.77,0,0,0-13.21-1.21C1280.05,121.53,1282.21,126.16,1282,129.77Z" transform="translate(-712.73 -100.24)"/><path class="cls-5" d="M1120.83,293.44c.17,1.32-.15,3.19.6,3.86,3.89,3.45,3.94,5.8-1.15,8.06-3,1.35-2.76,3.4.16,5,1.65.92,3.17,2.07,4.83,3s3.18,1.35,4.77,2c-2.19,1.22-4.29,3.19-6.59,3.44-2.88.32-6-1.21-8.9-1.08-1.5.06-4,1.82-4.22,3.16-2,9.79-6,11.46-14.75,5.66-5.7-3.79-9.95-3.33-10.14,1.77-.12,3.44,3.15,9.33,6,10.06,6.14,1.59,13,1.16,19.47.51,8.66-.86,17.22-2.71,25.83-4.14,5.65-.51,9.36,1.44,10.66,7.47,1.22,5.62,6.85,6.75,10.8,9.55,3.42.1,7.32,4.35,10.08-1.17,1.12-3.62,3.3-4.4,7.25-4.62,7.25-.4,14.5-1.78,21.73-3,2.29-.39,3-1.5,3.9-3.09a12.13,12.13,0,0,1,4.83-9.45c2.8-2.19,3.89-5.24,4.53-8.58.33-1.74.25-3.28-1.15-4.56-9-8.25-22.21-7.65-31.16,1.6-2.66,2.76-5.05,3.22-8.79,1.8-10.31-3.91-17.87-10.64-24.62-19.29-3.69-4.73-8.17-9.86-15.1-11.31C1125.65,289.27,1122.79,289.7,1120.83,293.44Z" transform="translate(-712.73 -100.24)"/><path class="cls-6" d="M944.59,223.48c-.54,6.28-1.59,11.91-6.29,17.14-7.6,8.44-5.2,15.17,6.21,17,15.45,2.46,30.83,5.69,46.87,1.51,7.65-2,16.32-.06,24.53.16,1.17,0,3.15,1,3.36.6,4.63-7.52,9.85-1.55,14.92-1.06,1.81.18,3.86-2,5.81-3.17-1.41-1.64-2.51-4.19-4.26-4.78-8.22-2.72-16.48-6.26-24.32,1.91-1.33,1.39-6.64-.25-9.7-1.49-3.34-1.36-6.09-3.89-9.46-.1-.55.61-3.2.49-3.59-.12a13.5,13.5,0,0,1-1.94-5.66c-.4-4.06-.3-8.18-.56-12.26s-1.91-6.29-6.38-4.27a2.46,2.46,0,0,1-2.07,0c-5.11-4.43-10.53-8.59-15-13.6-2.31-2.57,3.8-13.27,7.87-15.2a22.44,22.44,0,0,0,3.56-2.66c-1.28-.9-2.52-2.49-3.85-2.58a93.34,93.34,0,0,0-10.42.39c2,6.08-.72,9.91-5.48,13.57-2.14,1.65-4.44,6.11-3.64,8C954,224.69,949.34,223.85,944.59,223.48Z" transform="translate(-712.73 -100.24)"/><path class="cls-7" d="M1474.48,228.17c-7,.73-14.07,2.07-21.1,2.08-19.32,0-38.63-.66-58-.72-5.68,0-9.57-1.65-11.62-7.17-1.82-4.92-5.23-5.29-8.85-2.07-7.79,6.93-15.59,9.05-25.87,4.26-5.81-2.71-13.19-4.22-19.6,1.78-3.26,3.06-8.59,3.8-12.36,6.47-2.26,1.61-5.07,5.36-4.57,7.37,1.27,5,4.9,9.51,2,15.16-.13.25,1.62,2.06,2.65,2.23a69.16,69.16,0,0,0,10.45.95c1.35,0,2.72-1,4.07-1.52a22,22,0,0,0-3.36-1.62,42.22,42.22,0,0,0-4.64-.89c1.24-.67,2.9-1,3.63-2,1.27-1.79,3.08-4.23,2.7-6-1.2-5.58,1.58-5.68,5.43-4.71,4.6,1.17,7.58,1.29,6.22-5.19-.47-2.23,1.57-5,2.46-7.51,3.32,1.4,6.81,2.5,9.87,4.32,1.44.85,2.17,3,3,4.69,4.19,8.32,9.19,8.34,15,.53.69-.92,5.35-.38,6.7,1,6.06,6,12,6.4,17.8.46,4-4.1,8.57-2.5,12.21.13,4.27,3.08,7.46,2.21,11.58-.19,7.14-4.17,14.67-8,22.2-.37.63.64,2,1.53,2.34,1.3,5.53-4.07,12-4.2,18.41-4.63,3.78-.25,7.52-.85,11.28-1.29C1474.55,232.69,1474.51,230.43,1474.48,228.17Z" transform="translate(-712.73 -100.24)"/><path class="cls-8" d="M1516.84,251.08c-1.37,6.24,4.73,6.9,7.51,7.56,4.79,1.14,10.21.11,15.26-.67,1.61-.25,7.31-1,1.88-4.88.67-.87,1.45-2.54,2-2.47,6.24.82,12.46,1.86,18.65,3,.77.15,2.09,1.44,2,1.73-3.16,8,4.85,8.21,8.2,11.38,3.76,3.57,9.29,2.23,12.26-2.26a14.42,14.42,0,0,1,1.21-1.76c1.21-1.28,2.49-2.51,3.74-3.76a38.15,38.15,0,0,1-5.78-1c-1.3-.43-3.38-1.53-3.38-2.33,0-2.71.74-5.43,1.2-8.14,1.47.32,2.92.68,4.39,1a9.33,9.33,0,0,0,2,.18c1.76-9.24,9.14-12.26,16.74-14.56,1-.3,7.74-7.65,5.9,2.25,1,.17,2.68.83,3,.43,1.28-1.59,3.45-4.45,2.94-5.17-3.57-5-.94-5.19,3.29-5.22,1.74,0,3.47-1.37,5.2-2.12a41.18,41.18,0,0,1-4.85-1c-2.49-.79-4.89-1.81-7.33-2.74,2-1.06,4.23-1.85,6-3.23,3.74-3,7.23-6.2,10.82-9.33-5.71-5.54-12.9-4.36-19.41,2.91-2.16,2.4-6.49,3-6,7.53l-1.61-.11c.8-5.86-3-1.67-3.92-1.44-9.38,2.33-18.56,5-23.54,14.66-.81,1.57-3.49,2.1-5.14,3.33-2.68,2-7.91,2.59-4.92,8.16,0,.05-2.62,2.31-3.86,2.16-5.84-.7-11.59-2.48-17.41-2.67-4.14-.13-9.64.32-12.24,2.85C1527.17,249.7,1522.49,251.05,1516.84,251.08Z" transform="translate(-712.73 -100.24)"/><path class="cls-7" d="M1665,295.13c-1.83-1.33-3.57-3.64-5.52-3.83-9.1-.86-18.26-1.05-27.39-1.7-1.72-.12-3.36-1.26-5.08-1.82-2-.64-4.32-2.14-5.84-1.55-5,1.92-9,1.85-13-2.12-.83-.84-3.32-.14-5,0-2.4.24-4.77.68-7.16,1-2.09.29-4.83-.1-6.08,1.08-.91.86-.64,4.5.44,5.67,3.68,4,3,7.1-1,9.89-4.29,3-13.92,2.16-16-1.43-2-3.43-4-5.24-8.44-3.87-1.94.61-4.52-.75-6.8-1.29-1.13-.27-3-1.28-3.21-1-3.76,4.94-8.78,4.89-14.19,4.33-.51-.06-2.32,3.38-1.84,4.43,1.42,3.11,3.16,7.58,5.73,8.36,4.7,1.43,10.09.6,15.2.71,8,.63,16.13,1,24.12,2,4.15.54,7.48.66,9.53-3.66.46-1,1.66-2.57,2-2.45,6.31,2.15,9.28-4.13,14-5.27,4.34-1.07,10.07-.89,13.83,1.2,5.41,3,5.81-.25,7.55-3.39.9-1.63,2.67-2.77,4-4.13.42,1.45.81,2.9,1.28,4.33a22.1,22.1,0,0,0,1,2.16c.74-.43,1.72-.69,2.18-1.33,3.72-5.11,8.74-6,14.69-5.39C1657.59,296.51,1661.35,295.52,1665,295.13Z" transform="translate(-712.73 -100.24)"/><path class="cls-9" d="M1198.19,338.17c-7.46,1.88-15.19,5.95-22.3,5.07-8-1-7.49,2.44-7.65,7.35,11.55-2.53,22.37-5.12,35-1.4,8.88,2.62,20.62,9.53,30.22-1.06.63-.7,3.46-.68,3.56-.38,2.34,6.55,7.15,2.14,10.82,2.57,2.93-.65,6.09,0,8.87-1.64,3.21-1.87,4.62,1.2,6.49,2.64,2.88,2.21,5.48,4.16,9.67,3.48,2.88-.47,5.84.63,8.9,2.05,4.81,2.24,10.66,2.8,15.81-.57-7.08-2.44-13.37-5.65-14.14-14.31,1.45-5.6-3.33-5.94-6.2-5.93-8.62,0-17.34-.9-25.87,1.31-8.14,2.11-11.43.7-16.24-6.9-3.4-3.25-7.06-6.68-11.75-7.08-5.81-.49-12-1.53-16,5.36C1205.21,332.42,1201.53,335.28,1198.19,338.17Z" transform="translate(-712.73 -100.24)"/><path class="cls-10" d="M985.79,292.15c-.23,3.73-1.25,5.19-5.93,5.46-10.42.59-20.75,2.8-31.11,4.35,2.38,1.28,4.63,3.18,7.18,3.74,15.3,3.36,30.65,2.6,46,.26,3.54-.54,7.34,1,11,.74,9.07-.54,18.12-1.51,27.17-2.38a33.54,33.54,0,0,0,4.13-.91c.58-2.71,1.33-5.4,1.69-8.15.45-3.48.59-7,.87-10.51a84.3,84.3,0,0,1-8.9,1.05c-3.54.05-7.09-.4-10.63-.63a75.47,75.47,0,0,1-32.48,1.34C990,285.63,986.33,286.33,985.79,292.15Z" transform="translate(-712.73 -100.24)"/><path class="cls-3" d="M1780.63,292.54c-3.52-2.56-6.56-5.79-11.9-3.86-1.69.61-4.36-1.86-6.68-2.58q-6.1-1.89-12.35-3.28c-.48-.11-1.89,1.27-1.86,1.91.29,6.17-1.86,5.71-6.07,2.81-5.7-3.93-8.27-2.78-11.69,3.25a12.06,12.06,0,0,1-6,5.25c-8.7,2.85-17.13,2.19-24.86-3.41-5.2-3.77-20.23-2.16-27.27,2.65a35.74,35.74,0,0,0,22.43,1.76c3.39-.77,7.72,2.15,11.5,3.72,1.68.7,3.11,3.25,4.52,3.14,8-.58,15.8-1.29,23.73,1.59,1.71.63,6.07-2.81,7.53-5.34,3.67-6.39,8-4,11.62-1.14,7.7,6.15,15.52,7.48,24.22,2.64C1782.49,300,1785.09,297.44,1780.63,292.54Z" transform="translate(-712.73 -100.24)"/><path class="cls-7" d="M1599.56,323.65a40.89,40.89,0,0,1,6.34,2.42c1.66.94,2.95,2.53,4.4,3.84-1.41.81-2.87,1.56-4.22,2.47a24.29,24.29,0,0,0-2.47,2.2c5.43,4.71,11.86,2.1,17.74,2,8.42-.18,17,1.4,25.27-1.73,10-.81,20.13-2.9,30-2.11,11.62.93,22.5.45,32.76-5.2.77-.43,1.11-3.65.4-4.42-3.66-4-8.34-5.24-13.07-2.22-2.13,1.36-2.92,3-4.31-.59-.66-1.67-2.88-2.74-4.39-4.08-7,4.83-14.78,5.52-22.83,3.94-5.41-1.06-9.49,2.22-14.17,3.63-8.85,2.65-17.61,2.78-25.94-2-4.3,5.31-9.11,6.54-15.51,3.21C1606.76,323.55,1602.93,324,1599.56,323.65Z" transform="translate(-712.73 -100.24)"/><path class="cls-5" d="M1625.09,321.81c-.08,7.24,4.92,10.33,14.85,8.21,6.74-1.44,13.14-4.57,19.91-5.8,4.69-.85,9.79-.1,14.62.57,7.17,1,12-1.12,13.56-8.58-.57-.85-1-2.29-1.73-2.45-18.64-4.12-37-1.63-55.16,2.93C1628.84,317.27,1627.09,320.05,1625.09,321.81Z" transform="translate(-712.73 -100.24)"/><path class="cls-2" d="M1282,129.77c1-.56,2.87-1.16,2.85-1.67-.32-8,5.14-6.14,9.63-5.7s8.82,1.08,13.23,1.63c-3.37-4.14-10.14-5.15-10.83-11.76-10.28.87-14.56-11.68-24.78-11-5.21.33-10.43.59-15.64.5-2.14,0-4.31-1.65-6.39-1.5-2.73.2-5.38,1.43-8.07,2.22,4.67,2,9.4,5.74,14,5.6,11.26-.35,13.91,7.46,17.92,15C1275.46,126,1279.28,127.58,1282,129.77Z" transform="translate(-712.73 -100.24)"/><path class="cls-11" d="M917.37,303.57c.3-4.73-.43-7.8-6.61-6.18a22.8,22.8,0,0,1-10.51-.25c-2.34-.54-6.14-2.8-6.1-4.2.14-5.15-1.93-5.18-5.94-4.41-6.83,1.32-13.69,1.8-14.34,11.3-.31,4.64-3.66,4.81-6.16,1.45-6.28-8.42-13.17-8.83-21-2.46a2.59,2.59,0,0,1-1.3.54c-6.2.67-12.76.48-16.38,7.1,8.21-.69,16.4-1.58,24.62-2a54.22,54.22,0,0,1,11.4,1.07c6.59,1.12,12.62,1.67,16.74-5.47.89-1.55,4.88-2.66,6.8-2a66.63,66.63,0,0,0,22,3.74C912.83,301.77,915.1,303,917.37,303.57Z" transform="translate(-712.73 -100.24)"/><path class="cls-2" d="M1867.3,282.25c4.53,4.13,3.16,6.54-2.37,6.91-5.11.34-9.86.15-11.42,6.85-.27,1.16-4.93,1.3-7.55,1.91,2.71.92,5.46,2.67,8.14,2.57,5.93-.22,11.82-2,17.73-2,5.49,0,11,1.73,16.48,2.42,2.69.33,6,1.05,6.15-3.63,0-.19,3.35-.12,5-.52a38.27,38.27,0,0,0,5.06-1.91c-1.33-1.07-2.67-3.07-4-3.06-9.31,0-17-3.59-24.3-9.06C1874.27,281.27,1870.34,282.35,1867.3,282.25Z" transform="translate(-712.73 -100.24)"/><path class="cls-12" d="M1646.62,334.83l-43-.25c-14.57-.35-29.14-.73-43.71-1-3.9-.08-7.8,0-11.71,0-.44,3.53.42,5.82,4.66,5.79,6.93-.05,13.87-.1,20.78.38,6.23.44,12.41,1.57,18.61,2.43.7.1,1.87.75,2,.6,6.29-10,15.42.1,23.32-3.31,6.7-2.89,15.34-1.16,23.09-1.87C1642.68,337.42,1644.62,335.8,1646.62,334.83Z" transform="translate(-712.73 -100.24)"/><path class="cls-3" d="M888.86,260.93c4.74,2.33,9.13,1.16,12-2.71,4.1-5.49,7.23-11.69,11.1-17.36a36.31,36.31,0,0,1,7.11-7.83c4.23-3.37,7-6.44,2-11.37a73,73,0,0,1-5.24-6.45c-1.38,2.37-3.54,4.6-4,7.14-2.45,13-9.87,23.8-15.74,35.23C895.17,259.45,891.36,259.85,888.86,260.93Z" transform="translate(-712.73 -100.24)"/><path class="cls-13" d="M1780.63,292.54l-3.09,9.11c15.61-2.72,31.94,1.05,47.15-5.29-2.83-6.48-9.22-8-14.24-3.31-7.14,6.64-13.38,5.79-20.68-1.53C1788.42,290.17,1783.76,292.12,1780.63,292.54Z" transform="translate(-712.73 -100.24)"/><path class="cls-14" d="M746.54,289.18c2.92,4.5,6.65,7.46,12.19,4.94,2.47-1.12,8.39-1,3.18-6.91-1.34-1.54.92-8.71,3.5-10.6,4.28-3.14,10.16-4.1,15.38-6-11.59-4.07-21.2,1.64-26.57,13.72C753.2,286.64,749.18,287.6,746.54,289.18Z" transform="translate(-712.73 -100.24)"/><path class="cls-15" d="M1158.16,351.76c-3.15-4.89-6.39-9.72-9.43-14.68-3.66-6-6.7-6.64-12-2.34,1.45,1.19,3,2.29,4.32,3.59a6.42,6.42,0,0,1,1,2.26c-10-.55,1.6,5.87-2.34,7.28,2.71.81,5.39,1.74,8.14,2.41,2.47.61,5,.94,7.52,1.4Z" transform="translate(-712.73 -100.24)"/><path class="cls-16" d="M1297.57,356.28c-5.84-1.28-11.67-2.55-17.5-3.85-.68-.15-1.55-.91-1.93-.69-5.76,3.26-10.12.46-14.16-3.27-6.17-5.69-10.86.44-16.15,1.85,2.3.13,4.59.3,6.89.37,1.39,0,3.65-.66,4-.06,4.24,6.41,11.76,3.56,17,6.3,7.65,4,15.22,4,23.18,2.23Z" transform="translate(-712.73 -100.24)"/><path class="cls-6" d="M1198.19,338.17c4.82-3,9.88-5.68,14.41-9.06,6.32-4.72,14.71-3,18.32,4.28,7.21-4,15.56-2.74,23.08-5a28.25,28.25,0,0,1,14.5-1.11c6.81,1.23,15.23,1.95,21.37-4.23-.36-4.63-1.44-9.28.11-13.88a5.49,5.49,0,0,0-.42-4.73c-2.36-4.07-1-7.64,1.38-11.13,3.53-5.09,4.86-10.91,5.39-17a117.8,117.8,0,0,0-9.54-8.24c-.48-.34-4,1.88-4.25,3.23-.92,5.63-1.48,9.91-7,2.43-.71-1-3.82-1-5.28-.33s-2.3,2.7-3,4.32c-.36.88.25,2.16.42,3.26-1.3-.3-3.16-.16-3.8-1-2.79-3.54-4.31-1.66-7.16.35-5.51,3.88-11.81,6.62-17.7,10-5.3,3-11.52,5.39-9.36,13.76.24,1-3.44,4-3.63,3.81-6.78-5.16-10.67,1.67-15.43,3.84-2.83,1.28-4.82,3.9-3.72-1.81a4.45,4.45,0,0,0,0-1.41c-1.26-11.3-.93-10.64-11.36-5.59-3.64,1.76-9.61.18-14-1.38-6.78-2.43-13-6.46-19.67-9.16-2.34-.94-5.48-.08-8.22.21-3.79.4-9.86,2.65-10.85,1.24-2.27-3.25-3.5-8.59-2.54-12.43,1.52-6,5.16-11.54,8-17.21.38-.76,1.71-1.87,2-1.72,6.53,3.75,11-2.57,16.55-3.36,4.67-.66,7.08-3.52,6.87-8.36-4.77-2.71-9.27-6.76-15.35-3.19,1.31,4.17,0,6.44-4.35,8-3.92,1.38-7.28,4.26-11.07,6.1-2.62,1.27-5.62,1.72-8.31,2.87-1.54.65-3.64,1.72-4,3-2.28,7.56-8.9,9.37-15,11.9-2.38,1-4.88,1.66-7.32,2.48,8.87.67,11.22,2.83,12.54,11.53,10-2.14,16,4.06,21.4,10.69,6.42,7.84,12.39,16,23,18.54a2.53,2.53,0,0,1,1.26.61c6.26,6.82,10.41,5,15.21-2.29,2.25-3.42,10.66-7.25,11.54-6.34,3.93,4.09,9.38,2.41,13,5.14.85.64-1,5.44-2.23,8.06C1202.35,331.43,1200.15,334.74,1198.19,338.17Z" transform="translate(-712.73 -100.24)"/><path class="cls-10" d="M1158.38,247.57c3.17,1.28,6.26,2.86,9.54,3.71,1.77.46,3.86-.31,5.81-.52.54-2.5,1.23-5,1.6-7.51,1.83-12.62,6.06-16.55,19-18.42,1.45-.21,3.37-2.84,3.64-4.58,1-6.19,9.57-15.05,16.3-16.06,6.54-1,16,4.09,18.54,10.68,2,5.24,3.29,8.93,10.86,8.58,5-.23,13.35,1.12,13.36,10.27a2.75,2.75,0,0,0,.74,1.95c3.12,2.47,6.33,4.83,9.51,7.23.91-4.1,1.9-8.18,2.7-12.3.24-1.22-.63-3,0-3.74,6.35-7.24,12.76-14.43,19.47-21.33,1.66-1.7,4.47-2.28,6.75-3.37,3.72-1.65,3.42-4.5,2.27-7.6a14.9,14.9,0,0,1,.47-12.16c0-2.63-1.41-6-3.45-2.76-3.52,5.51-7.56,3.14-11,1.91s-4.8-2.54-6.82,2.23c-1.68,4-6.26,6.68-1.87,11.5.11.12-.79,1.68-1.27,1.72-6.15.44-12.35,1.28-18.44.79-2.5-.2-4.64-3.55-7.16-5.11-1.87-1.17-5.59-2.9-5.94-2.44-5.51,7.22-12.82,3.93-19.58,3.82-1.64,0-4-.54-4.8.32-5.91,6.55-14.62,3.86-21.55,6.86-1,.45-2.9,1-3.36.47-6.79-7.18-9.25,2.59-13.89,3.59-.65.14-1,2.22-1.24,3.46-.59,3.81-8.17,10-11.68,8.9-1.3-.41-2.34-2.47-3-4-3.52-7.8-9.22-9.75-13.35-4.06-1.26,1.73-.29,5.14-.14,7.77,0,.47,1.48.84,1.53,1.33.83,8.05,4.81,13.22,12.78,15.61,1.06.32,2.07,4.61,1.29,6.15s-3.77,2.13-5.87,2.91a25.25,25.25,0,0,1-4.19.82Z" transform="translate(-712.73 -100.24)"/><path class="cls-7" d="M1296.33,276.31c-4.22,8.13-10.14,15.88-12.11,24.52-1.54,6.74,1.84,14.59,3,21.94,5.63,2.79,8.55-1.74,12.12-4.48,4.69-18,25.18-23,40-9.7a69.81,69.81,0,0,0,13.49-3c3.16-1,5.56-2.64,3.83-6.57a7.34,7.34,0,0,0-3.59-3.2c-2.3-1.1-4-2.78-2.84-5.55,1.13-2.59,3.6-2.9,6-2.38,8,1.75,16.09,3.54,23.55,7.11,5.77,2.77,11,1.27,16.1-1.46,1.62-.86,2.51-2.11,1.65-4-.52-.48-1.22-1.47-1.54-1.36-9,3.06-13.2-4.52-19-8.56a5,5,0,0,1-2.1-2.35c-1.47-6.24-5.32-7.14-11-4.09-2.92,1.57-7.29.73-11,.45-1.92-.15-4.8-2.62-5.49-2-7.38,6.43-14.86.69-22.23.62a19.53,19.53,0,0,0-2.4.25c.51,1,1,2,1.51,3-.77,0-1.78.44-2.26.1-.94-.67-1.89-2.65-2.28-2.51a31.81,31.81,0,0,0-6.7,3.29,3.36,3.36,0,0,0-1,2.82,19.66,19.66,0,0,0,1.6,4.21c-2.28-.33-4.78-.2-6.8-1.11C1303.25,280.61,1299.85,278.33,1296.33,276.31Z" transform="translate(-712.73 -100.24)"/><path class="cls-17" d="M985.79,292.15c3.44-.53,6.87-1.08,10.31-1.59,10.44-1.54,22.33,5.35,31.17-5.39-2-.5-4.11-1.42-6.17-1.44-11.69-.08-23.39.37-35.06-.05-5-.17-10-1.88-14.91-3.14-8.4-2.15-16.63-5.3-25.15-6.49-6-.84-12.43.84-18.65,1.54a6.16,6.16,0,0,0,.07,2.87,44.46,44.46,0,0,0,2.52,4.77c-1.89-.37-3.8-1.07-5.68-1a33.4,33.4,0,0,0-6.11,1.38c1.36,1.35,2.54,3.59,4.12,3.91,13.79,2.83,27.46,6.34,41.89,4.47C971.23,291.07,978.57,292,985.79,292.15Z" transform="translate(-712.73 -100.24)"/><path class="cls-18" d="M1397.6,289.5c-7,3.36-13.58,4.66-21.18.17-6.4-3.78-14-5.61-21.19-7.86-1.32-.41-3.26,1.5-5,2.06-2.91.95-5.89,1.67-8.85,2.49,1.49,2.6,4.26,5.22,4.21,7.78-.16,8.19,4,6.92,9,5,12.28,4.27,25.05,6,37.9,7.28,2.54.25,5.33.43,6.28-3,6.83-4.13,13.49-8.62,22-8.57.64,0,1.29-1.21,1.94-1.87-.72-.71-1.39-2-2.17-2-7.24-.71-14.5-1.21-21.75-1.77A2.65,2.65,0,0,1,1397.6,289.5Z" transform="translate(-712.73 -100.24)"/><path class="cls-7" d="M1298.92,182.4c-6.43,3.37-7.24,6.09-4.33,12.64,1,2.18,1.09,4.74,1.59,7.12,5.09-.48,10.25-.63,15.24-1.61,2-.41,5.4-2.8,5.27-4-.31-2.86-1.59-6.62-3.78-8.06C1308.72,185.76,1303.64,184.36,1298.92,182.4Z" transform="translate(-712.73 -100.24)"/><path class="cls-19" d="M1398.76,303.47c-11.27-1.59-22.54-3.32-33.84-4.68-3.38-.4-6.89.22-10.34.37a50.82,50.82,0,0,1-6.52,4c-3,1.28-6.19,2.06-9.31,3.05-4.91-3-10.23-2.31-15-.39a174.75,174.75,0,0,1-21.37,7.19,9.84,9.84,0,0,0-4.54,3.22l-10.59,6.57c-5.22.6-10.52,2-15.6,1.46-2.84-.32-5.35-3.89-7.94-6.08a23,23,0,0,1-2.32-2.68c-.77.78-1.84,1.43-2.27,2.37-3.22,7-8.07,10.19-16.08,7.93-7.85-2.2-11,.49-12.13,7.63,4.81,3.69,9.6,7.42,14.48,11a2.07,2.07,0,0,0,2-.36c6.61-7.33,15.57-3.07,23.33-4.45,4-.71,8.48,1.48,12.74,2.36,6.17-2,12.22-4.86,18.53-5.63,7-.86,13.83.18,21.19-2.54,6.73-2.49,15.35-.38,23.06.41,4.68.49,8.37.79,10.33-4.6a5.94,5.94,0,0,1,4.23-3c11.64-1.13,22.92-.64,31.91,8.5.58.59,2.28.2,3.43.08,7.25-.73,15-3.5,21.62-1.79,9.16,2.38,15.85-2.43,23.59-4.1a10,10,0,0,0,4.09-2.49c.59-.52.59-1.72.85-2.6-.85-.08-2.13-.55-2.47-.18-2.76,3.05-5.18.71-7.82-.14-3.15-1-6.15-2.62-9.52.65-2.4,2.34-12.46-2.45-13.1-7.06C1412.11,308.41,1406.7,304.93,1398.76,303.47Z" transform="translate(-712.73 -100.24)"/><path class="cls-18" d="M1297.85,316.19c5.45-1,11-1.7,16.32-3.06,8.25-2.08,16.39-4.62,24.58-7-.92-1.93-1.36-4.95-2.85-5.62-11.87-5.35-23.57-2.4-34.73,2.29C1295.25,305.33,1298.14,311.49,1297.85,316.19Z" transform="translate(-712.73 -100.24)"/></svg>