<svg id="Layer_1" data-name="Layer 1" xmlns="http://www.w3.org/2000/svg" viewBox="0 0 1104.62 143.71"><defs><style>.cls-1{fill:#d58aa4;}.cls-2{fill:#73508a;}.cls-3{fill:#b5b5d4;}.cls-4{fill:#ba80b3;}.cls-5{fill:#a979b2;}.cls-6{fill:#b5719d;}</style></defs><path class="cls-1" d="M1420.26,267.77c-2.34-.26-4.69-.5-7-.8s-5.86-3.28-5,2.56c0,.33-.49.75-.76,1.13a8.75,8.75,0,0,1-1.64-1.35c-4.25-5.87-5.49-5.89-12.2-3.25-1,.4-3.94-3.84-5.81-6.08a13.65,13.65,0,0,1-1.5-3.28c-1.09.62-2.16,1.28-3.29,1.83-3.18,1.56-6.23,3.69-9.6,4.48-7.62,1.79-15.23-.2-22.63-1.81-1.29-.28-2.21-4.68-2.21-7.18,0-1,3-3,4.48-2.87,3.57.41,7.74-1,10.66,2.91.46.61,3.85-1,5.89-1.56-.78-1.66-1.12-4.09-2.42-4.84-5.14-2.94-9.26-6.22-8.51-12.93.06-.52-.38-1.56-.67-1.59-3.59-.43-8.77-2.39-10.53-.75-8.24,7.68-16.17,6.66-25.33,2.17-3.25-1.6-7.92-1.47-11.64-.68-4.26.9-9.86,2.39-11.77,5.52s-7.57,3.5-6.18,9.19c.61,2.48-1.94,5.33-5.75,3a4.27,4.27,0,0,0-2.77-.43c-3.33.67-4.78-.28-4.09-3.88.15-.81-.68-1.8-1.06-2.71-.28.78-.33,1.82-.87,2.27a20.41,20.41,0,0,1-4.36,2.84c-2.07,1-4.28,1.65-6.42,2.45-2.22,3.16-1.87,6.51,1,8.77,1.19.92,2.43,1.7,3,3.17,1.32,3.09.54,4.64-2.83,5.15-1.78.27-3.41.45-2,2.87,3.64-.06,7.37.35,10.9-.3,4.25-.79,7.58-1,11.76,1.65,2.78,1.75,7.86-.09,11.9-.44a12,12,0,0,0,2.79-.95c3.07-1.12,6-2.7,9.41-.41.73.48,3.15-1.79,4.88-2.56,2.7-1.21,5.46-2.29,8.25-3.26.56-.2,1.94.23,2,.55.54,2.8,1.92,3.37,4.85,3.73,2.18.26,3.74,1.47,5.6-.68.2-.24,2.51,1.14,3.7,2,5.25,3.66,7.7,3.27,11.38-1.81.2-.28,1.44-.19,1.92.13,6.55,4.43,13.12,5.35,19.91.51.19-.13,1.22.46,1.47.92,2.45,4.51,4.58,9.22,7.39,13.49.67,1,3.56,1,5.35.79,6.91-.86,14.28-.83,20.47-3.47a22.6,22.6,0,0,1,10.53-2c2.12.08,4.22-2,6.46-2.48,10.77-2.31,21.2-6.22,32.61-5.31,7,.56,14.19-.29,21.28-.62.81,0,1.58-.85,2.37-1.31,3.21-1.85,5.94-3.86,10.06-.76,2.14,1.62,6.14.68,9.27,1.13,4.42.64,8.79,1.86,13.22,2.12,2.22.14,4.52-1.29,6.79-2,5.12-.15,10.23-.32,15.34-.76,8-.68,16.1.37,24.15-.22a23.82,23.82,0,0,1,7,1c4.89,1.1,9.8,1.69,14.56-.65.16-2.94-2.78-4.24-4.2-4.22-4,.06-5.07-2.07-5.24-5.11-.18-3.28-3-4.69-4.34-7.12l0,0c-1.37-3.69-4.86-5.8-6.85-9.12-1.22-2-5.17-.38-6.4,2.4-1.74.53-3.47,1.08-5.22,1.59a26.89,26.89,0,0,0-3,.8c-.54.22-.88,1.11-1.38,1.18-9.26,1.24-16.79,8.49-26.65,7.58-5.75-1.49-10.87.33-15.84,3-1.66.77-3.4,2.29-5,2.14-3.07-.29-6-1.58-9.09-2.31-1-.24-2.69-.45-3.07.06-2.41,3.28-9.9,3.77-12.1.19-2.71-4.4-6.48-3.81-9.07-1.41-4.31,4-8.68,3.07-13.39,2.1-1.35-.43-2.07.7-2.77,1.38-2,1.94-4,2.62-6.66,1.37-2.83-1.36-4,2.34-6.51,2.32a6.21,6.21,0,0,0-2.94,1.43,15.6,15.6,0,0,1-2.28,2.39c-1.21.81-2.36.87-3.11-.54-.82-1.56-.62-3.9-2.93-4.29-1.91-.32-3.39,1.27-5.18,1.62A1.37,1.37,0,0,0,1420.26,267.77Z" transform="translate(-872.62 -186.81)"/><path class="cls-1" d="M1378.67,254.53c-8.31.69-16.64,1.29-24.94,2.13-3.67.37-7.56.62-10.88,2-4.81,2-7.9-1.55-11.76-2.5-.28-.07-.21-1.27-.45-1.89a8,8,0,0,0-1.37-2.83,8.28,8.28,0,0,0-2.71-1.2,25.67,25.67,0,0,1,4.35-1.61c4.38-.77,8.48-1.47,12-5,1.72-1.71,5.65-1.1,8.51-1.81,1.29-.32,3.09-1.09,3.42-2.07a5,5,0,0,0-.79-4.36c-.71-.69-2.79.07-4.26.07s-3.08.27-4.29-.3c-4.09-1.93-6.28.18-8.16,3.33-1.1,2.34-3.76.52-5.29,2-2.25,2.19-3.09-.7-4.45-1.5-3.27-1.94-6.73-1.66-10.23-1.11a2.55,2.55,0,0,0-1.93,2.08c-.74,2.52-2.44,3.46-5,3.6-5,.28-5.83,1.47-5,6.34.23,1.36.52,2.69.87,4,1.26,4.76,1.27,4.79,6.19,5.27,1.54.16,3.32.29,3.46,2.15.42,5.71,4.69,6,8.81,6.53,4.32-.31,8.78,0,12.92-1.06,7.7-1.88,15.1,3.68,23.15-.26,4.61-2.26,10.83-1,16.11-2.27a11.12,11.12,0,0,1,9.94,2.13c.48.35,1.57-.06,2.35-.23,3-.64,5.94-1.75,8.93-1.82,1.62,0,3.46,1.45,4.9,2.63,5,4.13,11.56,1.71,16.91,3.88,5.82,2.36,11.83,4.85,16.81,8.55,5.3,3.94,10.42,4.83,16.07.75.94-.68,2.56-.4,3.86-.6a23.28,23.28,0,0,0,5-.86c5.2-2,10-5.05,16.15-3.23,5.38,1.57,8.45-1.06,9.09-6.55a1.56,1.56,0,0,1,1.17-1c6.1.34,12.18,1,18.27,1.12,10.7.21,21.41.11,32.12.11a5.27,5.27,0,0,0,1.42-.44c.62-.5,1.11-1.21.77-1.92-1.65-3.48.1-5.86,2.42-8.16,1.25-1.22,2.6-2.56.66-4.33-2-.75-4.46-2.59-5.93-2-2,.8-3.33,3.42-4.87,5.33-1.22,1.51-2.33,3.11-3.48,4.67-3.3-.93-6.8,1.31-10.18-.93-.87-.58-3.4,1.1-3.57,2.87-.33,3.52-1.69,2.55-3.42,1.12-2.72-1-5.46-1.9-8.14-3-1.49-.59-3.22-1.08-4.24-2.18-2.43-2.64-4.39-5.81-8.73-3.11-.38.24-1.7-.44-2.17-1-3.58-4.56-8.31-3.91-13.19-3.25-1.55.21-3.22-.5-4.84-.79a7.37,7.37,0,0,0-6-1.43c-3.65.45-5.66,2.9-5.2,6.9.19,1.69-.16,2-1.69,2.48-2.74.79-5.58,1.36-7.76,3.66-.85.9-2.74,1.06-4.24.34a6.51,6.51,0,0,0-6.29.31c-1.65.86-3.83,1.87-5.65-.14-4.22-1.65-8-4.14-13.1-3.43-4.5.64-9.19,0-13.79-.27-.83-.05-1.61-1-2.42-1.6-2.66-2.14-4.24-5.07-5.91-7.95-2-3.48-3.5-4.19-6.87-2.71-2.51,1.1-5.57,1-7.21,4.27C1384,254.23,1381,254.55,1378.67,254.53Z" transform="translate(-872.62 -186.81)"/><path class="cls-1" d="M1834.14,308.62c-1.65-.45-3.21,0-4.8.39a5.84,5.84,0,0,1-6.11-1.84c-4.09-4.65-5.88-4.89-11.77-1.66l-5.1,2.49c-4.61.19-8.86-.65-12.25-4.12-3.18-3.26-7.47-3.65-11.61-4.33a3.38,3.38,0,0,0-4,2.6,26.89,26.89,0,0,0-1.22,5.75,4.29,4.29,0,0,0-2-.34c-5.06.19-10.1.22-15-1.24a3,3,0,0,0-2.49.41,4.63,4.63,0,0,0-.7.36l-2.67-3.47-3.54,4.24c2.91,4.27-.54,4.58-3.33,5.54a19.19,19.19,0,0,0-2.67,1.18c-1.2-.21-2.18-1.16-3.44-.83-3.45,1.37-7.1,1.06-10.7,1.28h-.07a5.93,5.93,0,0,0-7.14-2.67,26.37,26.37,0,0,1-16.37.75c-2.51-.66-4.77,1-7,1.9a1.19,1.19,0,0,0-.78,1.22c-3.91-.13-7.86.36-11.67-1a3,3,0,0,0-2.42.62c-5.31,2.9-10.79,2.62-16.28.76a10.77,10.77,0,0,0-7.11,0,4.2,4.2,0,0,0-.55-.57c-1.59-1.29-11.16-2.06-12.66-.71-1.83,1.65-3.92,2-6.18,2.2-1.41.14-2.82.37-3.21,1.69-2.37-2.58-5.6-2.19-8.44-1.51-3.93,1-7.58,1.06-11.25-.65a5.2,5.2,0,0,0-4.44-.27c-4.54-.14-9.11,0-13.61-.46a199.61,199.61,0,0,0-45,.62c-.76.09-1.43.85-2.14,1.3,8.11.47,16.21,1.06,24.32,1.35,5.7.21,11.42,0,17.13,0,5.88,0,11.8-.14,17.64.41a43.1,43.1,0,0,1,11.69,2.91c3.56,1.41,6.6,4.22,10.2-.05.78-.93,3-.62,4.61-.88h0l9,.07c8.66-1.19,17.22-1.65,25.77,1.16,2,.66,4.6-.57,6.93-.69,6.54-.34,13.09-.45,19.61-.89,1.35-.09,2.63-1.22,3.95-1.87h0l5.19.9h0c5,.53,10.07,1.17,15.12,1.58s9.83.57,14.75.81c1.23.06,2.73.48,3.63-.06,4.92-2.95,9.59-6.35,14.58-9.18a16.51,16.51,0,0,1,7.21-1.95c4.1-.19,8.23.24,12.34.41,3.36,8.27,13.28,6.8,18.48,12.36a2.15,2.15,0,0,0,1.39.38c8.41.12,16.83.4,25.23.25,4-.07,7.93-1,11.9-1.5,3.22-3,3-7.28,3.59-11.1C1839,309.82,1836.32,309.22,1834.14,308.62Z" transform="translate(-872.62 -186.81)"/><path class="cls-2" d="M1650.21,228.28c-1.72-2.21-3.33-4.5-5.22-6.56-.64-.69-1.93-.87-3-1.09-2.62-.56-5.28-.95-7.91-1.5-3-.63-5.91-1.55-8.92-2-2.35-.33-4-.22-4.24-3.61-.28-4.76-6.94-10.16-12.13-6.69-4.68,3.12-6.36-2.13-9.47-3.25-6-2.18-12-3.76-18.17-1.44-1.23.46-2.24,2.2-2.81,3.58-1.89,4.53-5.58,5.29-9.67,3-6.4-3.61-12.17-8.92-20.43-8.3-3.67.28-7.67.52-11-.65-2.42-.85-4.14-4-6-6.23-1.5-1.89-2.3-5.27-4.08-5.8a29.62,29.62,0,0,0-11.39-.73c-4.23.46-8.38,1.81-12.52,3-.74.21-1.21,1.29-1.85,1.92-1.36,1.33-2.57,3.43-4.17,3.8-5.65,1.34-6.38,5.43-6.58,10.07,0,.37.13.85,0,1.09-2.51,3.43-4.1,6.33-.94,10.88,1.92,2.76-3.87,5.81-9.35,4.88-1.69-.29-4.9.28-5.19,1.17-1.21,3.73-4.5,3.16-7,4.41a8.61,8.61,0,0,0-3.08,3.67c-2.28,4.23-4.07,8.39-10.6,6.41-1.65-.5-4.65,2.65-6.69,4.51-1.19,1.07-1.39,3.29-2.62,4.25-.76.59-3.75,0-3.82-.43-.86-4.76-4.72-4.27-8-5.13-.88-.23-1.79-1.89-2-3-.77-5-3.35-7-7-5.12a13.8,13.8,0,0,1-1.15,1.87c-4.26,4.17-4.35,9.34-3.45,14.7.3,1.81,1.56,2.7,3.27,3.17a14.32,14.32,0,0,1,5.52,2.55c-8.31.75-16.63,1.77-22.39,9.15a3.39,3.39,0,0,1-3.92,1.46,3.12,3.12,0,0,1-2.09-3.21,3.37,3.37,0,0,1,2.61-3.62c1.29-.42,2.62-.58,3.64-1.72,2.69-3,2.61-6.42-.41-10.63-1.27-1.48-2-3.09-1.29-5.08.35-.92-.12-1.58-.56-2.36-.67-1.2-1.28-2.41-.45-4a1.74,1.74,0,0,0-1.26-2.57c-4.35-.55-7.35-3.83-11.1-5.59-.86-.4.18-1.75-.82-2.25-6.34-2.58-9.07-1.66-11.86,3.76-.19.37-1.6.21-2.44.15-3.82-.27-7.66-.87-11.46-.65-.71,0-1,3.37-1.93,4.93-1.22,2.07-3,3.83-4.28,5.85a10.38,10.38,0,0,0-1.68,4c-.42,2.9.54,6.33-3.89,7.11a4.34,4.34,0,0,0-2.39,1.71c-4.13,5.6-7.65,1.81-11.75-.27-5.06-2.57-10.57-4.25-15.87-6.35-2.1-.83-4.15-1.83-6.26-2.63-6.14-2.31-9.31,1.51-12.23,5.91a3.56,3.56,0,0,1-1.81,1.08q-8.07,2.79-16.18,5.46a5.9,5.9,0,0,1-2.84.49c-3.9-.82-7.75-1.87-11.64-2.75-.36-.08-.85.42-1.28.66a9.58,9.58,0,0,0-1.62,2c-1.44,2.31-1,3.41,1.57,4.37,1.51.57,4,.05,4.33,1.95.31,2.12-2.3,2.63-3.75,3.55a9,9,0,0,0-3.62,3.55c-1,3.29-2.8,5.43-6.69,5.17-2.1-.14-3.67,1.08-5.06,2.7-3.45,4-5,4-8.6.16-1.94-2-4.82-1.9-7.5.88a6.68,6.68,0,0,1-5.93,2.36c-.7-.08-1.66,0-1.79-.95-.09-.67.63-1,1.17-1.29a3.91,3.91,0,0,1,1.36-.6c6.37-.69,11.61-5,18-5.55a4.44,4.44,0,0,0,4.35-3.35c1.21-3.66,4-5.62,7.81-5.95,1.87-.16,3.08-.9,3.19-2.92-.42-2.63-2.56-3.15-4.61-3.77a5,5,0,0,0-3.08-.07c-2.44.59-4.12-.39-5.31-2.46-.25-.43.18,0-.17-.3a11.17,11.17,0,0,1-3.69-8.59c-4.83-5.26-8-6-13.12-2.63-.93.6-1.13,2.27-1.73,3.41s-1.32,2.25-2,3.38c-1-.67-1.92-1.36-2.9-2-2.45-1.64-3-6.63-7.68-4.43-.29.14-1.29-.51-1.45-1-1.27-3.62-3-5.67-7-2.87-.34.23-1.42-.62-2.17-.93-2-.87-4.11-1.71-6.17-2.57-3.08,2.91-3.11,3.92.24,6.28,3.07,2.17,5.82,4.72,8.68,7.11,3.19,2.67,3,4.62-.22,7.3-2.14,1.8-4.37,3.08-7.34,2.83-2.28-.19-4.21,1.49-6.49,1.53a19.79,19.79,0,0,0-3.87,8.26,5.7,5.7,0,0,1-4.07,4.74c-3.48,1.29-7.14,2.08-10.41,4-1.6.94-3.12.24-4.31-1.11-1.88-1.55-4.27-1.64-7.39-2.16,4.2-1.43,5.51-4.25,6.32-7.44A5.16,5.16,0,0,1,1183,262a6.71,6.71,0,0,0,3-1.53,5.67,5.67,0,0,1,3.47-1.26c3.33,0,4.94-1.92,5.7-4.87a8.85,8.85,0,0,0-1.63-6.35,10.17,10.17,0,0,1-2-6.54c0-4.24,1.56-6.85,5.58-8.73,1.3-.6,3.05-.95,2.7-3s-1.79-2-3.4-2c-1.18,0-2.54-.26-3-1.78-4.3.4-8.94-.08-12.81,1.42-4.71,1.82-8.48,1.48-12.45-1.11-.61-.4-1.59-1-2.06-.74-4.18,2-7.84-.27-11.77-1-4.56-.86-9.32,3.21-10.46,7.89-.15.62-1,1.2-1.59,1.56-3.16,1.8-6.33,3.58-9.59,5.2-.44.22-1.35-.56-2.07-.8-2-.69-4.52-2.41-6-1.78-4.39,1.85-9.59,2.61-9.77,9.87-.15,5.8-5.55,8.43-12.26,8.13a5.24,5.24,0,0,0-2.2.28c-3.77,1.56-6.57,1.76-9.55-2.33-2.63-3.62-9.89-.86-11.55,3.43a7.8,7.8,0,0,1-4.07,3.84c-2.77,1.11-9.88-2.88-11.07-5.5-.37-.81-1.65-1.83-2.37-1.74-4.7.62-10.52-1.84-13.06,5-.74,2-3,4.26-4.54-.11-.33-.95-1.8-1.45-2.59-2.3-.62-.68-.81-1.82-1.51-2.33-1.75-1.26-3.77-2.15-5.51-3.43a23.91,23.91,0,0,1-3.2-3.31c-2.87-3.16-5.2-7.61-8.77-9.08-2.79-1.15-7.1,1.42-10.75,2.28a11.78,11.78,0,0,1-2.15.13c-2.21,1.22-2.54,3.11-1.22,5a31,31,0,0,1,3.16,6.69c.42,1.06,1.86,2.32.36,3.24s-3.25,1.61-4.79,0c-2.34-2.39-5.06-2.52-8-1.55-2.28-.42-4.68-1.5-6.81-1.11-2.87.54-5.53,2.22-8.28,3.41,0,2,1.64,2.53,3,3.43,3.45,2.27,6.8,4.43,6.06,9.65-.41,2.83.64,5.72,4.28,6.45.79.16,1.94.59,1.46,1.7-.55,1.26-2.24,1.47-2.83.64-2.68-3.75-5.91-2-9.1-1.3a5.67,5.67,0,0,1-4-.73,11.6,11.6,0,0,0-6.16-1.27c-3.08.17-5.42,1.43-6.24,4.7-.38,1.51-.88,3-3,2.29-2.93,1.46-5.74,3.34-8.84,4.26-2.57.77-5.49.38-8.24.6-.93.08-2.21.2-2.66.8-2.2,2.93-4.89,2.41-7.43-.71-1.92-2.36-4.8-3.94-7.25-5.86a9.89,9.89,0,0,0-5.81,4.11c-2.53,3.85-3.85,4.31-8.47,2.7l-.77-.73c-2.18-.89-4.11.17-6.08.83s-3.77,1.81-6.25,1.63-2.68,2.61-2.46,4.52a6.09,6.09,0,0,0,10,4.2c2.73-2.3,4.9-2.84,7.85-.45,1.8,1.46,4.33.81,6.55.75a4.82,4.82,0,0,1,5.18,3.33c1.34,3.3,5.14,5.18,8.25,3.48,6.51-3.55,13.92-1.46,20.55-3.89,2.54-.93,4.09,2.14,6.48,2.34a20.7,20.7,0,0,1,5,.56c4.52,1.33,8.6-.64,12.49-2.15,3.31-1.28,5.81-1.51,8.62.73a8.83,8.83,0,0,0,9.82.27c2.91-2,2.18-4.76,1.29-7.4-.66-1.92-1.52-3.75.14-5.55.78-.89,1.65-2,2.18.12.41,1.63,1.58,2.38,2.72,3.45,2.2,2.07,2.82,5.21,3.64,8.1.6.81,1.49.78,2.36.8a75.32,75.32,0,0,1,17.62,2.14,3.81,3.81,0,0,0,5-2.56,6.92,6.92,0,0,0,.74-2.49c-.09-4.94,1.32-9.52,2.69-14.22,1.47-5.07,3.29-6,7.8-3.47a25.41,25.41,0,0,0,11.84,3c2.89.1,5.4.45,7.62,2.87,1.68,1.83,4.55,1,6.86.57a28.17,28.17,0,0,0,2.81-.89c2.27-2.83,5.1-3.52,8.24-1.73,1.28.73,3.77-.66,3.64,1s-2.68,1.27-4.27,1.26a7.2,7.2,0,0,0-5.41,2c-3,2.9-7.17,3.24-11,4.07a6.18,6.18,0,0,0-3.91,1.91c-.88,1.08-1.42,2.8-.61,3.4,2.63,1.93,3.76,5,6.7,6.93,6.49,4.3,12.58,1.24,18.7.4,4.94-.68,9.72-1.65,14.8-1.19,4.83.43,9.67-.56,14.44-1.55,1.7-1.87,3.9-3.23,5.38-5.36a3.49,3.49,0,0,1,3.81-1.7,1.5,1.5,0,0,0,1.09,0c4.28-2.93,7.21.42,10.45,2.21s2,5.31,3.35,7.79c1.11,2.84,3.11,3.64,5.94,2.64a5.54,5.54,0,0,1,2.93-.43c5.94,1.21,12.12,1.1,17.93,3.09a10.45,10.45,0,0,1,2.87,1.71,3.31,3.31,0,0,0,3.51-.29c3.14-2,6.42-2.92,10-1.24,1.33.61,2.4-.16,3.46-.82,2.49-1.57,4.84-3.26,8-3.51,2.17-.17,2.69-1.9,2-3.91-.8-2.36-.13-3.35,2.54-3.41,2.23-.06,4.43-.71,6.51.6a7.57,7.57,0,0,0,6.36,1.17c4.54-.9,9-.84,12.47,2.89a3.34,3.34,0,0,0,3.07,1.06c3.19-.61,5.5.74,7.64,2.9,2.38,2.41,5.79,2.73,8.76,3.91a17.5,17.5,0,0,1,3.75,1.6c3.31,1.18,5.09-1.57,7-3.19,2.32-2,5-1.94,7.55-2.52,1.75-.39,1.88,1.86,3.3,2,3.06-.49,4.54-2.8,5.66-5.27,2.08-4.55,3.91-5.16,8.39-2.48,5,3.47,7.32,3.33,12.13-.39,1.62-1.24,3-3,5.27-3.2,2.93-1.78,6.42-1.84,9.54-3.05.34,1.85.46-3,1.37,0,1.16,3.88,12.13,5.2,14.57,2,.91-1.2,1.13-2.77,1.83-4.09,2.91-5.53,7-10.1,13-12.08a18.87,18.87,0,0,1,16.45,2.06,5.34,5.34,0,0,0,3.16.95,64,64,0,0,1,10.44.46c3.31.38,5.71-2.22,8.21-4a7.54,7.54,0,0,1,5.53-1.68c3.86.46,5.35,1.38,5.6,5.19s1.41,6.15,5,7.28a7,7,0,0,1,1.9,1.17c.91.66,2.17,1.45,1.44,2.66-.91,1.51-2.22.53-3.22-.17-3.73-2.64-8-1.38-11.91-1.2-2.27.11-4,2.48-4,5.18a36.37,36.37,0,0,0,1,7c.29,1.69,1.71,2.09,3.17,1.92a15.46,15.46,0,0,1,8.67,1.82c2.32,1.12,4.7,1.61,7.2.41a5.21,5.21,0,0,1,3.31-.23,14.87,14.87,0,0,0,12.27-3.2c2.32-1.79,3.72-1.46,5,1.05a11.07,11.07,0,0,0,2.58,3.65c1.67,1.42,3.39,2.4,5.69.84,3.15-2.13,5.22-1.73,7.77,1.14.74.84,1.35,1.79,2.06,2.66,1.17,1.44,2.87,1.75,3.82.3,2.18-3.34,5.07-3,8.26-2.34a8.84,8.84,0,0,0,3.36,0c2.37-.37,2.83-3,4.91-4s3.69-1.57,5.92-1.28c2.44.31,5,.7,6.66-2.18.59-1.07,1.77-.74,2.91-.18,1.31.65,2.42,1.85,4,1.75,2.55.23,5.09-.25,7.63,0,5.36,1.52,10.57,2.19,15.24-2a3.81,3.81,0,0,1,5.45.05c4.31,4,9,4.94,14.37,2.32,1.87-.92,3.76-.11,5.38.73,3.32,1.74,6.33,2,9.22-.79.9-.87,2.25-1,3.37-1.57,3.65-6.25,8-7.16,13.89-2.94a2.65,2.65,0,0,0,1.07.29c5.36.06,10.44-2.33,15.85-1.81a.81.81,0,0,0,.66-.3c4.37-5.41,11.13-5,16.94-6.94a7.38,7.38,0,0,0,4.43-3.14c.76-1.08-1-3.14,1-3.5,1.8-.32,3.87-.38,5.11,1.76s3,2.07,4.56.37c1.77-1.87,3.55-3.8,3.68-6.61-1.93-3.09-5.28-4.82-7.43-7.71a1.72,1.72,0,0,0-1.27-.71c-5.53-.21-9.51-3.86-14-6.26-1.44-.81-3.08-.67-4.62-1-2.67-.61-5.6-1-6.33-4.44-3.25-2.94-5.19-7.55-10.34-8-2,.87-3.78.06-5.51-.78-3.18-1.54-3.4-2.82-.87-5.27,1.24-1.2,1.47-4,4.28-2.81a7.1,7.1,0,0,0,4.64-1.08c7.43-3.95,14.45-1.95,21.18,1.6,2.38,1.26,5,2.37,7.33,2.37,6.71,0,9.09,4.75,11,9.48,2.88,7,6.71,8.58,13.43,4.64,2.87-1.69,5-1.23,7.84,1.74a69.53,69.53,0,0,1,7,4.28c5.19,3.32,10,2.53,13.73-2.17.54-.67,1.06-1.61,2.07-.9.72.5.35,1.36.1,2.06-1.24,3.55-3.43,4.75-6.87,3.78-2.51-.71-3.83.58-4.35,2.8-.34,1.43-.16,3-.36,4.43s.45,2.34,1,3.43a4,4,0,0,1,1,2c.42,2.3,1.93,2.62,3.56,1.55,2.55-1.67,5.67-1.89,8.22-3.49,1.68-1.05,3.4-.44,5.07.09,3.74,1.21,5.57.06,6-3.88a8.61,8.61,0,0,1,.31-2.58c.38-.83,1.47-1.19,1.73-.46,1.39,3.95,6.68,4.52,7.43,8.66a10.68,10.68,0,0,0-1-2.21c-1.39-1.59-2.74-3-5.35-1.49a128.25,128.25,0,0,1-14.19,6.66,4.13,4.13,0,0,1-2.14.63c-4.31-.74-6.27,2-8.17,5.13-1.13,1.87-2.37,3.64-5.15,3.66-1.62,0-2.58,1.82-3.67,3.06-3.18,3.66-12.57,3.16-15-.77-.59-.94-1.42-2.08-.76-3.11.84-1.3,2-.14,3,.11,3.44.86,6,4,9.91,3.66.48,0-.1-.08.35.11,3.49,1.45,4-3.36,7.18-3.26,2.82.1,3.53-1.79,3.08-6.06-.26-2.57.25-5.26-1.14-7.67-1.44-1.76-3.14-2.72-5.52-2a6.53,6.53,0,0,1-4-.55c-3.55-1.21-6.72-1-9.32,2.25a10.27,10.27,0,0,1-7.45,3.71c-6.61.05-7.16,5.64-9.15,9.92l-.3,1.08c1.18,4.46,5.34,6.46,8.1,9.6,1.44,1.64,3.87,2.3,4.94,4.45a1.39,1.39,0,0,0,.78.78c5.85,1.74,11.55,4.07,17.86,1.26,3.45-1.53,7.61-1.2,10.85-3.59a1.41,1.41,0,0,1,1.09-.17c8.67,2,17.84.16,26.35,3.56,3.53,1.41,7-.62,10.62-.73,2.79-.08,5.49-1.43,8.44-.69,1.48.37,2.4-.41,3.17-1.87,2.28-4.34,6-5.38,10.67-4.34s9.32,1.71,14.4-.89c2.83-1.45,6.85-1.14,10-3.39,1.19-.85,3.11.48,4.47,1.37a10.45,10.45,0,0,0,8.17,1.79,18,18,0,0,1,5.22.21c3.6.35,4.21-.52,2.9-3.82a10.37,10.37,0,0,0-1.06-2.77,3.92,3.92,0,0,0-2-.88,12.78,12.78,0,0,1-2.67-.41,24.32,24.32,0,0,1-8.36-4c-2.21-1.59-3.48-3.54-3-6.32.24-1.57,1-3,2.6-3.31,2.63-.46,5.26-.43,7,2.21a2.12,2.12,0,0,0,1.49,1c3-.8,5.73-1.18,6.72-5.47.69-2.94,5.36-2.94,8.4-3.71a4.7,4.7,0,0,1,5.22,2.14c.39.61,1,1.33.39,2a1.37,1.37,0,0,1-2-.11c-2.64-2.88-5.07-1.47-7.59.17a36.88,36.88,0,0,1-5.61,3c-3.18,1.34-2.36,3.61-1.63,5.8s2.58,1.27,4.07,1.05c3.25-.5,6.1.88,9,2,.88.34,1.58,1.2,2.65,1.21,4.11.33,8.05-1.21,12.24-.81,2.92.28,5.88-.1,8.84.68,2.74.71,5.2,0,6.62-2.81a6.32,6.32,0,0,1,4-3.19c3.2-1,4.6-3.2,4.07-6.56a3.65,3.65,0,0,1-.08-.74c.06-1.8-.52-4.27,1.82-4.7s3.63,1.85,4,3.69c.57,2.75,2.37,5,2.92,7.48,1,4.35,1.18,9.06-1.23,13.24-1.33,2.31-.91,3.73,1.61,4.55a14.59,14.59,0,0,0,5.89-2.3c1-3,3.11-3.61,6.12-3.54,4.64.12,9.25-.82,13.87-1.35a28.7,28.7,0,0,1,2.56-6.8c1-2.16,4-3.11,4.62-5.84,0-.21.8.32,1.12.69,1.81,1.91,1.2,3.66,0,5.73a5.27,5.27,0,0,0,2.29,7.58c3.46,1.79,6.64,1.24,8.36-1.44.36-1,.53-2.71,1.89-2.31,4.26,1.25,8.8.25,13,2.43,4.46,2.3,9.37,3.16,13.87-.5a2.13,2.13,0,0,1,1.09-.21,9.64,9.64,0,0,1,4.8.1c3.93,1.06,7.89,2,12,1.33,2.38-.37,4.13,1.47,6.23,2.14,4.83,1.53,7.55.65,9.72-3.78,1-2.12,2.68-2.75,4.87-2.7,3,.07,5.87.16,8.53-1.92,2.29-1.78,4.1.25,5.89,1.65,2.65,2.07,5.13,2.09,7.51.1,2.17-1.82,3.21-4.09,2.25-7-.28-.85-.63-2-1.54-1.88-4.11.77-7.09-2.58-10.89-2.8a4.85,4.85,0,0,0-2.21.11l-.86.75c-3.75,1.83-6.21,1.33-7.94-1.86a10.14,10.14,0,0,0-6.13-4.76c-2.27,1.54-5.12,2.64-6.68,4.71-2.75,3.65-5.12,6.17-9.44,2.22a2.65,2.65,0,0,0-2-.79c-6.67,2-11-2.94-16.29-5.22-1.59.62-2.27-.31-2.81-1.58-2-4.83-5.21-6.62-10.24-4.94-3.67,1.23-7.09,2.09-10.83.52a2.57,2.57,0,0,0-3.24,1.19,2.8,2.8,0,0,1-2.46,1.46c-.78,0-1.53-.25-1.76-1.09s.36-1.21,1-1.37c5-1.27,5-5,4.72-9.07-.23-3.85,3.44-5.14,5.72-7.26,1.3-1.22,3.5-1.74,2.75-4.25-2.93-1.24-5.4-4.48-9.25-1.38-1,.83-3.4,0-5.15-.09-3-1-5.68-.84-8,1.55-1.55,1.57-3.4.82-4.8,0s0-2.19.36-3.25a31.16,31.16,0,0,1,3.17-6.68c1.32-1.88,1-3.77-1.23-5-3.88-.81-7.74-1.69-11.65-2.37-1.11-.19-2.79-.22-3.42.44-2.24,2.36-5.52,4.86-5.87,7.63-.65,5-4.79,3.72-7.12,5.5-1,.76-1.55,2.11-2.26,3.23-.15.25,0,.8-.13,1-3.13,2.67-6.6,5-9.36,8-2.2,2.4-3.3,5.78-5.39,8.33-.69.84-2.93.67-4.42.54a23,23,0,0,1-4-1.29c-.56-.17-1.47.09-1.73-.24-4.93-6.06-13-4.57-19.07-7.87-2.72-1.47-6.09-1.7-9-2.83a7,7,0,0,1-3.52-2.85c-2.21-4.21-6.36-2.83-9.7-3.78-.59-.17-1.65-.56-1.63-.73,1-7.09-4.46-6.5-8.67-7.4-.59-.13-1.39.09-1.77-.23-8-6.79-16.72-1.75-25-.93-3.45.34-6.75,3.39-9.84,5.59-1,.74-2.13,3.24-1.68,3.93,2.14,3.22-.75,3.68-2.15,5.29s-2,3.7-2.78,5.69c-.28.78.16,1.82.27,2.74-1.37-.34-2.74-.72-4.13-1a24.39,24.39,0,0,0-4.06-.59c-.6,0-1.22.58-1.83.89a10.84,10.84,0,0,1-.92-2.9c0-2,.4-3.94.3-5.9,0-1-1-2.86-1.27-2.82-6.25.82-10.72-7.13-17.61-3.44-1.81,1-4.23.9-6.39,1-.5,0-1.31-1-1.55-1.74a31.51,31.51,0,0,1-.92-4.12c-5.12-2.25-10.31,0-15.48-.21-3.75-.17-5.31-1.15-5.52-4.1-.1-1.33.13-3,1.32-3.25,3.45-.86,6-4.1,9.91-3.65,3.47.39,5.71-2,8.16-3.81A1.1,1.1,0,0,0,1650.21,228.28Z" transform="translate(-872.62 -186.81)"/><path class="cls-1" d="M1454.55,312.7c-2.34-.26-4.69-.5-7-.79s-5.86-3.29-5,2.55c0,.33-.49.75-.76,1.13a8.38,8.38,0,0,1-1.64-1.35c-4.25-5.87-5.49-5.88-12.2-3.25-1,.4-3.94-3.84-5.81-6.08a13.65,13.65,0,0,1-1.5-3.28c-1.09.62-2.16,1.28-3.28,1.83-3.18,1.56-6.24,3.69-9.61,4.48-7.62,1.79-15.23-.2-22.63-1.81-1.29-.28-2.21-4.68-2.21-7.18,0-1,3-3,4.49-2.87,3.56.41,7.73-1,10.65,2.92.46.6,3.86-1,5.89-1.57-.78-1.66-1.11-4.09-2.42-4.83-5.14-3-9.26-6.23-8.51-12.94.06-.52-.37-1.55-.67-1.59-3.59-.43-8.77-2.39-10.53-.75-8.24,7.68-16.17,6.66-25.33,2.17-3.25-1.6-7.92-1.47-11.64-.68-4.26.91-9.86,2.39-11.77,5.52s-7.57,3.5-6.18,9.19c.61,2.48-1.94,5.34-5.75,3.05a4.17,4.17,0,0,0-2.76-.42c-3.34.67-4.78-.29-4.1-3.89.16-.81-.68-1.8-1.06-2.71-.28.78-.33,1.82-.87,2.28a20.5,20.5,0,0,1-4.36,2.83c-2.07,1-4.27,1.65-6.42,2.45-2.22,3.16-1.87,6.51,1,8.77,1.19.92,2.43,1.7,3.05,3.17,1.32,3.09.54,4.64-2.83,5.16-1.78.27-3.41.44-2,2.86,3.64-.06,7.37.35,10.9-.3,4.25-.78,7.58-1,11.76,1.65,2.78,1.75,7.86-.09,11.9-.44a11.51,11.51,0,0,0,2.79-1c3.07-1.12,6-2.7,9.41-.41.73.48,3.15-1.79,4.89-2.56,2.69-1.21,5.45-2.29,8.24-3.26.57-.2,1.94.23,2,.55.55,2.8,1.92,3.37,4.85,3.73,2.19.26,3.74,1.47,5.6-.68.2-.24,2.51,1.14,3.7,2,5.26,3.67,7.7,3.27,11.38-1.8.21-.29,1.44-.2,1.92.13,6.55,4.42,13.12,5.34,19.91.51.19-.14,1.23.45,1.48.91,2.45,4.51,4.57,9.22,7.38,13.49.67,1,3.57,1,5.35.79,6.91-.86,14.28-.83,20.48-3.47a22.6,22.6,0,0,1,10.53-2c2.11.08,4.21-2,6.45-2.48,10.77-2.31,21.2-6.22,32.61-5.31,7,.56,14.19-.28,21.29-.62.8,0,1.58-.85,2.36-1.31,3.21-1.85,5.94-3.86,10.06-.76,2.15,1.62,6.14.68,9.27,1.13,4.42.64,8.79,1.86,13.22,2.12,2.22.14,4.53-1.29,6.79-2,5.12-.15,10.23-.32,15.34-.75,8-.69,16.1.36,24.15-.23a24.16,24.16,0,0,1,7,1c4.89,1.1,9.8,1.69,14.56-.65.16-2.93-2.78-4.24-4.2-4.22-4,.06-5.07-2.06-5.24-5.11-.18-3.27-3-4.69-4.34-7.12l0-.05c-1.37-3.69-4.86-5.8-6.85-9.12-1.22-2-5.17-.38-6.39,2.4-1.75.53-3.48,1.08-5.23,1.59a26.89,26.89,0,0,0-3,.8c-.54.22-.88,1.11-1.38,1.18-9.25,1.24-16.79,8.49-26.65,7.58-5.75-1.48-10.87.33-15.83,3-1.67.76-3.4,2.28-5,2.13-3.07-.29-6-1.58-9.09-2.31-1-.24-2.69-.45-3.06.06-2.42,3.28-9.91,3.78-12.11.2-2.7-4.41-6.48-3.82-9.06-1.42-4.31,4-8.69,3.07-13.4,2.1-1.35-.43-2.07.71-2.76,1.38-2,1.94-4,2.63-6.67,1.37-2.83-1.36-4,2.35-6.51,2.32a6.18,6.18,0,0,0-2.93,1.43,15.69,15.69,0,0,1-2.29,2.39c-1.21.81-2.36.87-3.11-.54-.82-1.56-.62-3.9-2.93-4.28-1.91-.32-3.38,1.27-5.18,1.61A1.37,1.37,0,0,0,1454.55,312.7Z" transform="translate(-872.62 -186.81)"/><path class="cls-3" d="M1120,300.89c-8.32.7-16.64,1.3-24.94,2.13-3.67.38-7.56.62-10.88,2-4.81,2-7.9-1.55-11.76-2.51-.29-.07-.21-1.26-.45-1.88a8,8,0,0,0-1.38-2.83c-.64-.65-1.78-.82-2.7-1.21a25.84,25.84,0,0,1,4.34-1.6c4.39-.78,8.49-1.47,12-5,1.72-1.71,5.65-1.1,8.51-1.82,1.29-.32,3.09-1.09,3.41-2.06a5,5,0,0,0-.78-4.36c-.72-.7-2.79.07-4.26.07s-3.08.27-4.29-.3c-4.1-1.94-6.28.18-8.16,3.33-1.1,2.34-3.76.52-5.29,2-2.25,2.19-3.09-.69-4.45-1.5-3.27-1.93-6.73-1.65-10.23-1.1a2.53,2.53,0,0,0-1.93,2.08c-.74,2.51-2.44,3.45-5,3.6-5,.28-5.83,1.46-5,6.34.23,1.35.52,2.69.87,4,1.25,4.76,1.27,4.79,6.19,5.28,1.54.15,3.32.28,3.46,2.15.41,5.7,4.68,6,8.81,6.53,4.32-.31,8.78-.05,12.92-1.06,7.7-1.89,15.1,3.68,23.14-.26,4.62-2.26,10.84-1,16.12-2.27a11.12,11.12,0,0,1,9.94,2.13c.48.35,1.56-.06,2.35-.23,3-.64,5.94-1.75,8.93-1.82,1.62,0,3.46,1.45,4.9,2.62,5.05,4.14,11.56,1.71,16.91,3.88,5.82,2.37,11.83,4.86,16.81,8.56,5.3,3.94,10.42,4.82,16.07.74.93-.68,2.56-.39,3.86-.59a23.92,23.92,0,0,0,5-.86c5.2-2,10-5.05,16.14-3.24,5.38,1.58,8.45-1.05,9.1-6.54a1.59,1.59,0,0,1,1.17-1c6.09.34,12.18,1,18.27,1.12,10.7.22,21.41.11,32.12.11a5.24,5.24,0,0,0,1.42-.43c.62-.5,1.11-1.22.77-1.92-1.65-3.49.1-5.86,2.42-8.16,1.25-1.23,2.6-2.56.66-4.33-2-.76-4.46-2.6-5.93-2-2,.81-3.33,3.43-4.87,5.33-1.22,1.51-2.33,3.11-3.49,4.68-3.29-.93-6.79,1.3-10.17-.94-.87-.57-3.4,1.1-3.57,2.87-.33,3.53-1.7,2.55-3.42,1.13-2.72-1-5.46-1.9-8.14-3-1.49-.59-3.23-1.09-4.24-2.19-2.44-2.63-4.39-5.8-8.73-3.1-.38.24-1.71-.44-2.17-1-3.59-4.55-8.31-3.91-13.19-3.24-1.55.21-3.22-.5-4.84-.79a7.38,7.38,0,0,0-6-1.43c-3.64.44-5.65,2.9-5.19,6.9.19,1.68-.17,2-1.69,2.48-2.74.79-5.58,1.35-7.76,3.66-.85.9-2.74,1.06-4.24.34a6.48,6.48,0,0,0-6.29.31c-1.65.85-3.84,1.87-5.65-.15-4.22-1.64-8-4.14-13.1-3.42-4.5.63-9.19,0-13.79-.27-.83-.05-1.61-1-2.42-1.6-2.66-2.14-4.24-5.07-5.91-7.95-2-3.49-3.51-4.2-6.87-2.72-2.51,1.11-5.57,1-7.21,4.28C1125.3,300.59,1122.27,300.91,1120,300.89Z" transform="translate(-872.62 -186.81)"/><path class="cls-1" d="M1066,314.29c-.84-.72-1.58-1.85-2.54-2.1-3.84-1-4.43-3.33-3.61-6.78.55-2.32.46-3.87-3-2.47-1.79.73-5.69.37-6.25-.72-1.39-2.71-1.41-6.11-2-9.23,2-.14,4-.15,5.89-.46,1.09-.18,2.82-.64,3-1.34,1.59-5.27,6.65-7.53,11.26-4.32,4.28,3,6.84.22,9.77-2-3.58,1.37-6.58,1.43-10.33-.86-3.55-2.16-8.46-2-12.65-3.27-1.38-.42-2.22-2.44-3.61-3.08-1.82-.84-4.17-1.81-5.88-1.31a10.45,10.45,0,0,0-5.81,4.2c-1.09,1.91-.23,4.83-.94,7.08-.64,2-4.08,2.69-2.22,6.11.93,1.7.4,4.35,0,6.49-.1.6-2,1.4-2.94,1.3-6.07-.64-12.11-1.51-18.17-2.26-.28,0-.62.37-.93.57-2.43-2.57-2.84-6.68-6.41-8.42-.87-.42-.7-1.49-.92-2.26-.61-2.13-1.68-2.52-3.4-1.13-2.5,2.17-5.23,4.14-1,7.44.77.6.45,4.38-.06,4.54-2.2.7-5.6,1.69-6.85.6-4.3-3.76-7.54-3.79-12.78-1-4.29,2.27-10.21,1.46-15.4,2-.94.35-1.4,1-.89,1.93s1.18.62,1.87.28c5.81.19,11.63.21,17.42.67,1.38.11,3.7,1.64,3.72,2.57.05,1.76-.81,4.64-2.06,5.13-3.81,1.51-8,2.12-12,3-1,.22-2.27-.09-2.9.45-2,1.7-3.66,3.68-5.47,5.56a25.56,25.56,0,0,0,4.55.59c3.66-.18,7.35-1.11,11-.82,6.91.54,13.76.05,20.84,1.27,8.08,1.4,17.06,4.91,25.54.21.59-2.43-1.08-2.95-2.87-3.43-2.56-.7-5.2,0-7.79-.58-1.84-.4-3.43-.74-3.61-3a2.08,2.08,0,0,0-.34-1.05c-1-1.43-3.82-2.24-1.63-4.78,3-3.47,6.26-4.5,9.56-3a8.84,8.84,0,0,1,3.92,3.87c1.69,2.87,4.14,4.2,7.5,3.45a4.47,4.47,0,0,1,3.63.22,15.55,15.55,0,0,0,6.65,2.17c3.84.59,4.16,1.14,3.71,5-.07.61.12,1.2,0,1.79.7-.05,1.62.17,2.06-.19,3.24-2.63,5.74-6.37,11-5.39C1063,317.83,1064.61,315.46,1066,314.29Z" transform="translate(-872.62 -186.81)"/><path class="cls-1" d="M969.4,303.84c-.33-.74-.66-1.47-1-2.21-2.29-4-4.89-4.78-9.62-3-5.9,2.26-12.42,3.1-18.75,3.95-1.54.21-4.18-1.51-4.95-3-1.68-3.36-3.06-5.6-7.56-4.43-1.85.48-4.61-.75-6.36-2-3.37-2.47-5.51-1.09-8.08,1.2-1.27,1.13-4.19,2.39-4.85,1.82-1.47-1.24-2.11-3.56-2.78-5.55-.14-.44.9-1.72,1.59-1.92,3.66-1.07,7.39-1.92,11.09-2.85-2.7.24-5.41.46-8.11.72a35.21,35.21,0,0,1-4.42.51c-3.89-.12-7.9-.85-8.59,4.88-.09.77-2.08,1.76-3.27,1.89-6.14.65-12.33.87-18.44,1.7-1.06.14-1.81,2.51-2.7,3.85,1.83,1.16,3.76,3.43,5.47,3.28,8.67-.8,17.25-2.17,25.95,0,2,.51,4.46-.58,6.55-.17a121,121,0,0,1,14,3.59c6.58,2.14,12.62.95,19.23-.66,7-1.71,14.67-4.45,22.19-.6C966.8,305.24,968.27,304.21,969.4,303.84Z" transform="translate(-872.62 -186.81)"/><path class="cls-1" d="M1931.57,284.13c3.7,1,7.43,1.89,11.07,3.05.77.24,1.88,1.64,1.72,2.17-.56,1.9-1.25,4.06-2.64,5.29-.68.61-3.06-.44-4.55-1-2.25-.91-5.76-3.49-6.35-2.91-3.55,3.46-7.28,3.53-11.76,2.82-1.11-.18-2.55,2.94-4.13,4.16-1.76,1.36-4,3.47-5.76,3.19-7.54-1.24-14.94-3.29-22.43-4.86-.88-.19-2,.73-3,1.13-1.46,1.66-2.71,3.42-2.87,5.72,2,2.69,3.36-.4,5.05-.59,3.92.32,7.87,1.09,11.76.85,10.45-.65,20.8,6.61,31.21.75,9-5.06,19-2.34,28.41-4,4.59-.82,9.64,1.31,14.48,1.34,1.82,0,3.65-2.14,5.48-3.3-1.4-1.32-2.66-3.57-4.23-3.81-5.84-.87-11.78-1-17.66-1.65-1-.11-1.89-1.46-2.72-2.33-1.28-1.36-2.29-3.78-3.72-4C1943.2,285.06,1937.36,284.72,1931.57,284.13Z" transform="translate(-872.62 -186.81)"/><path class="cls-1" d="M1814.44,302.91c4-.31,7.56-.87,10.33,3.78,1,1.76,6.09,2,9.13,1.56,4.76-.64,5.91.05,5.07,4.8-.48,2.69-.71,5.42-1,8.13,6-.86,11.9-2.19,17.89-2.43,5.25-.2,10.55.82,15.83,1.3,2.76-.23,3.64-1.82,3-4.34s-2.33-2.45-4.36-1.78c-3.56,1.16-6.64-.18-9.45-2.16-2.32-1.64-2.76-4.11-1.93-6.67s3.15-2.42,5.3-2.37c1.37,0,2.7.51,4.07.5s3.09.35,3.79-1.54c-.06-1.41-1.18-1.61-2.2-2-2.51-1-5-2-7.46-3.27-3.15-1.62-6.25-.09-8.9,2l-7.67-.05c.53-2.06,1.19-4.11,1.54-6.2a7.3,7.3,0,0,0-.28-3.47c-.28-.82-1.16-1.44-1.77-2.16-1.72-1.36-2.95-1-3.35,1.14-.3,1.64-1.35,2.5-2.54,3.5-2.24,1.91-3,5-4.85,7.17C1827.81,296.47,1816.84,298.94,1814.44,302.91Z" transform="translate(-872.62 -186.81)"/><path class="cls-1" d="M1405.12,248.19c2.2,7.37,2.14,7.2-4.55,9.56-6,2.11-1.17,6.55-1.61,9.86a33.08,33.08,0,0,0,4.12,1c5.47,1.32,6.26-4.07,9-6.48,3.94-3.44,13.54-5.07,18.25-2.93,1.34.6,3.39-.36,5.11-.61a17.62,17.62,0,0,0-3-2.76c-3.3-1.88-7.7-2.8-9.79-5.53-1.59-2.09-.58-6.39-.22-9.65.27-2.48,1.33-4.88,2-7.31l-6,.1c-3.65,1.29-7.44,2.19-10.44,4.94C1405.26,241,1402.49,244.27,1405.12,248.19Z" transform="translate(-872.62 -186.81)"/><path class="cls-3" d="M1871.65,301.49c-4-.3-7.94-.68-11.91-.87-1-.05-2.9.52-2.89.75.11,3.77-.92,8.89,1.12,10.95,2.68,2.73,7.79,3.12,11.9,4.36.87.26,2-.17,2.93-.28-.39,1.21-.77,2.43-1.16,3.65,6,3.07,11.2-.29,16.32-2.48,3.62-1.55,3-10.5-.53-13.18a9.12,9.12,0,0,1-1.53-2.13l-4.51,0A11.63,11.63,0,0,0,1871.65,301.49Z" transform="translate(-872.62 -186.81)"/><path class="cls-2" d="M1048.74,323.19l4.76-5.28c-2.47-1.12-4.93-2.29-7.43-3.35-2.16-.91-4.37-1.7-6.56-2.54-.69-.26-1.58-.89-2.07-.67-5.6,2.5-7.86-1.63-10.91-4.94-3.39-3.68-8.95-3.18-12.44.51a4.57,4.57,0,0,1-1.22.84c-5.5,2.94-5.47,2.9-.62,6.95.7.58,1.51,2,1.26,2.59-1.73,4.06.36,3.25,3.21,3.31,4.44.08,8.85,1.21,13.27,1.89,3.52,2.38,6.27.66,9.7-.82C1042.05,320.67,1045.68,322.59,1048.74,323.19Z" transform="translate(-872.62 -186.81)"/><path class="cls-1" d="M1865,252.79c-3.34,2.39-6.78,4.68-10,7.25a4.17,4.17,0,0,0-1.38,3.41c1.72,6.68.85,8-6.34,8.72-.72.08-1.44.28-2.16.43a9.13,9.13,0,0,0,1.35,1.95,23.07,23.07,0,0,0,4.72,3.6c1.19.58,4,.62,4.09.25,1.68-4.94,4.74-2.08,7.66-1.94,2.62.12,5.29-1.58,8-2.25,3.51-.87,6.25,0,8,3.58.39.8,2.14.94,3.26,1.39-2.77-3.3-8-6.84-7.75-9.84.51-5.27-2.31-8.1-3.54-12C1869.54,253,1866.94,254.18,1865,252.79Z" transform="translate(-872.62 -186.81)"/><path class="cls-1" d="M967.62,280.67c1.12-.44,2.69-.56,3.29-1.38,3.29-4.51,6.93-4.79,12-2.24,4.25,2.15,9.81-.76,14.31,2.92.68.55,4.82-3.12,7.3-4.92.06,0-.6-1.58-1-1.59-6.33-.18-10.21-1.64-8-9.58.45-1.62-4.34-4.89-7-7.09-1.15-1-3-1.15-4.45-1.68-2.59.11-3.41.83-5.08,3.63-2.49,4.17-4.09,6.88-3.67,12.1C975.62,273.89,970.39,277.38,967.62,280.67Z" transform="translate(-872.62 -186.81)"/><path class="cls-4" d="M1285,300.76c-.92,1.29-1.59,2.91-2.79,3.81-4.35,3.23-4.37,6.7-1.06,10.6,5,.93,10,2,15,2.71,1.46.21,3.07-.51,4.61-.81,1.27-.23,2.54-.47,3.81-.68,3.53-.57,5-2.09,4.14-6.07a8.4,8.4,0,0,0-4.77-6.31c-1.59-.87-1.65-4.51-2.4-6.9-1.54.79-3.39,1.26-4.55,2.42C1293.24,303.28,1289.32,303.38,1285,300.76Z" transform="translate(-872.62 -186.81)"/><path class="cls-5" d="M1650.21,228.28c-4.12,2.47-8.35,4-13.11,1.65-.3-.15-1.07.43-1.48.81-1.29,1.22-2.34,2.79-3.81,3.71-2.64,1.65-5.78,2.81-3.07,6.77.07.1.17.25.15.34-1.89,6.67,3,5.06,6.26,4.86,5.57-.35,11.1-1.14,16.65-1.74-4.49-3.63-5.88-7.32-.79-11.77C1651.63,232.37,1650.52,229.87,1650.21,228.28Z" transform="translate(-872.62 -186.81)"/><path class="cls-6" d="M1202.59,261.18c4.49-1.14,9.44-1.46,13.37-3.62,7.35-4,7-7.64-.22-12.2a50.69,50.69,0,0,1-7.92-6.12c-.83-.81-.54-2.77-.77-4.21l-1.58.48c-4.41.62-5.8,2.81-5.22,8.23,2.23,2.06,4.1,4.5,6.31,6.59,3.31,3.14,3.19,4.34-.88,6.53-.88.47-1.88.7-2.72,1.2C1201.54,258.88,1201,259.94,1202.59,261.18Z" transform="translate(-872.62 -186.81)"/><path class="cls-1" d="M1840.11,237.91a25.32,25.32,0,0,1-1.25,4.9c-1.63,3.37-3.63,6.56-5.24,9.93-.29.62.4,2.46.85,2.54,2.72.47,6.07-.32,6.27,4,.65-.39,1.83-.72,1.87-1.17.5-4.9,4.35-5.73,8-6.81C1849.69,244.85,1848,238.93,1840.11,237.91Z" transform="translate(-872.62 -186.81)"/><path class="cls-3" d="M1837.12,306c-1.65-.46-3.21,0-4.8.38a5.84,5.84,0,0,1-6.11-1.83c-4.09-4.65-5.88-4.89-11.77-1.67l-5.1,2.5c-4.61.19-8.86-.65-12.25-4.13-3.17-3.25-7.47-3.65-11.61-4.32a3.38,3.38,0,0,0-4,2.6,26.93,26.93,0,0,0-1.22,5.74,4.41,4.41,0,0,0-2-.33c-5.06.19-10.1.22-15-1.24a3,3,0,0,0-2.49.41,5.71,5.71,0,0,0-.7.35l-2.67-3.46-3.54,4.23c2.91,4.28-.54,4.58-3.33,5.54a21.88,21.88,0,0,0-2.67,1.18c-1.2-.21-2.18-1.15-3.44-.82-3.44,1.36-7.1,1.06-10.7,1.27l-.07,0a5.93,5.93,0,0,0-7.14-2.67,26.44,26.44,0,0,1-16.37.75c-2.51-.66-4.77,1-7,1.89a1.19,1.19,0,0,0-.78,1.23c-3.91-.13-7.86.35-11.67-1a3,3,0,0,0-2.42.62c-5.31,2.89-10.79,2.62-16.28.76a10.77,10.77,0,0,0-7.11,0,3.69,3.69,0,0,0-.55-.57c-1.59-1.3-11.16-2.06-12.66-.71-1.83,1.65-3.91,2-6.18,2.2-1.41.13-2.82.36-3.21,1.69-2.37-2.58-5.59-2.19-8.44-1.51-3.93.95-7.58,1.05-11.25-.66a5.2,5.2,0,0,0-4.44-.26c-4.54-.14-9.11,0-13.61-.46a200.2,200.2,0,0,0-45,.61c-.75.09-1.43.86-2.14,1.31,8.11.46,16.21,1,24.32,1.35,5.7.2,11.42,0,17.13,0,5.88,0,11.8-.14,17.64.4a43.12,43.12,0,0,1,11.69,2.92c3.56,1.41,6.61,4.21,10.2-.05.78-.93,3-.62,4.61-.88h0l9,.06c8.66-1.19,17.22-1.64,25.77,1.17,2,.66,4.6-.57,6.93-.69,6.54-.34,13.09-.45,19.62-.89,1.35-.1,2.63-1.22,3.94-1.87h0l5.19.9h0c5,.53,10.07,1.17,15.12,1.57s9.83.57,14.76.82c1.22.06,2.72.48,3.62-.06,4.93-3,9.59-6.35,14.58-9.18a16.51,16.51,0,0,1,7.21-2c4.1-.2,8.23.24,12.35.4,3.35,8.28,13.27,6.81,18.47,12.37a2.15,2.15,0,0,0,1.39.38c8.41.12,16.83.4,25.23.25,4-.07,7.93-1,11.9-1.5,3.22-3,3-7.28,3.59-11.1C1842,307.22,1839.3,306.63,1837.12,306Z" transform="translate(-872.62 -186.81)"/><path class="cls-1" d="M999.21,252.81c3.67,1.09,7.53,1.92,8,6.82,0,.3,1.55.45,2.38.67-.49-4.18,2.35-3.05,4.7-3.18.71,0,1.84-1.63,1.87-2.55a9.76,9.76,0,0,0-1.09-4.26c-1.71-3.67-3.58-7.27-5.39-10.9C1001.81,240.43,1000.16,246.34,999.21,252.81Z" transform="translate(-872.62 -186.81)"/><path class="cls-6" d="M1405.12,248.19c-.54-5.27,3-8.05,6.68-10.63a2,2,0,0,1,1.69-.28c6.12,4.5,4.64-.87,5-3.81-.15-.2-.26-.5-.46-.58-3.71-1.47-8.48-1.69-8.51-7.46,0-.29-1.49-.57-2.29-.86-2,2-1.88,4.46-1.8,7,0,.32.24.59.26.92a2.48,2.48,0,0,0-.27-.69c-1.79-2.28-3.25-1.69-4.52.54a1.9,1.9,0,0,0,1.11,1.85c.37,3.49.6,7,1.18,10.46C1403.43,245.87,1404.47,247,1405.12,248.19Z" transform="translate(-872.62 -186.81)"/><path class="cls-1" d="M1202.52,243.87c-.89-3.44-.57-6.46,3-8.36-.78-.57-2.1-1-2.27-1.75-1.22-5.22-5.53-6.42-9.74-7.81.17.55.24,1.51.54,1.59,7.89,2.06,2.72,2.18-.15,4.29-2.21,1.62-3.79,5.68-3.64,8.55.24,4.7,2.11,9.32,3.3,14,2.48-.75,1.68-2.66,1.38-4.24-.39-2-1.24-4-.82-6.16.23-1.2.44-2.54,1.79-3s2.26.57,3.19,1.39S1200.55,245.19,1202.52,243.87Z" transform="translate(-872.62 -186.81)"/><path class="cls-5" d="M1269.39,270.26c2.79-2.48,4.91-6.42,9.74-4.5.22-.8.85-1.79.57-2.35a21,21,0,0,0-3-4.38c-.36-.4-1.43-.31-2.16-.23-4.21.44-5.16-1.42-3.69-5.07l-6.83.6c-1.45.53-2.83,1.09-1.5,3l4.43,3c1.35,2.75,2.68,5.48,1.41,8.68C1268.15,269.54,1268.69,270.11,1269.39,270.26Z" transform="translate(-872.62 -186.81)"/><path class="cls-5" d="M918.92,286.57l-2.33,1.8c1,0,2,.12,3.07.11,2.78,0,5.57,0,8.35-.16a2.42,2.42,0,0,0,1.74-1.07c1.24-2.45,2.32-5,3.45-7.49-2.93.33-5.88.56-8.78,1.07-.61.1-1.63,1.49-1.47,1.85C925.22,287.81,920.48,285.54,918.92,286.57Z" transform="translate(-872.62 -186.81)"/><path class="cls-5" d="M1916.64,278.26c1.15,2.53,2,5.27,3.56,7.5a6.46,6.46,0,0,0,4.46,2.1,57.4,57.4,0,0,0,8.24-.59l-2.19-2.39c-1.85-.56-5.8,1.16-3.83-3.62.17-.42-1.23-2.07-2.07-2.23C1922.13,278.54,1919.37,278.49,1916.64,278.26Z" transform="translate(-872.62 -186.81)"/><path class="cls-2" d="M1402,232a44.86,44.86,0,0,1,3.17,4,10.2,10.2,0,0,1,.74,2.85c1-.46,2.21-.68,2.85-1.42a11.16,11.16,0,0,0,1.36-3.27c-5.21-1.94-1.58-6.49-2.85-9.59l-4.46,1.36c-.52,1-.81,2.15-2.15,2.66a1.75,1.75,0,0,0-1,2.41A1.59,1.59,0,0,0,1402,232Z" transform="translate(-872.62 -186.81)"/><path class="cls-1" d="M1402,232l.81-6.07c-4.14,1.59-8.31,3.45-12.15-.65,1.38,2.21,2.72,4.44,4.17,6.61.29.42,1.4.53,1.44.85.66,5.83,3.68,1.72,5.78,1.4Z" transform="translate(-872.62 -186.81)"/><path class="cls-6" d="M1262.53,257.33l1.5-3c-.32-.17-.74-.58-1-.49-7.85,3.07-8.82-3-10.69-7.93-.19-.5-.74-.85-1.13-1.26-1.39,3.2-3.17,5.55,1.68,8.55C1257.05,255.74,1256.25,257,1262.53,257.33Z" transform="translate(-872.62 -186.81)"/><path class="cls-1" d="M1627.83,264.09c-4-3-7.91-4.49-12.13.08-1.93,2.08-6.81-.49-8.2-3.2a72.61,72.61,0,0,0-7.42-11.51c-.86-1.1-3.46-.67-4.88-1.55-2-1.24-6,1.66-6.27-3,0-.16-1.49-.12-2.22-.36q-3.81-1.23-7.56-2.62c-.93-.35-2-1.49-2.62-1.28-5.23,1.63-10.38,3.51-15.55,5.31-5,4-4.8,8.39,1.62,12.08l9.74,7.54c3.62,2.69,7.66,2,11.26.56,4.46-1.75,7.75-.72,9.11,4a5,5,0,0,0,1.91,3A19,19,0,0,0,1605,278c8.61,1.15,17.14,1.11,25.56-1.25,3.06-1.77,3.37-2.46,1.16-4.88S1629.62,266.44,1627.83,264.09Z" transform="translate(-872.62 -186.81)"/><path class="cls-5" d="M1642.12,317.93c1.43-.32,3.1-.27,4.24-1,2.41-1.59,6.82,2.41,8.12-3,.1-.41,5.28.34,8.09.7a11.94,11.94,0,0,1,2.76,1,103.59,103.59,0,0,0,10.76,1.22c4.77.07,10,1.94,14-2.62.3-.34,1.37,0,2.08,0l10.69.62c4.66-3.58,9.86-1.36,14.87-1.5,2.81-.08,5.66-1.67,8.4-1.44s5.51,1.86,8.26,2.87l10.53-1.38c2.15-2,5.1-1.24,7.6-2.21,5.46-2.11,5.79-2.6,2.74-7.41a27.75,27.75,0,0,1-2.1-3.07c-1.23-1.63-2.56-1.9-3.86,0,.68,2.09,1.51,3.32-2.28,3.24-5.32-.13-9.9-1.93-14.77-3.36-1.85-.54-4.41,1.5-6.69,2.22-.77.24-2.15.38-2.45,0-2.48-3.32-3.55-2.69-4.4,1.08-.2.89-2.33,2.05-3.42,1.9a74.58,74.58,0,0,1-11-2.41c-2.44-.72-10.12,3.64-11.31,6.6a3.1,3.1,0,0,1-2.11,1.57c-2.41.31-4.86.3-7.29.45-.48,0-1.36.38-1.39.32-2.4-5.92-3.71.36-5.3.3-3.93-.14-7.81-1.53-11.73-2.26a67.88,67.88,0,0,0-7.64-1c-2.43-.18-4.87,0-7.31-.14-1.43-.06-3-.8-4.26-.39-4.34,1.41-8.45,3.69-12.86,4.65a23.23,23.23,0,0,1-10.62-.22c-8.07-2.16-11.94-9.79-17.87-14.78-.6,2.2,5.39,4.31.09,6.56.28.39.6.77.86,1.17.63,1,1.89,2.11,1.76,3-.61,4.16,1.69,4,4.68,3.88,2-.1,4.09.65,6.14,1,6.08.87,12.17,1.72,18.25,2.62C1638.27,317.11,1640.19,317.56,1642.12,317.93Z" transform="translate(-872.62 -186.81)"/><path class="cls-1" d="M1749.28,300.79l4.55,4.47c2.3-1,4.57.64,6.86.08l20.93,1.4c1.15-2.6,2.65-7.52,3.39-7.41,3.91.59,7.67,2.34,11.39,3.9,3.23,1.35,6.27,3.19,9.57,4.33.78.27,2.23-1.38,3.37-2.15,1.19-4.77,2.47-9.51,3.47-14.32.19-.94-.77-2.11-1.12-3.19q-1.07-3.3-2-6.63c-.09-.31.32-.94.2-1-2.73-2.11-5.23-5.12-8.32-6s-5.13,3.55-3.43,8c1.61,4.23-.42,5.23-4,5.88-1.14.21-1.9,2-3.05,2.77-1.68,1.13-3.87,3.11-5.26,2.71-2.84-.82-5.13-1.42-8.28-.55-3.91,1.07-8.23.65-12.38.88a68.23,68.23,0,0,1-9.51-1.63c-4.36-1.11-8,1.15-9.5,5.41-.64,1.81.68,1.74,1.69,2.06Z" transform="translate(-872.62 -186.81)"/><path class="cls-3" d="M1202.52,243.87c-1.69-2.49-3.34-5-5.12-7.44-.2-.28-1.38-.24-1.74.07a10.3,10.3,0,0,0-3.34,11.66,57.81,57.81,0,0,1,1.19,6.19,34.43,34.43,0,0,0-4.42,2.1,36.78,36.78,0,0,0-3.77,3.21c-.18.34-.21.93-.42,1-4.12,1.57-4.58,5.18-5.1,8.81a3.57,3.57,0,0,1-1.34,2.21c-2.24,1.74-2.07,3.69-.68,5.82,1.84,3.22,3.71,3.95,7.26,1.56,3.13-2.11,7.41-2.48,10.7-4.43,1.94-1.15,3.21-3.76,4.28-5.95a57.76,57.76,0,0,0,2.57-7.51,60.44,60.44,0,0,0,7.18-3.9c1.12-.79,2.51-3.3,2.19-3.67C1209,250.2,1205.71,247.08,1202.52,243.87Z" transform="translate(-872.62 -186.81)"/><path class="cls-5" d="M1638.26,285.17c.12,3.27,1.28,7,0,9.67-1,2.21-5.2,4.73-7.38,4.28-5-1-9.54-3.82-14.27-5.88-.87-.38-1.76-.71-2.65-1.06-.4,1.06-1.33,2.23-1.13,3.17,1.68,8.19,4.53,9.51,13,10.41,5,.53,7.34-.3,8.49-5,.16-.62,1.23-1.12,2-1.47,1.35-.65,3.42-.75,4.07-1.78,4.23-6.74,12-6.21,18.06-9.3,2.91-1.49,5.77-3.11,8.75-4.46.6-.27,1.75.28,2.47.73,1.66,1.05,3.08,2.82,4.85,3.25,1.5.36,3.36-.76,5-1.22-1.61-.51-3.21-1-4.83-1.52-.45-.13-1.36-.06-1.37-.16-.56-5.22-7.28-5.83-8.18-10.86-.14-.78-1.38-1.36-2.12-2-.63.87-1.28,1.73-1.87,2.63a1.77,1.77,0,0,0-.3,1.06c.93,7.65-2.51,7.33-7.62,4.24a2.36,2.36,0,0,0-2,.17c-2.58,1.66-5,3.51-7.6,5.18-1.89,1.23-3.35,1.25-3.08-1.67C1639,282.84,1638.46,283.79,1638.26,285.17Z" transform="translate(-872.62 -186.81)"/><path class="cls-3" d="M1269.39,270.26a25.54,25.54,0,0,1,1.21-2.72c2.51-4.3.79-6.43-3.64-7.24-1.94.35-4.14.24-5.76,1.16-2.09,1.18-3.71,3.2-5.56,4.82-1.45,1.28-2.74,3-4.44,3.68-6.75,2.53-13.59,4.81-20.47,7-3.31,1-3.21,3.46-2.75,5.94.08.44,2,.77,3,.74s1.88-.9,2.79-.86c3.28.14,6.76,1.8,8-3.61.4-1.81,3.47-2.94,5,.5a5.18,5.18,0,0,0,9.31.77c2.11-3.33,4.43-4.09,8.31-4C1266,276.47,1267.69,272.44,1269.39,270.26Z" transform="translate(-872.62 -186.81)"/><path class="cls-3" d="M1638.26,285.17l2.34-1.61-1.63-2.9c-.49-5.07-4.19-5.36-8.07-5.39-6.71.51-13.49,1.84-20.1,1.26-5.13-.44-10-3.26-15.06-5-2.47-2.84-5.47-4.64-9.35-4.53-2.56.08-4.09,1-2.85,3.91,4,3.33,7.86,6.32,13.53,7.18,3,.46,5.52,4.54,8.25,7a2.43,2.43,0,0,1,.51,1.75c-.23,2.54,1.1,3.32,3.38,3.11,1.47-.14,3,.29,4.41-.31,2.82-1.56,5.64-3.1,8.44-4.69,1.22-.69,2.48-2.22,3.57-2.09C1629.87,283.32,1634.05,284.34,1638.26,285.17Z" transform="translate(-872.62 -186.81)"/><path class="cls-5" d="M1747.85,299.83c-.49-3.37,3.11-6.95,6.44-6.61,3.61.37,7.25.52,10.88.77-4.4-.77-8.8-1.51-13.19-2.35-.61-.12-1.5-.63-1.61-1.11-.16-.71,0-2,.47-2.28,3-1.87,6.07-3.58,9.19-5.21.25-.14,1,.66,1.55,1.08,2.7,2.28,5.52,2.82,8.24.19.65-.63.67-1.93,1-2.92a16.08,16.08,0,0,1-1.85-.44c-.41-.15-1-.4-1.08-.73-2.25-6.84-7-3.9-11.24-2.9-2.83.66-5.71,1.14-8.52,1.91-.6.17-1,1.22-1.45,1.86,6.71,3,.45,4.15-.88,6-.26,2.87-1.19,5.6-1.76,8.4-.32,1.54-.65,3.18.83,4.43Z" transform="translate(-872.62 -186.81)"/><path class="cls-1" d="M1744.84,299.92c.85-2.68,2.05-5.3,2.43-8,.21-1.5-1-3.19-1.5-4.79a22.69,22.69,0,0,1-.89-2.8c-.64-3.67-.59-3.64-3.31-1.81-.39.26-1.19-.15-1.75,0-2.34.5-6.11.41-6.72,1.75-1.71,3.71-3.08,8.24,2.2,10.92C1738.47,296.73,1741.66,298.32,1744.84,299.92Z" transform="translate(-872.62 -186.81)"/><path class="cls-5" d="M1630.9,275.27c.35.62.56,1.5,1.09,1.8,2.27,1.29,4.64,2.41,7,3.59a27.81,27.81,0,0,1,1.1-4.29c.16-.4,1.34-.45,2.06-.5.2,0,.4.74.68.81,1.12.3,3,1,3.3.59a116.89,116.89,0,0,0,6.6-10.95c.3-.56-1.1-2.69-1.2-2.66-1.93.69-4.45,1.1-5.53,2.55-3.33,4.46-6.65,5.56-11.36,2.68-2.36-1.44-4.53-3.19-6.79-4.8.05.86.42,1.88.08,2.54-1.65,3.22-1.25,5.48,2.47,6.72C1630.73,273.47,1630.74,274.61,1630.9,275.27Z" transform="translate(-872.62 -186.81)"/><path class="cls-2" d="M1454.55,312.7c3.64-.56,7.32-1.27,6.53,4.59-.1.68,1,2.22,1.43,2.16a13.18,13.18,0,0,0,4.81-1.5c1-.58,1.54-1.91,2.29-2.9,3.66-1.37,5.24-5.54,9.08-6.69.62-.19.59-1,.62-1.62-3.14-1.2-6.26-3.54-9.41.08a2.3,2.3,0,0,1-2.07.55C1461.4,304.28,1458.26,309.17,1454.55,312.7Z" transform="translate(-872.62 -186.81)"/><path class="cls-4" d="M1177.78,277.51c1.26-2.19,2.43-4.44,3.8-6.55,1.66-2.56-.65-7.46,4.64-7.87l-.9-3.43a55.72,55.72,0,0,0-7.84,2.82c-.83.44-.83,2.45-1.23,3.73-.85,2.77-1.59,5.24-5.55,5.26-1.56,0-3.11,2.46-4.66,3.8,1.7.31,3.39.6,5.09.92C1173.35,276.61,1175.56,277.07,1177.78,277.51Z" transform="translate(-872.62 -186.81)"/><path class="cls-6" d="M1120,300.89c3.14.61,6.27,1.23,9.43,1.72a3.58,3.58,0,0,0,.58-2.14c-1.75-5.34,3.09-4.09,5.31-4.86.76-.27,3,1.92,3.63,3.39,1.46,3.36,2.94,6.32,7.21,6.33a68,68,0,0,0,.09-7c-.08-1-.81-2.76-1.48-2.87q-8.65-1.55-17.41-2.46c-.78-.09-1.83,1.23-2.56,2.06C1123.1,297,1121.55,299,1120,300.89Z" transform="translate(-872.62 -186.81)"/><path class="cls-3" d="M1583.54,270.88c4.31-4.57,8.18-.56,12.2.62-1.43-2.81-2.53-5.88-4.44-8.31-.87-1.1-4.31-1.83-5-1.16-4,4.17-9.28,2.71-14,3.55C1574.28,271.13,1578.8,271.24,1583.54,270.88Z" transform="translate(-872.62 -186.81)"/><path class="cls-6" d="M1613.62,289.6c-4.13,1-6.44-1.37-8.3-4.55-1.7,2.71-1.94,7.5-7.38,3.23-4-3.17-6.66-1.37-6.61,3.51,3.12-2.29,5.18-2.37,7.06,1.85.94,2.12,4,3.28,6.18,4.87C1607.14,295.09,1607.9,289.84,1613.62,289.6Z" transform="translate(-872.62 -186.81)"/><path class="cls-6" d="M1562.6,258c-2.87-3.72-3.67-7.71-1.62-12.08a30,30,0,0,0-3.6-3c-.73-.45-1.84-.29-2.78-.41,0,1,.07,2,0,3s0,2.18-.55,2.8c-3.71,4.16-2.32,7.95,3.76,9.52A22.56,22.56,0,0,0,1562.6,258Z" transform="translate(-872.62 -186.81)"/><path class="cls-5" d="M1706.72,259.63a90.91,90.91,0,0,0-9,3.88c-.47.26-.35,2.43.16,3.35,1,1.89,11.16,4.16,12.95,3.15.19-.11.52-.37.49-.42C1709.84,266.29,1708.3,263,1706.72,259.63Z" transform="translate(-872.62 -186.81)"/><path class="cls-6" d="M1147.85,286.48a43.79,43.79,0,0,0,4.24,2,82.78,82.78,0,0,0,8,2.44,13,13,0,0,0,5.45.43c.9-.19,2.22-2.8,2.07-2.93a18.42,18.42,0,0,0-4.71-3.32c-2.47-1.14-5.11-1.91-7.69-2.83-1.38.9-3,1-4.57,1.5A4,4,0,0,0,1147.85,286.48Z" transform="translate(-872.62 -186.81)"/><path class="cls-4" d="M1147.85,286.48l7.31-4.25c-1.3-1.75-2.29-4-4-5.12-1.54-1.05-3.85-1-5.83-1.37-.07,1.83-.54,3.75-.12,5.47S1146.93,284.73,1147.85,286.48Z" transform="translate(-872.62 -186.81)"/><path class="cls-5" d="M1175.43,310.62c2.38,2.2,4.78,4,7.64.61.28-.32,1-.67,1.29-.53,5.08,2.54,9-1.32,13.29-2.54,2.18-.61,4.18-1.15,4.43-4.7.42-5.74,2.83-6.55,10.18-4.95-3.54-3.05-9.93-2.33-12.51,1.41-.2.29-.5.78-.39,1,2.63,4.75-1.35,5.1-4.13,6a78.81,78.81,0,0,1-8.7,2.26c-2.5.52-5.07.75-7.61,1.09C1177.76,310.41,1176.59,310.5,1175.43,310.62Z" transform="translate(-872.62 -186.81)"/><path class="cls-6" d="M1479.31,306.74c-6.43-.95-5.84,6.26-9.7,8.31,1.87-.95,3.73-1.94,5.62-2.84.75-.36,2-1,2.33-.74,5.73,4.72,6.88-1,9.27-3.94.24-.29.5-.56.75-.83Z" transform="translate(-872.62 -186.81)"/><path class="cls-6" d="M1871.65,301.49l9.74.75q1.17-2.55,2.33-5.11c-7.31,5.53-13.85,1.12-20.76-1.25-2.54-.87-5.77.18-8.67.54-.33,0-.51,1.31-.75,2C1860.47,294.15,1865.69,300,1871.65,301.49Z" transform="translate(-872.62 -186.81)"/><path class="cls-6" d="M1834.62,298.36q4.37-4.69,8.72-9.4c.71-.77,1.35-1.6,2-2.41l-.33-4.23a22.23,22.23,0,0,0-4,2.7,23,23,0,0,0-4.59,5.87C1835.33,293.16,1835.18,295.86,1834.62,298.36Z" transform="translate(-872.62 -186.81)"/><path class="cls-6" d="M1004.49,288.05c1.91,2.34,3.75,4.75,5.76,7,1.54,1.71,3.31,3.22,5,4.82,1.09-3.82-.45-6.42-3.57-8.65-1.18-.84-1.43-2.88-2.49-4a31.57,31.57,0,0,0-4.35-3.38C1004.7,285.23,1004.6,286.64,1004.49,288.05Z" transform="translate(-872.62 -186.81)"/><path class="cls-4" d="M1253.57,311.82l2.64,2.31c.47-1,.7-2.37,1.48-2.85a7.17,7.17,0,0,1,4.33-1.2c1.11.15,1.92,1.95,3.1,2.36,1,.35,4.05,3.42,3.15-1.44-.1-.58,1.6-1.49,2.46-2.24-1-3.08-1.74-5.48-5.83-2.52C1261.54,308.67,1257.37,310,1253.57,311.82Z" transform="translate(-872.62 -186.81)"/><path class="cls-6" d="M1539.28,305.94l15.83-3c-2.55-1.13-5-3.06-7.66-3.21C1543.46,299.49,1540.08,301.34,1539.28,305.94Z" transform="translate(-872.62 -186.81)"/></svg>