<svg id="Layer_1" data-name="Layer 1" xmlns="http://www.w3.org/2000/svg" viewBox="0 0 1813.18 248.7"><defs><style>.cls-1{fill:#010101;}</style></defs><path class="cls-1" d="M1282.59,270.11l5.06-3v-6.51l33.74-3.74-.09-4.11c4.2-.16,13.91.14,17-2.59a8.93,8.93,0,0,0,7.86,2.49c3,2.85,6.58,4.12,8.8-.3l19-1c3.1,2,7.86,3.44,10.26-.3l25.42-1.68c3.63.42,8.06,1.66,10.69-1.77a4.45,4.45,0,0,1,1.33-.45c18-1.72,36.15,0,53.85-3.87,10.19-.24,20.41,2.29,30.49-.37,2.77-4.06,8,1,11.57-2,2.46.26,6.52,1.3,8.7,0,0-1.92-2-3.18-3.54-4,12.51,2,25-.55,37.47.15a28.9,28.9,0,0,0,9.72-1.52c5.1.5,10.88,1,15.65-1.11,4.41-1.83,9.7,1.89,13.86-1.4,5.33.6,10.1-2,15.25-2.33,6.68.2,13.85,2.06,20.14-1.1,10.09,1.87,20.42,3.67,30.64,1.25a19.92,19.92,0,0,1,6.75.3c3.49,1.14,7.3.77,10.88.23,4.66-.5,13.73.29,18.08-1.11l-.12-.25c-4.43-2.08-11.49-.9-11.59-7.63-1.23-1.83-3.89-3.49-4.84-.5l-3.42-3.6-.1-1.51-2.11-1.56c8.23-.48,16.75,1.1,24.81-.63l.12-.23c-2.62-1.6-6.39-1.59-9.36-2.24-.62-2.13-3.06-3.16-5-3.88,3.72-.21,60.13,1.1,53.53-3,8,1.74,16-1,23.92-1.39,14.31-.62,32,.07,46.11-1.94l0-.28c-2-1.26-4.92-1.55-7.17-2.14a14.9,14.9,0,0,0-8.88-7.79c-3.73-3.89-7.11-9-13-9.23a19.57,19.57,0,0,0-10.41-5.11l-7.63-8.33a29.8,29.8,0,0,0-9.31-1.51c-1.81-8.09-14-10.91-21-12.59-5.81-1.73-11.69-4.05-17.89-3.33-2.26-1.07-6-3.49-8.36-1.82a6.92,6.92,0,0,0-6.67-2.75,11.26,11.26,0,0,0-7.79-1.94c-7.84-5.83-19.29-2.36-28.5-3.17a158.21,158.21,0,0,0-45.18-.89c-9.54-2.2-3-5.56-18.5-3.75l-.84-1.6c-2.31-1-3.94-3.63-6.62-3.83-.85-1.73-1.77-5.39-3.94-5.73l-.53.27a12.38,12.38,0,0,0-3.68-3c-.12-1.66.3-6.86-1.48-7.49l-.41.11c-7.69-6.6-17-13.43-26.73-15.92a44.81,44.81,0,0,0-23.66-7.45,10.33,10.33,0,0,0-8.36-2.13c-2.79-4-5-2.66-9-2.2L1519,87l-.37-1c-9.32-.9-17.76-5.41-27.05-6.34l-.31-5.09c-.88,0-19.7,2.06-19.92,1.78l-.22-21.92,1.15-1.93-.15-6.45-11.91-.05-.84-.69V43.45H1457l-7.28-5.9,4.45-.11,0-1.54h-4.94l-.08-11.6h-1.53l.08,2.49-3.12.08,1.06,2.16,1.65.6.33,6.22-4.53,0,0,1.53,4.45.08,0,15-11.85-.09,11.74-14.48-.38,0-11.75,14.49H1432l.07,4.9,1.83,2.86,0,7.41-1.75,1.86.06,9c-24.61,6.65-51.36.66-76.39,5.55-4.06-1-8.4,1-12.51,1a7.54,7.54,0,0,0-5.1-1.14c-6.1-3.3-11.62-2.2-18.09-2a18.54,18.54,0,0,0-18-6.13,12.46,12.46,0,0,0-7.91-.3C1284.73,78,1270.6,74.43,1261,77c-3.44,0-16.12-.88-17.14,2.91-3.07-.16-8-.85-9.46,2.61-1.78.16-7.7-.14-8.47,1.54-2.83.25-6.63.06-8.78,2.2C1211.84,86.76,0,89.46,0,89.46l.5,182.1L1256.79,273ZM1459.39,45.8l.3.25h-.3Zm-2.75-2.23.14,5.42-4.27.08v2.57l-.79,0,0,.78-2.49.07,0-15Z" transform="translate(0 -24.3)"/></svg>